<svg xmlns="http://www.w3.org/2000/svg" width="456" height="540" viewBox="0 0 456 540">
  <g fill="none" fill-rule="evenodd">
    <polygon fill="#EDDEDD" points="69.165 309.91 85.583 314.591 85.583 472.725 69.165 439.313"/>
    <polygon fill="#FFF" points="102.019 319.487 85.601 314.594 85.601 472.729 102.019 468.048"/>
    <polygon fill="#EDDEDD" points="259.705 343.935 276.123 331.405 276.123 512.475 259.705 507.794"/>
    <polygon fill="#FFF" points="292.558 318.929 276.14 331.369 276.14 512.478 292.558 507.798"/>
    <polygon fill="#EDDEDD" points="123.317 325.896 135.83 329.475 135.83 408.963 123.317 405.383"/>
    <polygon fill="#EDDEDD" points="142.631 407.232 146.536 406.185 146.536 413.266 142.631 412.152"/>
    <polygon fill="#F9F5F4" points="150.446 403.217 146.541 406.176 146.541 413.266 150.446 412.153"/>
    <polygon fill="#F9F5F4" points="184.166 344.043 135.837 329.477 135.837 408.965 184.166 397.331"/>
    <polygon fill="#DDC8C7" points="176.623 341.594 157.828 335.905 157.828 396.718 176.623 392.219"/>
    <polygon fill="#DDC8C7" points="154.871 335.239 148.36 332.941 148.36 399.046 154.871 397.485"/>
    <polygon fill="#DDC8C7" points="145.474 332.377 138.354 330.217 138.354 401.417 145.474 399.717"/>
    <polygon fill="#EDDEDD" points="180.007 342.639 185.59 344.236 185.59 379.7 180.007 378.103"/>
    <polygon fill="#F9F5F4" points="207.155 350.735 185.593 344.236 185.593 379.7 207.155 374.509"/>
    <polygon fill="#EDDEDD" points="209.874 351.28 216.74 353.254 216.74 452.592 212.357 451.338"/>
    <polygon fill="#EDDEDD" points="218.476 452.011 222.381 449.031 222.381 456.111 218.476 454.998"/>
    <polygon fill="#FFF" points="226.29 446.063 222.385 449.022 222.385 456.112 226.29 454.999"/>
    <polygon fill="#FFF" points="235.878 359.084 216.743 353.254 216.743 452.593 233.673 448.517"/>
    <polygon fill="#EDDEDD" points="109.617 321.899 113.349 322.966 113.349 346.673 109.617 345.604"/>
    <polygon fill="#F9F5F4" points="127.764 327.311 113.351 322.967 113.351 346.672 127.764 343.203"/>
    <polygon fill="#EDDEDD" points="44.178 302.493 50.175 304.209 50.175 342.306 44.178 340.59"/>
    <path fill="#F9F5F4" d="M73.342,311.1902 L50.178,304.2092 L50.178,342.3062 C61.388,332.8092 73.342,336.7302 73.342,336.7302 L73.342,311.1902 Z"/>
    <polygon fill="#EDDEDD" points="315.297 301.197 327.81 291.692 327.81 360.212 315.297 356.633"/>
    <polygon fill="#FFF" points="376.145 255.182 327.816 291.331 327.816 360.213 376.145 348.579"/>
    <polygon fill="#EDDEDD" points="372.869 258.206 378.452 253.921 378.452 387.405 372.869 385.808"/>
    <polygon fill="#F9F5F4" points="400.017 237.827 378.455 253.814 378.455 387.406 400.017 362.485"/>
    <path fill="#FFF" d="M85.5858,471.5058 L87.5298,471.5058 L87.0058,532.0278 C86.9978,533.0058 86.4658,533.9048 85.6128,534.3838 L85.5858,534.3988 L85.5858,471.5058 Z"/>
    <path fill="#F9F5F4" d="M182.2236 394.0047L184.1676 394.0047 183.6436 441.0247C183.6356 442.0027 183.1036 442.9017 182.2506 443.3807L182.2236 443.3957 182.2236 394.0047zM149.0758 410.7291L150.4648 410.7291 150.0898 444.3121C150.0838 445.0111 149.7048 445.6531 149.0948 445.9961L149.0758 446.0061 149.0758 410.7291z"/>
    <path fill="#FFF" d="M231.6497,445.9421 L233.5937,445.9421 L233.0697,492.9621 C233.0617,493.9401 232.5297,494.8391 231.6767,495.3181 L231.6497,495.3331 L231.6497,445.9421 Z"/>
    <path fill="#EDDEDD" d="M214.2547,450.4501 L212.3107,450.4501 L212.8347,497.4701 C212.8427,498.4481 213.3747,499.3471 214.2277,499.8261 L214.2547,499.8411 L214.2547,450.4501 Z"/>
    <path fill="#DDC8C7" d="M71.0196,310.5579 L71.0196,329.4609 C71.0196,329.4609 60.4336,326.7329 52.5126,333.6189 L52.5126,304.9079 L71.0196,310.5579 Z"/>
    <polygon fill="#EDDEDD" points="97.463 317.451 99.415 318.083 99.415 466.016 97.463 466.608"/>
    <polygon fill="#EDDEDD" points="93.227 316.209 95.179 316.841 95.179 467.182 93.227 467.774"/>
    <polygon fill="#EDDEDD" points="88.991 314.967 90.943 315.599 90.943 468.317 88.991 468.909"/>
    <polygon fill="#EDDEDD" points="187.802 373.927 205.409 369.822 205.409 372.604 187.802 376.708"/>
    <polygon fill="#EDDEDD" points="187.802 367.95 205.409 363.845 205.409 366.627 187.802 370.731"/>
    <polygon fill="#EDDEDD" points="187.802 361.973 205.409 357.868 205.409 360.65 187.802 364.754"/>
    <polygon fill="#EDDEDD" points="187.802 355.996 205.409 351.891 205.409 354.673 187.802 358.777"/>
    <polygon fill="#F9F5F4" points="147.036 363.755 155.649 361.757 155.649 364.538 147.036 366.536"/>
    <polyline fill="#EDDEDD" points="202.795 349.306 187.802 352.801 187.802 350.02 197.475 347.765"/>
    <polygon fill="#DDC8C7" points="289.323 468.152 279.291 470.258 279.291 506.936 289.323 504.529"/>
    <polygon fill="#DDC8C7" points="289.323 445.055 279.291 447.161 279.291 466.178 289.323 463.772"/>
    <polygon fill="#DDC8C7" points="289.323 382.478 279.291 384.584 279.291 403.601 289.323 401.195"/>
    <polygon fill="#DDC8C7" points="289.323 405.341 279.291 407.447 279.291 442.991 289.323 440.584"/>
    <polygon fill="#DDC8C7" points="289.323 321.278 279.291 328.812 279.291 379.766 289.323 377.359"/>
    <polygon fill="#DDC8C7" points="355.388 271.384 336.593 285.138 336.593 350.649 355.388 346.15"/>
    <polygon fill="#EDDEDD" points="249.875 351.336 256.685 346.139 256.685 421.241 249.875 419.3"/>
    <polygon fill="#F9F5F4" points="263.502 340.964 256.692 346.124 256.692 421.242 263.502 419.301"/>
    <polygon fill="#DDC8C7" points="367.5 262.203 360.38 267.604 360.38 345.087 367.5 343.387"/>
    <polygon fill="#F9F5F4" points="138.03 352.94 146.644 350.942 146.644 353.724 138.03 355.721"/>
    <polygon fill="#F9F5F4" points="137.598 388.91 146.212 386.912 146.212 389.693 137.598 391.691"/>
    <path fill="#FFF" d="M330.9789,356.5233 L332.9229,356.5233 L332.3989,392.1293 C332.3909,393.1083 331.8589,394.0073 331.0059,394.4863 L330.9789,394.5013 L330.9789,356.5233 Z"/>
    <path fill="#F9F5F4" d="M378.4991,385.2455 L380.4431,385.2455 L379.9191,407.8635 C379.9111,408.8425 379.3791,409.7415 378.5261,410.2205 L378.4991,410.2355 L378.4991,385.2455 Z"/>
    <polygon fill="#F9F5F4" points="359.731 315.783 368.345 313.785 368.345 316.566 359.731 318.564"/>
    <polygon fill="#F9F5F4" points="335.788 298.32 357.004 293.398 357.004 300.249 335.788 305.17"/>
    <polygon fill="#EDDEDD" points="394.289 241.86 396.241 242.492 396.241 360.701 394.289 361.293"/>
    <polygon fill="#EDDEDD" points="390.053 245.175 392.005 243.759 392.005 366.278 390.053 366.87"/>
    <polygon fill="#EDDEDD" points="385.817 248.34 387.769 246.89 387.769 373.154 385.817 373.747"/>
    <polygon fill="#EDDEDD" points="381.01 251.419 382.962 250.069 382.962 378.771 381.01 379.363"/>
    <polygon fill="#EDDEDD" points="391.515 244.214 397.098 239.929 397.098 266.428 391.515 264.831"/>
    <polygon fill="#F9F5F4" points="418.663 223.835 397.101 239.821 397.101 266.429 418.663 261.238"/>
    <polygon fill="#DDC8C7" points="400.197 241.077 415.787 230.888 415.787 259.03 400.197 262.664"/>
    <polygon fill="#EDDEDD" points="316.606 300.652 322.189 296.367 322.189 322.866 316.606 321.269"/>
    <polygon fill="#F9F5F4" points="343.754 279.854 322.192 296.26 322.192 322.868 343.754 317.676"/>
    <polygon fill="#EDDEDD" points="325.288 293.762 340.878 282.041 340.878 315.467 325.288 319.103"/>
    <polygon fill="#EDDEDD" points="219.271 446.862 231.477 444.016 231.477 445.945 219.271 448.79"/>
    <polygon fill="#EDDEDD" points="219.271 442.434 231.477 439.588 231.477 441.517 219.271 444.362"/>
    <polygon fill="#EDDEDD" points="219.271 438.005 231.477 435.159 231.477 437.088 219.271 439.933"/>
    <polygon fill="#EDDEDD" points="219.271 433.577 231.477 430.731 231.477 432.66 219.271 435.505"/>
    <polygon fill="#EDDEDD" points="219.271 429.148 231.477 426.302 231.477 428.231 219.271 431.076"/>
    <polygon fill="#EDDEDD" points="219.271 424.719 231.477 421.873 231.477 423.802 219.271 426.647"/>
    <polygon fill="#EDDEDD" points="219.271 420.291 231.477 417.445 231.477 419.374 219.271 422.219"/>
    <polygon fill="#EDDEDD" points="219.271 415.862 231.477 413.016 231.477 414.945 219.271 417.79"/>
    <polygon fill="#EDDEDD" points="219.271 411.433 231.477 408.587 231.477 410.516 219.271 413.361"/>
    <polygon fill="#EDDEDD" points="219.271 407.005 231.477 404.159 231.477 406.088 219.271 408.933"/>
    <polygon fill="#EDDEDD" points="219.271 402.576 231.477 399.73 231.477 401.659 219.271 404.504"/>
    <polygon fill="#EDDEDD" points="219.271 398.147 231.477 395.301 231.477 397.231 219.271 400.075"/>
    <polygon fill="#EDDEDD" points="219.271 393.719 231.477 390.873 231.477 392.802 219.271 395.647"/>
    <polygon fill="#EDDEDD" points="219.271 389.29 231.477 386.444 231.477 388.373 219.271 391.218"/>
    <polygon fill="#EDDEDD" points="219.271 384.862 231.477 382.016 231.477 383.945 219.271 386.79"/>
    <polygon fill="#EDDEDD" points="219.271 380.433 231.477 377.587 231.477 379.516 219.271 382.361"/>
    <polygon fill="#EDDEDD" points="219.271 376.004 231.477 373.158 231.477 375.087 219.271 377.932"/>
    <polygon fill="#EDDEDD" points="219.271 371.576 231.477 368.73 231.477 370.659 219.271 373.504"/>
    <polygon fill="#EDDEDD" points="219.271 367.147 231.477 364.301 231.477 366.23 219.271 369.075"/>
    <polygon fill="#EDDEDD" points="219.271 362.718 231.477 359.872 231.477 361.801 219.271 364.646"/>
    <polygon fill="#EDDEDD" points="219.271 358.29 231.477 355.444 231.477 357.373 219.271 360.218"/>
    <polygon fill="#EDDEDD" points="277.65 511.98 281.555 510.933 281.555 518.014 277.65 516.9"/>
    <polygon fill="#F9F5F4" points="285.465 507.965 281.56 510.924 281.56 518.014 285.465 516.901"/>
    <polygon fill="#EDDEDD" points="351.916 354.394 355.821 353.346 355.821 360.428 351.916 359.313"/>
    <polygon fill="#FFF" points="359.731 350.379 355.826 353.338 355.826 360.428 359.731 359.315"/>
    <path fill="#F3E6E4" d="M20.4819,287.1294 L232.1309,131.0484 C233.4199,130.0624 235.1019,129.7514 236.6589,130.2104 L451.2019,184.4784 C455.0709,185.6204 458.3769,198.4484 448.9069,205.1454 L245.1539,359.0314 C243.8679,360.0024 238.1329,363.4964 229.5639,361.0844 L35.0639,303.6914 C31.2099,302.5524 21.2019,297.4624 20.4819,287.1294"/>
    <path fill="#FFF" d="M114.298,322.6618 L149.259,333.2928 C152.074,334.1488 155.034,333.1488 156.582,330.8208 L159.093,327.0418 L106.964,311.1908 L109.543,318.2028 C110.325,320.3268 112.102,321.9938 114.298,322.6618"/>
    <path fill="#FFF" d="M232.1312,122.6592 C233.4202,121.6732 235.1022,121.3622 236.6582,121.8212 L451.2022,185.2092 C455.0712,186.3512 455.9902,191.4112 452.7712,193.8412 L242.5982,352.5512 C241.3112,353.5222 238.1332,355.1432 231.7962,353.3432 L23.8652,291.8022 C20.0112,290.6632 19.0812,285.6312 22.2722,283.1892 L232.1312,122.6592 Z"/>
    <path fill="#000047" d="M50.1397,273.7893 L232.3907,134.3383 C233.5427,133.4573 235.0467,133.1783 236.4377,133.5893 L432.8497,191.6253 C435.0337,192.2703 435.5537,195.1273 433.7357,196.4993 L249.6237,335.4813 C248.4737,336.3493 246.9807,336.6203 245.5987,336.2123 L51.0387,278.6513 C48.8637,278.0083 48.3377,275.1683 50.1397,273.7893"/>
    <polygon fill="#FFF" points="134.213 271.318 120.171 273.12 115.177 261.771 129.172 259.86"/>
    <polygon fill="#48B5AA" points="134.213 271.318 147.323 247.954 142.181 236.267 129.208 259.942"/>
    <polygon fill="#3A9189" points="135.427 268.996 135.02 269.797 130.002 258.39 130.422 257.62"/>
    <polygon fill="#3A9189" points="136.793 266.509 136.387 267.31 131.369 255.903 131.788 255.133"/>
    <polygon fill="#3A9189" points="138.16 264.023 137.754 264.824 132.736 253.417 133.155 252.647"/>
    <polygon fill="#3A9189" points="139.526 261.537 139.12 262.338 134.102 250.931 134.521 250.161"/>
    <polygon fill="#3A9189" points="140.893 259.05 140.487 259.851 135.469 248.444 135.888 247.674"/>
    <polygon fill="#3A9189" points="142.26 256.564 141.854 257.365 136.836 245.958 137.255 245.188"/>
    <polygon fill="#3A9189" points="143.626 254.078 143.22 254.879 138.202 243.472 138.621 242.702"/>
    <polygon fill="#3A9189" points="144.993 251.591 144.587 252.392 139.569 240.985 139.988 240.215"/>
    <polygon fill="#3A9189" points="146.359 249.105 145.953 249.906 140.935 238.499 141.355 237.729"/>
    <polygon fill="#C1EAE5" points="129.195 259.913 115.201 261.823 128.506 237.891 142.169 236.239"/>
    <path fill="#150121" d="M200.1542,294.0384 C200.1542,294.0384 246.8792,299.2954 279.3912,276.9064 C311.9042,254.5174 407.2852,182.6244 407.2852,182.6244 C407.2852,182.6244 398.3202,178.0874 395.5652,173.8214 C389.8952,177.2234 200.1542,294.0384 200.1542,294.0384"/>
    <polygon fill="#108E7F" points="332.565 149.494 324.461 155.236 324.461 151.293 332.565 145.551"/>
    <path fill="#350DA3" d="M230.1228,172.9407 L177.2868,212.5187 C177.2868,212.5187 177.2768,210.9557 177.1748,205.4587 C177.1318,203.1617 174.6218,202.2267 172.6868,203.4667 C137.5388,225.9827 135.4188,245.7107 135.4188,245.7107 L141.8308,248.5207 L156.0018,245.0757 L219.5748,205.2937 L230.1228,172.9407 Z"/>
    <polygon fill="#F2B7B1" points="177.632 212.519 355.956 77.521 438.248 113.646 269.99 239.87"/>
    <polygon fill="#A64135" points="289.613 176.688 267.104 193.029 247.008 187.53 269.517 171.189"/>
    <polygon fill="#A64135" points="248.476 186.252 231.488 199.022 220.485 196.059 237.473 183.289"/>
    <polygon fill="#A64135" points="273.688 206.541 251.179 222.882 240.176 219.919 262.685 203.578"/>
    <polygon fill="#A64135" points="310.52 185.152 288.011 201.493 277.008 198.53 299.517 182.189"/>
    <polygon fill="#A64135" points="351.895 174.777 329.386 191.118 318.383 188.155 340.892 171.814"/>
    <polygon fill="#A64135" points="307.624 211.943 285.115 228.284 274.112 225.321 296.621 208.98"/>
    <polygon fill="#A64135" points="314.02 154.027 291.511 170.368 280.508 167.405 303.017 151.064"/>
    <path fill="#FFF" d="M141.3109,248.1962 C141.3109,248.1962 148.5139,224.9472 179.1039,206.9412 C209.6339,215.6012 261.4439,230.7222 262.7789,231.1302 C235.2209,250.1872 180.3019,266.1902 141.3109,248.1962"/>
    <path fill="#0000BD" d="M135.4192,245.7108 C135.4192,245.7108 191.3942,276.1518 265.9082,229.1108 C267.7102,227.9728 270.0612,229.2608 270.0612,231.3918 L270.0612,239.7888 L423.4692,124.4888 L426.8872,114.1838 L436.6182,106.6348 C437.7602,105.7488 439.4052,106.6718 439.2382,108.1068 C438.5202,114.2708 436.9292,126.7618 434.7252,137.3588 C433.6382,142.5888 429.3042,149.5178 425.0552,152.7558 C396.7092,174.3568 294.4862,252.3688 294.4862,252.3688 C294.4862,252.3688 259.4152,281.9938 229.0352,290.0158 C198.6552,298.0378 174.9632,292.8058 160.9922,280.9168 C147.0222,269.0268 135.4192,245.7108 135.4192,245.7108"/>
    <path fill="#11117F" d="M293.7365,236.3646 C293.7365,236.3646 254.3185,268.7756 220.0955,276.7976 C190.2785,283.7876 166.0915,277.9276 149.9725,269.1576 C153.3035,273.5026 157.0185,277.7136 160.9195,281.0336 C174.8905,292.9236 198.5825,298.1556 228.9625,290.1326 C259.3415,282.1106 294.4135,252.4856 294.4135,252.4856 L423.7115,154.1266 C431.3695,148.3206 435.1025,140.5886 435.9985,131.0206 C436.0045,130.9506 436.0115,130.8816 436.0175,130.8116 C433.8205,132.3956 293.7365,236.3646 293.7365,236.3646"/>
    <polygon fill="#0000BD" points="303.43 227.395 316.041 225.965 354.548 198.336 368.622 179.368 345.942 192.878"/>
    <path fill="#0000BD" d="M305.1266,228.0016 C305.1266,228.0016 307.0586,226.9706 309.7626,226.6766 C308.9176,224.8296 305.2606,224.4006 305.2606,224.4006 L304.8196,224.8656 L305.1266,228.0016 Z"/>
    <path fill="#2E024A" d="M146.7255,315.3503 C146.7255,317.7763 142.9085,319.7433 138.1995,319.7433 C133.4905,319.7433 129.6735,317.7763 129.6735,315.3503 C129.6735,312.9243 133.4905,310.9573 138.1995,310.9573 C142.9085,310.9573 146.7255,312.9243 146.7255,315.3503"/>
    <path fill="#000047" d="M190.3898 123.2024C192.4628 130.4154 188.5648 137.8654 181.6828 139.8434 174.8008 141.8214 167.5418 137.5784 165.4688 130.3654 163.3958 123.1524 167.2938 115.7024 174.1758 113.7244 181.0568 111.7464 188.3168 115.9894 190.3898 123.2024M166.4288 153.3703C169.2648 154.6413 172.7688 158.0043 171.5018 160.8303 170.2358 163.6563 163.9568 163.8163 161.1208 162.5453 158.2848 161.2753 157.0118 157.9543 158.2778 155.1283 159.5438 152.3023 163.5928 152.0993 166.4288 153.3703"/>
    <path fill="#0000BD" d="M174.1879,128.6437 C175.2119,130.6827 175.5039,132.7087 173.5579,133.6857 C171.6119,134.6637 169.2049,133.8027 168.1809,131.7637 C167.1559,129.7247 167.9029,127.2797 169.8489,126.3017 C171.7949,125.3247 173.1639,126.6047 174.1879,128.6437"/>
    <path fill="#000047" d="M189.8501,132.5953 C188.0501,139.9763 194.1711,162.5873 208.6181,152.5693 L219.0501,153.0103 L212.3531,162.0113 L195.3591,170.4363 C195.3591,170.4363 170.4431,183.7943 180.2371,174.2533 C190.0301,164.7123 194.6391,147.1053 174.1881,139.5443 C181.3891,137.5283 191.6501,125.2143 189.8501,132.5953"/>
    <path fill="#0000BD" d="M173.0966,123.495 C173.0966,124.755 171.8796,124.499 170.5186,124.499 C169.1576,124.499 168.1686,124.755 168.1686,123.495 C168.1686,122.235 169.3166,120.552 170.6776,120.552 C172.0386,120.552 173.0966,122.235 173.0966,123.495"/>
    <path fill="#000047" d="M204.0002,134.1795 C204.0002,135.5915 202.7592,136.7355 201.2282,136.7355 C199.6962,136.7355 198.4552,135.5915 198.4552,134.1795 C198.4552,132.7675 199.6962,131.6235 201.2282,131.6235 C202.7592,131.6235 204.0002,132.7675 204.0002,134.1795"/>
    <path fill="#0000BD" d="M176.1682,124.7102 C176.1682,125.1672 175.7972,125.5382 175.3402,125.5382 C174.8832,125.5382 174.5122,125.1672 174.5122,124.7102 C174.5122,124.2532 174.8832,123.8822 175.3402,123.8822 C175.7972,123.8822 176.1682,124.2532 176.1682,124.7102"/>
    <path fill="#000047" d="M196.2821 112.0842C196.2821 113.1162 195.4451 113.9532 194.4131 113.9532 193.3811 113.9532 192.5451 113.1162 192.5451 112.0842 192.5451 111.0522 193.3811 110.2152 194.4131 110.2152 195.4451 110.2152 196.2821 111.0522 196.2821 112.0842M106.3542 231.0694C106.3542 231.0694 124.2542 214.7464 127.3812 211.0504 132.1342 205.4334 141.5232 196.2494 145.8882 193.2644 154.2592 187.5394 161.9822 188.0524 172.1082 180.5184 174.5572 178.6464 180.5252 183.8304 180.5252 183.8304L175.6282 187.7194 144.0872 213.2104 115.2832 230.6374 106.3542 231.0694z"/>
    <path fill="#2E024A" d="M248.4485 137.2039C248.4485 137.2039 266.2985 142.8479 274.4805 138.8779 267.7295 143.9549 266.0555 144.9809 266.0555 144.9809L248.4485 137.2039zM396.1596 174.7933C396.1596 174.7933 402.1006 181.8143 419.2746 187.6473 397.8156 181.8143 390.6506 178.8983 390.6506 178.8983L396.1596 174.7933z"/>
    <path fill="#11117F" d="M230.9865,264.1506 C224.7775,267.0476 219.1145,268.1966 216.1035,268.6376 C214.9055,268.8126 213.8345,267.8766 213.8345,266.6666 C213.8345,265.6676 214.5705,264.8256 215.5605,264.6946 C218.1775,264.3466 223.4855,263.3776 229.4855,260.8036 C230.6895,260.2876 232.0305,261.1826 232.0305,262.4936 C232.0305,263.1996 231.6265,263.8516 230.9865,264.1506"/>
    <path fill="#0000BD" d="M108.0104,236.3261 L59.4644,274.4101 C58.8094,274.9231 59.0144,275.9631 59.8144,276.1901 L139.9834,298.9751 C139.9834,298.9751 132.4934,285.1491 121.0444,277.7321 C115.2024,273.9471 100.3774,267.1461 100.8094,259.8011 C101.2414,252.4561 108.0104,236.3261 108.0104,236.3261"/>
    <path fill="#000047" d="M280.3671 312.297C280.3671 312.297 290.5561 305.24 294.5891 305.528 298.6221 305.816 306.1831 307.256 306.4711 321.946 306.7591 336.636 299.2701 350.606 302.2941 363.712 305.3191 376.818 320.7111 375.54 323.8251 366.737 327.6081 356.046 313.0511 351.939 311.6101 330.336 310.1701 308.732 308.2711 296.455 314.6081 285.077 294.5891 288.246 280.3671 312.297 280.3671 312.297M96.4708 254.8328C96.4708 254.8328 93.5548 261.4758 96.7408 265.7968 99.9268 270.1168 112.4028 276.3818 115.7518 282.2148 115.7518 282.2148 102.3038 272.6558 96.1468 270.5488 89.9898 268.4428 92.0958 258.5058 96.2548 254.7248"/>
    <polygon fill="#0000BD" points="345.932 238.198 411.497 186.243 420.139 189.267 308.343 275.571"/>
    <path fill="#0000BD" d="M313.0417 363.1453C314.0657 365.1843 314.3577 367.2103 312.4117 368.1873 310.4657 369.1653 308.0587 368.3043 307.0347 366.2653 306.0097 364.2263 305.0287 357.8663 306.9747 356.8893 308.9207 355.9123 312.0177 361.1063 313.0417 363.1453M318.1569 368.2005C318.1569 368.9175 317.5749 369.4995 316.8579 369.4995 316.1409 369.4995 315.5589 368.9175 315.5589 368.2005 315.5589 367.4835 316.1409 366.9015 316.8579 366.9015 317.5749 366.9015 318.1569 367.4835 318.1569 368.2005"/>
    <path fill="#000047" d="M311.0975,294.6365 C311.0975,294.6365 312.9335,285.5635 324.8695,278.8125 C336.8055,272.0615 337.8855,273.0335 347.9845,271.5215 C358.0845,270.0085 354.8435,259.1535 354.8975,254.9405 C354.9515,250.7285 356.8425,248.4055 356.8425,248.4055 L315.6885,277.5705 L307.1545,285.2935 L311.0975,294.6365 Z"/>
    <path fill="#2E024A" d="M188.2116 344.8332C188.4926 345.6932 188.1086 346.3902 187.3536 346.3902 186.5986 346.3902 185.7596 345.6932 185.4786 344.8332 185.1976 343.9732 185.5816 343.2762 186.3366 343.2762 187.0916 343.2762 187.9306 343.9732 188.2116 344.8332M195.259 347.0016C195.54 347.8616 195.156 348.5586 194.401 348.5586 193.646 348.5586 192.807 347.8616 192.526 347.0016 192.245 346.1416 192.629 345.4446 193.384 345.4446 194.139 345.4446 194.978 346.1416 195.259 347.0016M202.3064 349.17C202.5874 350.03 202.2034 350.727 201.4484 350.727 200.6934 350.727 199.8544 350.03 199.5734 349.17 199.2924 348.31 199.6764 347.613 200.4314 347.613 201.1864 347.613 202.0254 348.31 202.3064 349.17M209.3539 351.3385C209.6349 352.1985 209.2509 352.8955 208.4959 352.8955 207.7409 352.8955 206.9019 352.1985 206.6209 351.3385 206.3399 350.4785 206.7239 349.7815 207.4789 349.7815 208.2339 349.7815 209.0729 350.4785 209.3539 351.3385M63.9938 307.9099C64.2748 308.7699 63.8908 309.4669 63.1358 309.4669 62.3808 309.4669 61.5418 308.7699 61.2608 307.9099 60.9798 307.0499 61.3638 306.3529 62.1188 306.3529 62.8738 306.3529 63.7128 307.0499 63.9938 307.9099M71.0412 310.0783C71.3222 310.9383 70.9382 311.6353 70.1832 311.6353 69.4282 311.6353 68.5892 310.9383 68.3082 310.0783 68.0272 309.2183 68.4112 308.5213 69.1662 308.5213 69.9212 308.5213 70.7602 309.2183 71.0412 310.0783M78.0887 312.2468C78.3697 313.1068 77.9857 313.8038 77.2307 313.8038 76.4757 313.8038 75.6367 313.1068 75.3557 312.2468 75.0747 311.3868 75.4587 310.6898 76.2137 310.6898 76.9687 310.6898 77.8077 311.3868 78.0887 312.2468M85.1361 314.4152C85.4171 315.2752 85.0331 315.9722 84.2781 315.9722 83.5231 315.9722 82.6841 315.2752 82.4031 314.4152 82.1221 313.5552 82.5061 312.8582 83.2611 312.8582 84.0161 312.8582 84.8551 313.5552 85.1361 314.4152M9.8827 264.6706C9.8827 267.0416 7.7987 268.9636 5.2267 268.9636 2.6557 268.9636.5707 267.0416.5707 264.6706.5707 262.2996 2.6557 260.3776 5.2267 260.3776 7.7987 260.3776 9.8827 262.2996 9.8827 264.6706"/>
    <path fill="#6635ED" d="M7.2093,265.6033 C7.2093,266.9223 6.0493,267.9913 4.6193,267.9913 C3.1893,267.9913 2.0293,266.9223 2.0293,265.6033 C2.0293,264.2843 3.1893,263.2153 4.6193,263.2153 C6.0493,263.2153 7.2093,264.2843 7.2093,265.6033"/>
    <path fill="#2E024A" d="M22.5933,259.2372 C22.5933,260.2692 21.7563,261.1062 20.7243,261.1062 C19.6923,261.1062 18.8563,260.2692 18.8563,259.2372 C18.8563,258.2052 19.6923,257.3682 20.7243,257.3682 C21.7563,257.3682 22.5933,258.2052 22.5933,259.2372"/>
    <polygon fill="#FFF" points="184 239.432 172.182 235.75 172.182 232.51 184 236.161"/>
    <polygon fill="#F3E6E4" points="184 239.432 172.182 235.75 172.182 232.51 184 236.161"/>
    <polygon fill="#F7DAD5" points="184 239.432 187.625 236.94 187.625 233.58 184 236.161"/>
    <polygon fill="#FFF" points="184 236.161 172.182 232.51 175.914 229.903 187.625 233.58"/>
    <polygon fill="#FFF" points="206.252 246.417 194.434 242.735 194.434 239.495 206.252 243.146"/>
    <polygon fill="#F3E6E4" points="206.252 246.417 194.434 242.735 194.434 239.495 206.252 243.146"/>
    <polygon fill="#F7DAD5" points="206.252 246.417 209.878 243.925 209.878 240.565 206.252 243.146"/>
    <polygon fill="#FFF" points="206.252 243.146 194.434 239.495 198.166 236.888 209.878 240.565"/>
    <polygon fill="#FFF" points="202.912 233.934 191.094 230.252 191.094 227.012 202.912 230.663"/>
    <polygon fill="#F3EAE9" points="202.912 233.934 191.094 230.252 191.094 210.824 202.912 214.474"/>
    <polygon fill="#F7DAD5" points="202.912 233.934 206.537 231.442 206.537 211.695 202.912 214.275"/>
    <polygon fill="#FFF" points="202.912 214.371 191.094 210.72 194.826 208.113 206.537 211.79"/>
    <path fill="#150121" d="M405.665,183.8126 L407.177,182.5436 C407.177,182.5436 399.454,178.7356 396.214,174.6586 C393.054,176.9536 390.111,179.3836 390.111,179.3836 L399.994,183.1916 L405.665,183.8126 Z"/>
    <path fill="#12FFC9" d="M358.7269 394.4902C358.7579 396.0392 357.6689 397.4992 356.2959 397.7502 354.9219 398.0012 353.7839 396.9482 353.7529 395.3992 353.7219 393.8502 354.8109 392.3902 356.1839 392.1392 357.5579 391.8882 358.6959 392.9412 358.7269 394.4902M363.2309 393.4862C363.1639 390.1012 358.8209 384.7752 356.8869 382.5672 356.4109 382.0242 355.5589 382.1802 355.1079 382.8922 353.2749 385.7892 349.1749 392.6582 349.2419 396.0432 349.3289 400.4002 352.5299 403.3602 356.3929 402.6542 360.2559 401.9472 363.3169 397.8432 363.2309 393.4862M277.2832 531.2377C277.3142 532.7867 276.2252 534.2467 274.8522 534.4977 273.4782 534.7487 272.3402 533.6957 272.3092 532.1467 272.2782 530.5977 273.3672 529.1377 274.7402 528.8867 276.1142 528.6357 277.2522 529.6887 277.2832 531.2377M281.7872 530.2337C281.7202 526.8487 277.3772 521.5227 275.4432 519.3147 274.9672 518.7717 274.1152 518.9277 273.6652 519.6397 271.8312 522.5367 267.7312 529.4057 267.7982 532.7907 267.8852 537.1477 271.0862 540.1077 274.9492 539.4007 278.8122 538.6947 281.8732 534.5907 281.7872 530.2337M168.7277 423.6544C168.7587 425.2034 167.6697 426.6634 166.2967 426.9144 164.9227 427.1654 163.7847 426.1124 163.7537 424.5634 163.7227 423.0144 164.8117 421.5544 166.1847 421.3034 167.5587 421.0524 168.6967 422.1054 168.7277 423.6544M173.2317 422.6504C173.1647 419.2654 168.8217 413.9394 166.8877 411.7314 166.4117 411.1884 165.5597 411.3444 165.1087 412.0564 163.2757 414.9534 159.1757 421.8224 159.2427 425.2074 159.3297 429.5644 162.5307 432.5244 166.3937 431.8174 170.2567 431.1114 173.3177 427.0074 173.2317 422.6504"/>
    <polygon fill="#FFF" points="352.538 154.372 303.815 139.759 308.428 116.453 357.151 130.941"/>
    <path fill="#F3EAE9" d="M352.5375,154.3718 C352.5375,154.3718 336.9315,155.2358 322.3855,150.9148 C307.8385,146.5948 303.8155,139.7588 303.8155,139.7588 L308.4285,116.4528 L357.1505,130.9408 L352.5375,154.3718 Z"/>
    <polygon fill="#F7DAD5" points="352.538 154.372 383.882 130.455 371.394 119.911 357.151 130.941"/>
    <polygon fill="#FFF" points="357.15 130.941 308.428 116.453 323.102 105.314 371.393 119.911"/>
    <polygon fill="#FFF" points="364.865 125.293 316.142 110.68 320.755 87.374 369.478 101.862"/>
    <polygon fill="#F3EAE9" points="364.865 125.293 316.142 110.68 320.755 87.374 369.478 101.862"/>
    <polygon fill="#F7DAD5" points="364.865 125.293 383.404 130.605 392.863 123.688 383.721 90.832 369.478 101.862"/>
    <polygon fill="#FFF" points="369.477 101.862 320.755 87.374 335.429 76.235 383.72 90.832"/>
    <polygon fill="#CE867F" points="383.915 97.529 368.106 109.242 368.106 103.671 383.915 91.959"/>
    <polygon fill="#F2B7B1" points="327.242 100.546 323.169 99.39 324.32 93.311 328.393 94.467"/>
    <polygon fill="#F2B7B1" points="329.836 113.102 325.763 111.946 326.914 105.867 330.987 107.023"/>
    <polygon fill="#F2B7B1" points="314.822 129.855 310.749 128.698 311.9 122.62 315.973 123.775"/>
    <polygon fill="#F3EAE9" points="376.451 108.02 304.137 85.492 304.137 72.463 376.451 88.007"/>
    <polygon fill="#F2B7B1" points="376.451 103.772 304.137 81.244 304.137 77.061 376.451 99.383"/>
    <polygon fill="#F7DAD5" points="376.451 108.02 398.635 92.771 398.635 78.994 376.451 94.785"/>
    <polygon fill="#FFF" points="376.451 94.768 304.137 72.429 326.972 56.474 398.635 78.977"/>
    <polygon fill="#FFF" points="370.232 82.131 330.349 69.706 330.349 62.521 370.232 71.093"/>
    <path fill="#F3EAE9" d="M370.2317,82.1306 C370.2317,82.1306 358.6267,82.4016 345.7697,78.6116 C332.9127,74.8216 330.3487,69.7056 330.3487,69.7056 L332.5447,61.0616 L372.4277,73.3816 L370.2317,82.1306 Z"/>
    <polygon fill="#F7DAD5" points="370.232 82.131 382.467 73.721 382.467 66.123 372.368 73.311"/>
    <path fill="#FFF" d="M372.4097,73.3401 C372.4097,73.3401 363.6417,74.1341 350.4957,70.8351 C337.3497,67.5371 332.5267,61.0191 332.5267,61.0191 L342.9427,53.7011 L382.4667,66.1121 L372.4097,73.3401 Z"/>
    <polygon fill="#FFF" points="362.918 66.618 344.609 60.914 344.609 57.615 362.918 61.551"/>
    <polygon fill="#F3EAE9" points="362.918 66.618 344.609 60.914 344.628 57.608 362.937 63.264"/>
    <polygon fill="#F7DAD5" points="362.918 66.618 368.535 62.757 368.535 59.269 362.918 63.267"/>
    <polygon fill="#FFF" points="362.918 63.263 344.609 57.607 350.391 53.567 368.535 59.265"/>
    <polygon fill="#FFF" points="358.587 59.684 357.329 59.277 358.068 .534 359.326 .941"/>
    <polygon fill="#F7DAD5" points="358.587 59.684 359.845 58.723 359.845 .518 359.326 .941"/>
    <polygon fill="#FFF" points="359.326 .938 358.068 .541 358.587 .129 359.845 .526"/>
    <polygon fill="#FFF" points="351.611 57.438 350.353 57.031 351.076 14.358 352.334 14.765"/>
    <polygon fill="#F7DAD5" points="351.611 57.438 352.869 56.477 352.869 14.362 352.334 14.765"/>
    <polygon fill="#FFF" points="352.359 14.757 351.101 14.36 351.636 13.968 352.894 14.364"/>
    <polygon fill="#FFF" points="375.046 67.968 374.289 67.723 374.724 52.55 375.481 52.795"/>
    <polygon fill="#F7DAD5" points="375.046 67.968 375.803 67.39 375.803 52.553 375.481 52.795"/>
    <polygon fill="#FFF" points="375.496 52.79 374.739 52.552 375.061 52.316 375.818 52.554"/>
    <polygon fill="#FFF" points="409.3 96.708 386.546 96.407 386.546 91.207 409.3 93.206"/>
    <polygon fill="#F3EAE9" points="308.201 69.562 304.43 59.418 304.43 56.763 311.464 67.309"/>
    <polygon fill="#FFF" points="312.604 69.018 304.431 56.762 307.299 54.774 324.483 60.695"/>
    <polygon fill="#F3EAE9" points="378.859 142.238 371.406 139.916 371.406 128.412 378.859 130.734"/>
    <polygon fill="#F7DAD5" points="390.948 132.922 378.852 142.239 375.467 129.655 387.447 120.059"/>
    <polygon fill="#FFF" points="387.59 120.023 375.348 129.698 371.496 128.51 383.737 118.835"/>
    <polygon fill="#F2B7B1" points="358.73 115.614 354.657 114.458 355.808 108.379 359.881 109.535"/>
    <polygon fill="#F2B7B1" points="327.022 152.121 322.931 151.058 324.178 144.475 328.251 145.631"/>
    <polygon fill="#F2B7B1" points="343 136.758 338.927 135.602 340.078 129.523 344.151 130.679"/>
    <polygon fill="#CE867F" points="367.103 143.277 361.532 147.474 361.532 141.903 367.103 137.706"/>
    <polygon fill="#CE867F" points="378.454 117.679 372.883 121.876 372.883 116.305 378.454 112.108"/>
    <polygon fill="#F2B7B1" points="357.273 81.123 354.43 80.66 355.231 76.408 358.019 77.199"/>
    <polygon fill="#F2B7B1" points="338.37 75.504 335.527 75.041 336.328 70.789 339.116 71.58"/>
    <polygon fill="#A64135" points="387.892 95.274 376.46 103.753 376.46 99.387 387.892 90.908"/>
    <polygon fill="#F3EAE9" points="324.822 76.753 311.078 72.471 311.092 69.989 324.836 74.235"/>
    <polygon fill="#F7DAD5" points="324.822 76.753 329.038 73.855 329.038 71.236 324.822 74.238"/>
    <polygon fill="#FFF" points="324.822 74.234 311.078 69.988 315.418 66.956 329.038 71.233"/>
    <polygon fill="#F3EAE9" points="375.245 91.733 361.5 87.451 361.514 84.969 375.26 89.215"/>
    <polygon fill="#F7DAD5" points="375.245 91.733 379.461 88.835 379.461 86.216 375.245 89.218"/>
    <polygon fill="#FFF" points="375.245 89.214 361.5 84.968 365.841 81.936 379.461 86.213"/>
    <polygon fill="#FFF" points="220.511 196.094 206.599 191.991 206.599 179.287 220.511 183.269"/>
    <polygon fill="#48B5AA" points="220.511 196.094 242.446 179.592 242.446 166.511 220.511 183.36"/>
    <polygon fill="#3A9189" points="222.607 194.417 221.896 195.001 221.896 182.233 222.607 181.684"/>
    <polygon fill="#3A9189" points="224.915 192.649 224.203 193.233 224.203 180.465 224.915 179.916"/>
    <polygon fill="#3A9189" points="227.222 190.881 226.511 191.465 226.511 178.697 227.222 178.148"/>
    <polygon fill="#3A9189" points="229.529 189.114 228.818 189.698 228.818 176.93 229.529 176.381"/>
    <polygon fill="#3A9189" points="231.837 187.346 231.126 187.93 231.126 175.162 231.837 174.613"/>
    <polygon fill="#3A9189" points="234.144 185.578 233.433 186.162 233.433 173.394 234.144 172.845"/>
    <polygon fill="#3A9189" points="236.452 183.81 235.741 184.394 235.741 171.626 236.452 171.077"/>
    <polygon fill="#3A9189" points="238.759 182.042 238.048 182.626 238.048 169.858 238.759 169.309"/>
    <polygon fill="#3A9189" points="241.067 180.274 240.356 180.858 240.356 168.09 241.067 167.541"/>
    <polygon fill="#C1EAE5" points="220.511 183.328 206.599 179.346 228.951 162.391 242.446 166.479"/>
    <polygon fill="#D9F9F7" points="282.232 167.925 268.32 163.822 268.32 151.118 282.232 155.1"/>
    <polygon fill="#48B5AA" points="282.232 167.925 304.167 151.423 304.167 138.342 282.232 155.191"/>
    <polygon fill="#3A9189" points="284.329 166.249 283.618 166.833 283.618 154.065 284.329 153.516"/>
    <polygon fill="#3A9189" points="286.636 164.481 285.925 165.065 285.925 152.297 286.636 151.748"/>
    <polygon fill="#3A9189" points="288.943 162.713 288.233 163.297 288.233 150.529 288.943 149.98"/>
    <polygon fill="#3A9189" points="291.251 160.945 290.54 161.529 290.54 148.761 291.251 148.212"/>
    <polygon fill="#3A9189" points="293.558 159.177 292.847 159.761 292.847 146.993 293.558 146.444"/>
    <polygon fill="#3A9189" points="295.866 157.409 295.155 157.993 295.155 145.225 295.866 144.676"/>
    <polygon fill="#3A9189" points="298.173 155.641 297.462 156.225 297.462 143.457 298.173 142.908"/>
    <polygon fill="#3A9189" points="300.481 153.873 299.77 154.457 299.77 141.689 300.481 141.14"/>
    <polygon fill="#3A9189" points="302.788 152.106 302.077 152.69 302.077 139.922 302.788 139.373"/>
    <polygon fill="#C1EAE5" points="282.232 155.16 268.32 151.178 290.672 134.223 304.167 138.311"/>
    <polygon fill="#D9F9F7" points="251.267 188.473 237.355 184.37 237.355 171.666 251.267 175.648"/>
    <polygon fill="#48B5AA" points="251.267 188.473 273.202 171.971 273.202 158.89 251.267 175.739"/>
    <polygon fill="#3A9189" points="253.363 186.797 252.652 187.381 252.652 174.613 253.363 174.064"/>
    <polygon fill="#3A9189" points="255.671 185.029 254.96 185.613 254.96 172.845 255.671 172.296"/>
    <polygon fill="#3A9189" points="257.978 183.261 257.267 183.845 257.267 171.077 257.978 170.528"/>
    <polygon fill="#3A9189" points="260.286 181.493 259.575 182.077 259.575 169.309 260.286 168.76"/>
    <polygon fill="#3A9189" points="262.593 179.725 261.882 180.309 261.882 167.541 262.593 166.992"/>
    <polygon fill="#3A9189" points="264.901 177.957 264.19 178.541 264.19 165.773 264.901 165.224"/>
    <polygon fill="#3A9189" points="267.208 176.189 266.497 176.773 266.497 164.005 267.208 163.456"/>
    <polygon fill="#3A9189" points="269.515 174.421 268.804 175.005 268.804 162.237 269.515 161.688"/>
    <polygon fill="#3A9189" points="271.823 172.653 271.112 173.237 271.112 160.469 271.823 159.92"/>
    <polygon fill="#8BCFC6" points="251.267 175.708 237.355 171.726 259.707 154.77 273.202 158.858"/>
    <polygon fill="#FFF" points="247.274 174.719 233.362 170.616 233.362 157.912 247.274 161.894"/>
    <polygon fill="#48B5AA" points="247.274 174.719 269.209 158.217 269.209 145.136 247.274 161.985"/>
    <polygon fill="#3A9189" points="249.371 173.043 248.66 173.627 248.66 160.859 249.371 160.31"/>
    <polygon fill="#3A9189" points="251.678 171.275 250.967 171.859 250.967 159.091 251.678 158.542"/>
    <polygon fill="#3A9189" points="253.986 169.507 253.275 170.091 253.275 157.323 253.986 156.774"/>
    <polygon fill="#3A9189" points="256.293 167.739 255.582 168.323 255.582 155.555 256.293 155.006"/>
    <polygon fill="#3A9189" points="258.601 165.971 257.889 166.555 257.889 153.787 258.601 153.238"/>
    <polygon fill="#3A9189" points="260.908 164.203 260.197 164.787 260.197 152.019 260.908 151.47"/>
    <polygon fill="#3A9189" points="263.215 162.435 262.504 163.019 262.504 150.251 263.215 149.702"/>
    <polygon fill="#3A9189" points="265.523 160.668 264.812 161.252 264.812 148.484 265.523 147.935"/>
    <polygon fill="#3A9189" points="267.83 158.9 267.119 159.484 267.119 146.716 267.83 146.167"/>
    <polygon fill="#C1EAE5" points="247.274 161.954 233.362 157.972 255.714 141.017 269.209 145.105"/>
    <polygon fill="#D9F9F7" points="278.607 199.008 264.695 194.905 264.695 182.202 278.607 186.184"/>
    <polygon fill="#48B5AA" points="278.607 199.008 300.542 182.506 300.542 169.425 278.607 186.274"/>
    <polygon fill="#3A9189" points="280.704 197.332 279.993 197.916 279.993 185.148 280.704 184.599"/>
    <polygon fill="#3A9189" points="283.011 195.564 282.3 196.148 282.3 183.38 283.011 182.831"/>
    <polygon fill="#3A9189" points="285.318 193.796 284.608 194.38 284.608 181.612 285.318 181.063"/>
    <polygon fill="#3A9189" points="287.626 192.028 286.915 192.612 286.915 179.844 287.626 179.295"/>
    <polygon fill="#3A9189" points="289.933 190.26 289.222 190.844 289.222 178.076 289.933 177.527"/>
    <polygon fill="#3A9189" points="292.241 188.493 291.53 189.077 291.53 176.309 292.241 175.76"/>
    <polygon fill="#3A9189" points="294.548 186.725 293.837 187.309 293.837 174.541 294.548 173.992"/>
    <polygon fill="#3A9189" points="296.856 184.957 296.145 185.541 296.145 172.773 296.856 172.224"/>
    <polygon fill="#3A9189" points="299.163 183.189 298.452 183.773 298.452 171.005 299.163 170.456"/>
    <polygon fill="#C1EAE5" points="278.607 186.243 264.695 182.261 287.047 165.306 300.542 169.394"/>
    <polygon fill="#3A9189" points="247.334 187.333 237.358 184.364 237.358 171.784 247.334 174.752"/>
    <polygon fill="#D9F9F7" points="241.427 220.436 227.515 216.333 227.515 203.629 241.427 207.611"/>
    <polygon fill="#48B5AA" points="241.427 220.436 263.362 203.934 263.362 190.853 241.427 207.702"/>
    <polygon fill="#3A9189" points="243.524 218.76 242.813 219.344 242.813 206.576 243.524 206.027"/>
    <polygon fill="#3A9189" points="245.831 216.992 245.12 217.576 245.12 204.808 245.831 204.259"/>
    <polygon fill="#3A9189" points="248.138 215.224 247.428 215.808 247.428 203.04 248.138 202.491"/>
    <polygon fill="#3A9189" points="250.446 213.456 249.735 214.04 249.735 201.272 250.446 200.723"/>
    <polygon fill="#3A9189" points="252.753 211.688 252.042 212.272 252.042 199.504 252.753 198.955"/>
    <polygon fill="#3A9189" points="255.061 209.92 254.35 210.504 254.35 197.736 255.061 197.187"/>
    <polygon fill="#3A9189" points="257.368 208.152 256.657 208.736 256.657 195.968 257.368 195.419"/>
    <polygon fill="#3A9189" points="259.676 206.384 258.965 206.968 258.965 194.2 259.676 193.651"/>
    <polygon fill="#3A9189" points="261.983 204.617 261.272 205.201 261.272 192.433 261.983 191.883"/>
    <polygon fill="#C1EAE5" points="241.427 207.671 227.515 203.689 249.867 186.734 263.362 190.822"/>
    <polygon fill="#FFF" points="320.341 188.383 306.762 184.379 306.762 171.98 320.341 175.865"/>
    <polygon fill="#48B5AA" points="320.341 188.383 341.75 172.276 341.75 159.51 320.341 175.954"/>
    <polygon fill="#3A9189" points="322.387 186.747 321.693 187.317 321.693 174.855 322.387 174.319"/>
    <polygon fill="#3A9189" points="324.64 185.022 323.946 185.591 323.946 173.13 324.64 172.594"/>
    <polygon fill="#3A9189" points="326.892 183.296 326.198 183.866 326.198 171.404 326.892 170.868"/>
    <polygon fill="#3A9189" points="329.144 181.571 328.45 182.141 328.45 169.679 329.144 169.143"/>
    <polygon fill="#3A9189" points="331.396 179.845 330.702 180.415 330.702 167.953 331.396 167.417"/>
    <polygon fill="#3A9189" points="333.648 178.119 332.954 178.69 332.954 166.227 333.648 165.691"/>
    <polygon fill="#3A9189" points="335.9 176.394 335.206 176.964 335.206 164.502 335.9 163.966"/>
    <polygon fill="#3A9189" points="338.152 174.668 337.459 175.238 337.459 162.776 338.152 162.24"/>
    <polygon fill="#3A9189" points="340.405 172.943 339.711 173.513 339.711 161.051 340.405 160.515"/>
    <polygon fill="#C1EAE5" points="320.341 175.924 306.762 172.037 328.579 155.489 341.75 159.479"/>
    <polygon fill="#FFF" points="285.216 152.508 271.637 148.504 271.637 136.105 285.216 139.99"/>
    <polygon fill="#48B5AA" points="285.216 152.508 306.625 136.401 306.625 123.635 285.216 140.079"/>
    <polygon fill="#3A9189" points="287.262 150.872 286.568 151.442 286.568 138.98 287.262 138.444"/>
    <polygon fill="#3A9189" points="289.515 149.147 288.821 149.716 288.821 137.255 289.515 136.719"/>
    <polygon fill="#3A9189" points="291.767 147.421 291.073 147.991 291.073 135.529 291.767 134.993"/>
    <polygon fill="#3A9189" points="294.019 145.696 293.325 146.266 293.325 133.804 294.019 133.268"/>
    <polygon fill="#3A9189" points="296.271 143.97 295.577 144.54 295.577 132.078 296.271 131.542"/>
    <polygon fill="#3A9189" points="298.523 142.244 297.829 142.815 297.829 130.352 298.523 129.816"/>
    <polygon fill="#3A9189" points="300.775 140.519 300.081 141.089 300.081 128.627 300.775 128.091"/>
    <polygon fill="#3A9189" points="303.027 138.793 302.334 139.363 302.334 126.901 303.027 126.365"/>
    <polygon fill="#3A9189" points="305.28 137.068 304.586 137.638 304.586 125.176 305.28 124.64"/>
    <polygon fill="#C1EAE5" points="285.216 140.049 271.637 136.162 293.454 119.614 306.625 123.604"/>
    <polygon fill="#FFF" points="277.774 226.219 263.862 222.116 263.862 209.412 277.774 213.394"/>
    <polygon fill="#48B5AA" points="277.774 226.219 299.709 209.717 299.709 196.636 277.774 213.485"/>
    <polygon fill="#3A9189" points="279.871 224.543 279.16 225.127 279.16 212.359 279.871 211.81"/>
    <polygon fill="#3A9189" points="282.178 222.775 281.467 223.359 281.467 210.591 282.178 210.042"/>
    <polygon fill="#3A9189" points="284.486 221.007 283.775 221.591 283.775 208.823 284.486 208.274"/>
    <polygon fill="#3A9189" points="286.793 219.239 286.082 219.823 286.082 207.055 286.793 206.506"/>
    <polygon fill="#3A9189" points="289.101 217.471 288.389 218.055 288.389 205.287 289.101 204.738"/>
    <polygon fill="#3A9189" points="291.408 215.703 290.697 216.287 290.697 203.519 291.408 202.97"/>
    <polygon fill="#3A9189" points="293.715 213.935 293.004 214.519 293.004 201.751 293.715 201.202"/>
    <polygon fill="#3A9189" points="296.023 212.168 295.312 212.752 295.312 199.984 296.023 199.435"/>
    <polygon fill="#3A9189" points="298.33 210.4 297.619 210.984 297.619 198.216 298.33 197.667"/>
    <polygon fill="#C1EAE5" points="277.774 213.454 263.862 209.472 286.214 192.517 299.709 196.605"/>
    <polygon fill="#D9F9F7" points="317.107 173.571 303.195 169.468 303.195 156.764 317.107 160.746"/>
    <polygon fill="#48B5AA" points="317.107 173.571 339.042 157.069 339.042 143.988 317.107 160.837"/>
    <polygon fill="#3A9189" points="319.204 171.894 318.493 172.478 318.493 159.71 319.204 159.161"/>
    <polygon fill="#3A9189" points="321.511 170.126 320.8 170.71 320.8 157.942 321.511 157.393"/>
    <polygon fill="#3A9189" points="323.818 168.359 323.108 168.943 323.108 156.175 323.818 155.626"/>
    <polygon fill="#3A9189" points="326.126 166.591 325.415 167.175 325.415 154.407 326.126 153.858"/>
    <polygon fill="#3A9189" points="328.433 164.823 327.722 165.407 327.722 152.639 328.433 152.09"/>
    <polygon fill="#3A9189" points="330.741 163.055 330.03 163.639 330.03 150.871 330.741 150.322"/>
    <polygon fill="#3A9189" points="333.048 161.287 332.337 161.871 332.337 149.103 333.048 148.554"/>
    <polygon fill="#3A9189" points="335.356 159.519 334.645 160.103 334.645 147.335 335.356 146.786"/>
    <polygon fill="#3A9189" points="337.663 157.751 336.952 158.335 336.952 145.567 337.663 145.018"/>
    <polygon fill="#C1EAE5" points="317.107 160.805 303.195 156.823 325.547 139.868 339.042 143.956"/>
    <path fill="#000047" d="M114.5711,267.3752 C114.5711,267.3752 120.9461,267.1042 123.1961,268.3962 C125.4461,269.6882 129.9881,271.1042 132.3631,270.1252 C134.7381,269.1462 139.0081,262.2712 139.9461,260.4582 C140.8831,258.6462 141.9461,257.1872 141.9461,257.1872 L148.6961,271.2712 L142.6331,276.2712 L137.2581,276.8962 L130.4461,278.6462 L125.4461,275.3962 L119.6961,275.2712 L114.5711,267.3752 Z"/>
    <path fill="#6635ED" d="M119.7794,270.3127 C119.7794,270.3127 131.5714,274.1047 134.6124,272.6047 C137.3214,269.9797 142.8624,260.0207 142.8624,260.0207 L144.0714,261.4797 C144.0714,261.4797 138.3624,272.5207 136.2374,273.8547 C134.1124,275.1877 131.3834,274.6667 129.8834,274.2087 C128.3834,273.7507 120.6964,270.6457 119.7794,270.3127"/>
    <polygon fill="#F3EAE9" points="423.446 124.604 383.696 112.708 383.717 103.021 385.258 101.937 426.821 114.271"/>
    <path fill="#A0E7E4" d="M445.5103,300.925 C441.8163,306.427 434.3613,307.893 428.8583,304.199 C423.3563,300.505 424.5693,293.844 428.2633,288.342 C431.9573,282.839 436.7343,280.579 442.2363,284.273 C447.7383,287.967 449.2043,295.423 445.5103,300.925"/>
    <path fill="#48B5AA" d="M75.2443,170.4139 C72.3293,177.7869 67.8363,182.7819 60.4633,179.8669 C53.0903,176.9519 49.4763,168.6119 52.3913,161.2389 C55.3063,153.8659 63.6463,150.2529 71.0193,153.1679 C78.3923,156.0829 78.1593,163.0409 75.2443,170.4139"/>
    <polygon fill="#FFF" points="426.852 114.24 386.633 102.334 394.446 93.271 436.487 106.563"/>
    <polygon fill="#F3EAE9" points="409.3 96.708 386.546 96.407 386.546 91.207 409.3 93.206"/>
    <polygon fill="#F7DAD5" points="409.3 96.708 414.867 92.86 414.867 89.216 409.3 93.206"/>
    <polygon fill="#FFF" points="409.3 93.205 386.546 91.206 398.619 82.651 414.867 89.215"/>
    <path fill="#A0E7E4" d="M62.9877,168.1877 C62.9877,170.6037 61.2527,172.5627 59.1127,172.5627 C56.9727,172.5627 55.2377,170.6037 55.2377,168.1877 C55.2377,165.7717 56.9727,163.8127 59.1127,163.8127 C61.2527,163.8127 62.9877,165.7717 62.9877,168.1877"/>
    <path fill="#DDC8C7" d="M407.1772,182.5434 L417.0082,175.0214 L402.0082,170.6464 L396.2582,174.8644 C396.2582,174.8644 403.0022,181.2224 407.1772,182.5434"/>
    <path fill="#A0E7E4" d="M425.3627,281.6252 C425.3627,283.1782 424.1217,284.4382 422.5917,284.4382 C421.0617,284.4382 419.8207,283.1782 419.8207,281.6252 C419.8207,280.0722 421.0617,278.8122 422.5917,278.8122 C424.1217,278.8122 425.3627,280.0722 425.3627,281.6252"/>
    <path fill="#F0FBFA" d="M440.0371,301.6407 C438.4981,303.5027 435.9131,303.9077 434.2631,302.5447 C432.6131,301.1807 432.5241,298.5657 434.0631,296.7037 C435.6031,294.8407 438.1881,294.4367 439.8371,295.7997 C441.4871,297.1627 441.5761,299.7787 440.0371,301.6407"/>
    <path fill="#A0E7E4" d="M65.9877,174.3127 C65.9877,175.2787 65.2317,176.0627 64.3007,176.0627 C63.3687,176.0627 62.6127,175.2787 62.6127,174.3127 C62.6127,173.3467 63.3687,172.5627 64.3007,172.5627 C65.2317,172.5627 65.9877,173.3467 65.9877,174.3127"/>
    <path fill="#48B5AA" d="M87.8523,177.521 C87.8523,179.005 85.2153,179.521 83.6963,179.521 C82.1773,179.521 80.9463,178.318 80.9463,176.834 C80.9463,175.349 82.8023,173.833 84.3213,173.833 C85.8403,173.833 87.8523,176.037 87.8523,177.521"/>
    <polygon fill="#FFF" points="366.275 258.254 353.285 259.899 348.656 248.418 361.616 246.7"/>
    <polygon fill="#D9F9F7" points="366.275 258.254 353.285 259.899 348.656 248.418 361.616 246.7"/>
    <polygon fill="#48B5AA" points="366.275 258.254 370.996 248.5 366.253 236.738 361.616 246.7"/>
    <polygon fill="#F0FBFA" points="361.616 246.7 348.655 248.418 353.485 238.285 366.253 236.737"/>
    <polygon fill="#FFF" points="199.774 319.083 191.341 329.1 180.154 323.799 188.516 313.749"/>
    <polygon fill="#D9F9F7" points="199.774 319.083 191.341 329.1 180.154 323.799 188.516 313.749"/>
    <polygon fill="#48B5AA" points="199.774 319.083 196.63 308.712 185.17 303.282 188.516 313.749"/>
    <polygon fill="#F0FBFA" points="188.516 313.749 180.154 323.799 176.834 313.076 185.17 303.282"/>
    <polygon fill="#FFF" points="142.543 185.436 151.991 194.501 145.976 205.321 136.489 196.324"/>
    <polygon fill="#48B5AA" points="142.543 185.436 151.991 194.501 145.976 205.321 136.489 196.324"/>
    <polygon fill="#F0FBFA" points="142.543 185.436 131.99 187.9 125.827 198.984 136.489 196.324"/>
    <polygon fill="#F0FBFA" points="136.49 196.324 145.976 205.321 135.06 207.938 125.828 198.984"/>
    <polygon fill="#DDC8C7" points="85.534 322.105 73.364 318.608 73.364 315.11 85.534 318.607"/>
    <polygon fill="#DDC8C7" points="135.802 336.939 127.751 334.549 127.751 331.051 135.802 333.441"/>
    <polygon fill="#DDC8C7" points="185.589 351.606 179.99 349.955 179.99 346.457 185.589 348.108"/>
    <polygon fill="#DDC8C7" points="263.49 348.767 276.13 339.172 276.13 335.674 263.49 345.269"/>
    <polygon fill="#DDC8C7" points="390.057 253.146 397.116 247.792 397.116 244.294 390.057 249.648"/>
    <polygon fill="#DDC8C7" points="216.738 360.807 210.064 358.837 209.977 355.312 216.758 357.317"/>
    <polygon fill="#CE867F" points="368.112 109.149 319.424 93.919 320.09 90.462 368.778 105.692"/>
    <polygon fill="#F3EAE9" points="324.68 88.442 326.881 88.442 326.881 80.773 324.68 80.773"/>
    <polygon fill="#F3EAE9" points="350.285 97.704 352.486 97.704 352.486 90.832 350.285 90.832"/>
    <path fill="#F0FBFA" d="M431.8159,297.1408 C431.8159,298.1068 431.0609,298.8908 430.1289,298.8908 C429.1959,298.8908 428.4409,298.1068 428.4409,297.1408 C428.4409,296.1748 429.1959,295.3908 430.1289,295.3908 C431.0609,295.3908 431.8159,296.1748 431.8159,297.1408"/>
  </g>
</svg>
