<svg height="512pt" viewBox="0 0 512.0005 512" width="512pt" xmlns="http://www.w3.org/2000/svg"><path d="m416.664062 80.335938h-401.664062c-8.285156 0-15 6.714843-15 15v80.332031c0 8.285156 6.714844 15 15 15h306.332031v306.332031c0 8.285156 6.71875 15 15 15h80.332031c8.285157 0 15-6.714844 15-15v-401.664062c0-8.285157-6.714843-15-15-15zm0 0" fill="#008adf"/><path d="m427.273438 84.726562-105.941407 105.941407v306.332031c0 8.285156 6.71875 15 15 15h80.332031c8.285157 0 15-6.714844 15-15v-401.664062c0-4.144532-1.675781-7.894532-4.390624-10.609376zm0 0" fill="#0065a3"/><path d="m497 321.335938h-306.332031v-306.335938c0-8.285156-6.71875-15-15-15h-80.335938c-8.28125 0-15 6.714844-15 15v401.667969c0 8.285156 6.71875 15 15 15h401.667969c8.285156 0 15-6.714844 15-15v-80.332031c0-8.285157-6.714844-15-15-15zm0 0" fill="#a8ebfa"/><path d="m497 321.335938h-306.332031v-.003907l-105.941407 105.941407c2.714844 2.714843 6.464844 4.394531 10.605469 4.394531h401.667969c8.285156 0 15-6.714844 15-15v-80.332031c0-8.285157-6.714844-15-15-15zm0 0" fill="#76e2f8"/><path d="m15 512c-3.839844 0-7.679688-1.464844-10.605469-4.394531-5.859375-5.855469-5.859375-15.355469 0-21.210938l482-482c5.855469-5.859375 15.355469-5.859375 21.210938 0 5.859375 5.855469 5.859375 15.355469 0 21.210938l-482 482c-2.925781 2.929687-6.765625 4.394531-10.605469 4.394531zm0 0" fill="#005183"/></svg>