<?xml version="1.0" encoding="UTF-8"?>
<svg width="116px" height="96px" viewBox="0 0 116 96" version="1.1" xmlns="http://www.w3.org/2000/svg" xmlns:xlink="http://www.w3.org/1999/xlink">
    <!-- Generator: Sketch 47.1 (45422) - http://www.bohemiancoding.com/sketch -->
    <title>award-sliced</title>
    <desc>Created with Sketch.</desc>
    <defs></defs>
    <g id="Page-1" stroke="none" stroke-width="1" fill="none" fill-rule="evenodd">
        <g id="эбаут-бол" transform="translate(-815.000000, -4723.000000)" fill-rule="nonzero" fill="#FFFFFF">
            <g id="Group-29" transform="translate(5.000000, 4609.000000)">
                <g id="Group-22" transform="translate(151.000000, 114.000000)">
                    <g id="Group-8" transform="translate(78.000000, 0.000000)">
                        <g id="Group-10" transform="translate(581.000000, 0.000000)">
                            <g id="Group-6">
                                <path d="M111.614321,62 C111.095831,62.3140678 110.556259,62.5154291 109.987507,62.6088705 C109.714452,62.6534006 109.382507,62.6586054 108.818619,62.6221717 L108.656674,62.6120512 C108.631952,62.6106054 108.610285,62.6091597 108.514452,62.6525332 C108.514452,62.6525332 107.733063,63.8007741 107.71223,63.8750874 C106.928896,66.6391356 105.956952,69.3019789 104.810841,71.8286295 C105.326674,71.0878103 105.891674,70.4111838 106.521952,69.7744609 C109.419174,66.8481958 114.372507,66.7634729 114.927785,66.7634729 L115.040563,66.7724368 C115.176674,66.8224609 115.250007,66.9742681 115.208063,67.1176898 C115.16973,67.2512801 115.133619,67.3871838 115.098341,67.5230874 C115.012785,67.8469428 114.930563,68.1566295 114.815285,68.4561958 C114.266396,69.8834729 113.376674,71.257256 112.015007,72.7799548 C111.078896,73.8238103 110.023896,74.8824127 108.651674,75.5520994 C107.149452,76.2862681 105.791396,76.465256 104.444174,76.1061235 C104.213896,76.0433765 103.94973,75.9635693 103.722507,75.8100271 C103.561952,75.7024609 103.51723,75.7056416 103.358341,75.8291115 C103.170007,75.9748464 102.969452,76.0971597 102.775841,76.2154247 C102.667785,76.2810633 102.559452,76.3475693 102.395007,76.5089187 C101.184452,78.564244 99.8511186,80.4744127 98.4111186,82.2168705 C99.1897297,81.626991 99.9894519,81.2001958 100.839174,80.9159548 C103.43473,80.0453042 106.155563,80.1563404 108.850563,81.2403886 C109.253063,81.4026054 109.693896,81.6486777 109.71223,81.6590874 C109.78473,81.708244 109.82723,81.7761958 109.78723,82.0714247 C109.703619,82.184485 109.62223,82.298991 109.523896,82.4377862 C109.341952,82.6954247 109.135841,82.9874729 108.905007,83.2456898 C107.863896,84.4069428 106.580007,85.1856416 105.348341,85.8544609 C103.653619,86.7696416 101.920841,87.2626536 100.19723,87.320485 C100.116396,87.3233765 100.035285,87.3251115 99.9544519,87.3251115 C98.3691742,87.3251115 97.1316742,86.7812078 96.0919519,85.6439548 C95.7375075,85.6705572 95.3911186,85.7260753 95.1302853,85.7711838 C95.0911186,85.7784127 95.0408408,85.8038585 95.0102853,85.8327741 C93.4161186,87.3016898 91.7280631,88.5910392 89.9650075,89.6880994 C90.2322297,89.6056898 90.5072297,89.5339789 90.7888964,89.4770151 C92.6736186,89.0996657 94.5963964,89.3361958 96.7072297,90.2094488 C98.1319519,90.800485 99.4566742,91.6688223 100.757785,92.8639066 C100.86473,92.9619307 100.879452,93.1305091 100.791396,93.2473283 C100.331119,93.8571597 99.7322297,94.1986536 99.2066742,94.452244 C97.9258408,95.0713283 96.4797297,95.4680512 94.7863964,95.665256 C94.7797297,95.6658344 94.2350075,95.714991 93.4711186,95.714991 C92.9197297,95.714991 92.4066742,95.689256 91.9466742,95.6386536 C91.5072297,95.5906536 91.0688964,95.5122922 90.6438964,95.4061717 C88.6902853,94.9108464 87.3669519,93.8930151 86.5969519,92.2951356 C86.5958408,92.2983163 86.5355631,92.2633283 86.4627853,92.2448223 C86.1102853,92.153738 85.7927853,92.0895452 85.4922297,92.0479066 C85.4141742,92.0346054 85.3308408,92.0562922 85.2216742,92.1019789 C83.8708408,92.6438585 82.4433408,93.0946536 80.9775075,93.4427982 C80.8750075,93.4705572 80.7380631,93.4135934 80.6805631,93.3025572 C80.5405631,93.0310392 80.3702853,92.7716657 80.1747297,92.5305091 C80.1130631,92.4541717 80.0947297,92.3526777 80.1250075,92.2592801 C80.1550075,92.1664609 80.2283408,92.0976416 80.3208408,92.0753765 C82.1200075,91.6618825 83.9080631,91.0595693 85.8850075,90.0969669 C86.0722297,89.4330633 86.1350075,88.7627982 86.0772297,88.0491597 C85.7088964,83.4932078 88.3152853,78.6920512 92.2747297,76.6335452 C92.3577853,76.5893042 92.4458408,76.5508464 92.6416742,76.466991 C92.7283408,76.428244 92.8372297,76.4432801 92.9125075,76.505738 C92.9883408,76.56675 93.0269519,76.6685332 93.0113964,76.7703163 L92.9027853,77.4692078 C92.8066742,78.0874247 92.7125075,78.6923404 92.6000075,79.4519548 C92.3452853,81.1770633 92.0825075,82.956244 91.5705631,84.665738 C91.1086186,86.2080994 90.3958408,87.4251597 89.4044519,88.3579789 C91.4988964,87.0720994 93.4505631,85.5271356 95.2233408,83.7499789 C95.2600075,83.713256 95.3044519,83.6143645 95.3113964,83.52675 C95.3113964,83.52675 95.3591742,82.1547018 95.3358408,82.0983163 C94.4625075,79.9805332 94.2388964,77.5973042 94.6513964,74.8124368 C95.0491742,72.1264609 96.1508408,69.656485 97.9261186,67.47075 C98.1844519,67.1526777 98.4236186,67.0286295 98.5713964,67.1090151 C98.6508408,67.1500753 98.7061186,67.2316175 98.7166742,67.3258825 L98.7647297,67.7520994 C98.8011186,68.066991 98.8363964,68.377256 98.8680631,68.6875211 C98.9227853,69.2348946 98.9827853,69.7811115 99.0516742,70.4065572 C99.2013964,71.7707982 99.3569519,73.1818825 99.4394519,74.594991 C99.5350075,76.2434729 99.5066742,78.1683886 98.5561186,79.976485 C99.8569519,78.2831838 101.04473,76.4606295 102.104174,74.5293524 C102.197785,74.3578825 102.206119,74.2072319 102.188341,73.9886295 C102.113341,73.0647741 101.700285,72.3135452 101.265563,71.6392319 C100.425563,70.3345572 99.9172297,68.792485 99.6172297,66.6388464 C99.4015783,65.0913683 99.4086283,63.5412949 99.6366844,61.9999999 L103.372088,62 C103.766142,63.1311278 104.135893,64.3384199 104.390841,65.5695452 C104.677507,66.9560512 104.69473,68.2942681 104.443619,69.5682922 C105.4126,67.1665484 106.210754,64.6297938 106.823367,62 L111.614321,62 Z M100.632724,33 C98.03368,30.8317362 96.2558408,25.6922705 96.2558408,25.514991 C96.2558408,25.4210151 96.3008408,25.3336898 96.3763964,25.2813524 C96.4533408,25.2284368 96.5508408,25.2206295 96.6333408,25.2582199 C97.1880631,25.5034247 97.7452853,25.7431356 98.3002853,25.9819789 C99.5916742,26.5391838 100.904174,27.1053524 102.16473,27.7247259 C103.433619,28.3495934 104.435841,29.1849669 105.152507,30.213497 C104.469174,28.1928705 103.676952,26.2118585 102.789174,24.3054488 C102.688619,24.1036175 102.210007,23.8855934 101.523619,23.8855934 C101.300007,23.8855934 101.083619,23.9104609 100.896952,23.9573042 C99.2833408,24.3589428 97.6836186,24.1154729 95.9130631,23.1947982 C94.1019519,22.2521476 92.5991742,20.7109428 91.3194519,18.4827018 C91.2947297,18.43875 91.2466742,18.3071838 91.2558408,17.9671356 C91.3052853,17.896003 91.3861186,17.8532078 91.4711186,17.8532078 L92.1283408,17.8954247 C92.5202853,17.9211597 92.9008408,17.9463163 93.2813964,17.9665572 L93.6877853,17.9879548 C94.9011186,18.0515693 96.1561186,18.1169187 97.3836186,18.4214006 C98.7841742,18.7718585 99.8122297,19.3099789 100.600563,20.1080512 C99.6675075,18.4913765 98.6683408,16.952485 97.6155631,15.5116175 C97.5877853,15.4740271 97.4516742,15.4156175 97.3513964,15.3982681 C97.2844519,15.3823645 97.0825075,15.3381235 96.8133408,15.3381235 C96.4566742,15.3381235 96.1444519,15.4133042 95.8855631,15.5616416 C94.1927853,16.4241958 92.3088964,16.4846295 90.2577853,15.7513283 C88.5755631,15.1530633 87.1505631,14.0418344 85.9013964,12.3546054 C85.8613964,12.3008223 85.8247297,12.2418344 85.7841742,11.9555693 C85.8805631,11.7441958 86.2991742,11.6450151 86.4744519,11.6123404 C86.9072297,11.5336898 87.3972297,11.4440512 87.8833408,11.3755211 C88.1052853,11.3428464 88.3277853,11.3090151 88.5802853,11.2702681 C89.3366742,11.1540271 90.1188964,11.033738 90.9069519,10.9923886 C92.3469519,10.9166295 93.6255631,11.2219789 94.6716742,11.8986054 C93.9683408,11.1193283 93.2494519,10.3793765 92.5194519,9.68482231 C92.2886186,9.46564158 92.0275075,9.24443676 91.6727853,8.96800303 C91.6441742,8.9448705 91.5741742,8.91942472 91.4858408,8.91393074 C88.9663964,8.81156929 86.8677853,7.65262954 85.0733408,5.37147291 C84.0958408,4.13012351 83.3463964,2.56405122 82.7622297,0.515954837 C82.7019519,0.307762066 82.6686186,0.193256042 82.8069519,0.0590873671 C82.9144519,-0.0444307052 83.1125075,-0.0103102233 83.5755631,0.18140062 C84.0363964,0.366171704 84.4838964,0.538509054 84.9313964,0.711424716 C85.8655631,1.07200303 86.8197297,1.44009942 87.7405631,1.85590664 C89.2794519,2.5521958 90.5080631,3.60761749 91.3922297,4.99238857 C92.0655631,6.04607532 92.3316742,7.10438857 92.2250075,8.2748946 C93.8277853,9.71402713 95.3613964,11.3379307 96.9380631,13.2718103 C95.8866742,11.5984609 95.2013964,9.67209942 94.8575075,7.43865363 C94.5108408,5.18670182 94.4888964,3.1828464 94.7900075,1.31200303 C94.8091742,1.19460544 94.8350075,1.07778616 94.9172297,0.706509054 C94.9388964,0.608774114 95.0091742,0.530123512 95.1002853,0.500051222 C95.1966742,0.470557247 95.2961186,0.496292186 95.3655631,0.565111463 C95.4747297,0.672388572 95.5827853,0.773882548 95.7625075,0.943328331 C96.0316742,1.19547291 96.2861186,1.43402713 96.5163964,1.70381026 C98.7536186,4.33137652 100.058896,7.10670182 100.505841,10.1888223 C100.709452,11.5814006 100.62473,12.7672319 100.247507,13.8128223 C100.122507,14.1592319 99.9275075,14.4686295 99.7386186,14.7676175 C99.6444519,14.916244 99.5558408,15.0567741 99.4097297,15.3392801 C99.4466742,15.7383163 99.5000075,16.1966295 99.6425075,16.8535934 C100.866119,18.6240994 101.995007,20.4906054 103.010841,22.4224609 C102.611674,20.9792801 102.293341,19.153256 102.316119,17.0311356 C102.342785,14.4859789 102.906119,12.2158103 104.03723,10.0907982 C104.082507,10.0072319 104.163619,9.95344881 104.254452,9.94650905 C104.368341,9.94650905 104.438896,9.98814761 104.490007,10.0595693 C104.525007,10.1095934 104.559452,10.1561476 104.59223,10.1998103 C104.665007,10.2984127 104.733341,10.3915211 104.794452,10.4904127 C105.695563,11.9613524 106.179452,13.5838103 106.500007,14.8326777 C107.086674,17.1219307 107.355841,19.0344127 107.348063,20.8517621 C107.343619,22.3955693 107.073063,23.5822681 106.496952,24.5867982 C106.318063,24.8990874 106.09223,25.1726295 105.873619,25.437497 C105.745285,25.5936416 105.621396,25.7437139 105.50973,25.897256 C105.431119,26.0045332 105.393341,26.1135452 105.391119,26.1742681 C105.376396,26.5403404 105.384174,26.912485 105.391674,27.2721958 C105.391674,27.2721958 105.407507,27.6128223 105.422507,27.6527259 C106.10589,29.3764883 106.7113,31.1646157 107.233336,33 L100.632724,33 Z M107.287055,33 C107.229475,32.4489687 107.196234,31.9120826 107.186674,31.3866054 C107.121119,27.8317139 108.168619,24.6567741 110.300841,21.9496898 L110.745563,21.3855452 C110.796952,21.3201958 110.872785,21.2823163 110.99973,21.2866536 C111.093341,21.3028464 111.173341,21.3713765 111.206674,21.4656416 C111.24723,21.5769669 111.286674,21.6833765 111.325285,21.7863163 C111.39973,21.9840994 111.470007,22.1723404 111.529174,22.3631838 C111.986952,23.8555211 112.211396,25.4849187 112.257785,27.6891597 C112.289318,29.1409265 112.331735,31.0877545 111.850468,33.0000003 L107.287055,33 Z M4.10363538,62 C4.6208414,62.312578 5.15907121,62.513085 5.72639639,62.6062681 C5.99861861,62.6505091 6.33139639,62.656003 6.89472972,62.6195693 L7.05695194,62.6094488 C7.1675075,62.6065572 7.17111861,62.6065572 7.20195194,62.6539789 L7.95667416,63.7328223 C8.78472972,66.6365332 9.75667416,69.2990874 10.9027853,71.8260271 C10.3869519,71.0849187 9.82167416,70.4082922 9.19167416,69.7718585 C6.29445194,66.8455934 1.34111861,66.7608705 0.78584083,66.7608705 L0.673063052,66.7698344 C0.536951941,66.8201476 0.46334083,66.9716657 0.505285274,67.1142199 C0.543896385,67.2486777 0.580007496,67.3845813 0.621396385,67.5441958 C0.700563052,67.8440512 0.782785274,68.153738 0.898063052,68.4533042 C1.44695194,69.8811597 2.33667416,71.2546536 3.69861861,72.7773524 C4.63445194,73.8212078 5.68945194,74.8798103 7.06139639,75.5492078 C8.56389639,76.2836657 9.92056305,76.4629428 11.2697297,76.1032319 C11.4991742,76.040485 11.7630631,75.9609669 11.9900075,75.8077139 C12.1516742,75.6998585 12.1958408,75.7033283 12.3547297,75.8265091 C12.5430631,75.972244 12.7433408,76.0945572 12.9377853,76.2131115 C13.0452853,76.27875 13.1536186,76.3449669 13.2547297,76.4114729 C14.5286186,78.5613524 15.8622297,80.4715211 17.3022297,82.2139789 C16.5233408,81.6240994 15.7236186,81.1973042 14.8741742,80.9130633 C12.2783408,80.0424127 9.5575075,80.1531597 6.86278527,81.2377862 C6.46056305,81.400003 6.01972972,81.6457862 5.99028527,81.6631356 C5.92861861,81.7053524 5.88611861,81.7735934 5.87278527,81.8519548 C6.00945194,82.1815934 6.09084083,82.2960994 6.17139639,82.409738 C6.37111861,82.6925332 6.57722972,82.9842922 6.80834083,83.2427982 C7.84917416,84.4043404 9.13278527,85.1830392 10.3650075,85.8515693 C12.0594519,86.76675 13.7922297,87.2597621 15.5155631,87.3175934 C15.5966742,87.320485 15.6777853,87.3222199 15.7586186,87.3222199 C17.3438964,87.3222199 18.5813964,86.7783163 19.5352853,85.6659307 C19.9755631,85.6676657 20.3219519,85.7228946 20.5808408,85.7677139 C20.6216742,85.7752319 20.6719519,85.8006777 20.7033408,85.8301717 C22.2969519,87.2987982 23.9847297,88.5878585 25.7477853,89.6849187 C25.4805631,89.6025091 25.2052853,89.5307982 24.9236186,89.473256 C23.0394519,89.0961958 21.1166742,89.3327259 19.0052853,90.2059789 C17.5808408,90.7970151 16.2561186,91.6653524 14.9552853,92.8604368 C14.8480631,92.9584609 14.8330631,93.1270392 14.9213964,93.2438585 C15.3816742,93.8536898 15.9805631,94.1951838 16.5058408,94.448485 C17.7869519,95.0681476 19.2330631,95.4648705 20.9283408,95.6620753 C20.9333408,95.6623645 21.4780631,95.7115211 22.2419519,95.7115211 C22.7933408,95.7115211 23.3063964,95.6857862 23.7661186,95.6351838 C24.2055631,95.5871838 24.6438964,95.5088223 25.0691742,95.4024127 C27.0225075,94.9073765 28.3461186,93.8895452 29.1044519,92.3093042 C29.1180631,92.2957139 29.1763964,92.2604368 29.2502853,92.2416416 C29.6027853,92.1505572 29.9200075,92.0863645 30.2216742,92.0444368 C30.2927853,92.0325813 30.3813964,92.0525332 30.4930631,92.0993765 C31.8419519,92.6403886 33.2694519,93.0911838 34.7330631,93.43875 C34.8947297,93.4465572 34.9852853,93.3901717 35.0330631,93.2982199 C35.1727853,93.0275693 35.3430631,92.7679066 35.5388964,92.5264609 C35.6002853,92.4504127 35.6186186,92.3492078 35.5883408,92.2555211 C35.5594519,92.1647259 35.4861186,92.0959066 35.3922297,92.0730633 C33.5947297,91.6598585 31.8069519,91.0575452 29.9258408,90.232003 C29.6425075,89.4310392 29.5797297,88.7607741 29.6375075,88.0471356 C30.0058408,83.4908946 27.3994519,78.6900271 23.4408408,76.6318103 C23.3566742,76.5872801 23.2688964,76.5488223 23.1677853,76.505738 C22.9847297,76.4256416 22.8761186,76.4421235 22.8041742,76.5022681 C22.7263964,76.5647259 22.6877853,76.6665091 22.7036186,76.7685813 L22.8119519,77.4671838 C22.9080631,78.0854006 23.0022297,78.6903163 23.0925075,79.2958103 C23.3694519,81.1750392 23.6322297,82.9545091 24.1441742,84.664003 C24.6061186,86.2063645 25.3188964,87.4234247 26.3102853,88.3559548 C24.2158408,87.0703645 22.2641742,85.5254006 20.4916742,83.7485332 C20.4544519,83.7112319 20.4102853,83.6123404 20.4038964,83.5307982 L20.3563964,82.3114247 C21.2522297,79.9787982 21.4758408,77.5955693 21.0633408,74.8107018 C20.6655631,72.1247259 19.5638964,69.65475 17.7886186,67.4690151 C17.5808408,67.2131115 17.3975075,67.0835693 17.2436186,67.0835693 C17.0638964,67.1480512 17.0086186,67.2298825 16.9977853,67.3244368 L16.9502853,67.7497862 C16.9136186,68.0655452 16.8783408,68.3755211 16.8466742,68.6860753 C16.7919519,69.2331597 16.7319519,69.7793765 16.6716742,70.3258825 C16.5130631,71.7693524 16.3575075,73.1804368 16.2752853,74.593256 C16.1797297,76.2414488 16.2080631,78.1663645 17.1438964,79.946991 C15.8575075,78.2811597 14.6700075,76.4588946 13.6105631,74.5279066 C13.5169519,74.3561476 13.5088964,74.205497 13.5263964,73.9868946 C13.6016742,73.0624609 14.0144519,72.3112319 14.4491742,71.637497 C15.2888964,70.3328223 15.7972297,68.79075 16.0975075,66.6371115 C16.313085,65.0901637 16.3061137,63.5406986 16.0782872,61.9999999 L12.3420423,62 C11.9481318,63.1307317 11.5785549,64.3374218 11.3238964,65.5678103 C11.0372297,66.9543163 11.0197297,68.2925332 11.2711186,69.5665572 C10.3020734,67.1656271 9.50432982,64.62946 8.89177286,62 L4.10363538,62 Z M3.86415688,33 C3.38243792,31.0872009 3.42492244,29.1367697 3.45722972,27.6460753 C3.50278527,25.4843404 3.72722972,23.8546536 4.18472972,22.3628946 C4.24417416,22.1717621 4.31445194,21.9838103 4.38889639,21.7854488 C4.4275075,21.6827982 4.46722972,21.5766777 4.50778527,21.4641958 C4.54084083,21.3707982 4.62084083,21.3022681 4.76028527,21.281738 C4.84139639,21.281738 4.9175075,21.3193283 4.96889639,21.3855452 L5.41334083,21.9491115 C7.54556305,24.656485 8.59306305,27.8311356 8.5275075,31.3860271 C8.51794456,31.9119249 8.48468414,32.4488317 8.42706843,32.9999999 L3.86415774,33 Z M8.48071205,33 C9.00305227,31.1640626 9.60879904,29.3748878 10.2927853,27.6498344 C10.3069519,27.612244 10.3163964,27.5630874 10.3225075,27.2716175 C10.3300075,26.9119066 10.3377853,26.5397621 10.3230631,26.1736898 C10.3208408,26.1129669 10.2830631,26.0039548 10.2047297,25.8969669 C10.0927853,25.7431356 9.96917416,25.5930633 9.84889639,25.4470392 C9.62222972,25.1717621 9.39667416,24.8982199 9.2175075,24.5856416 C8.64139639,23.5814006 8.37111861,22.3947018 8.36667416,20.8508946 C8.35889639,19.0347018 8.62834083,17.1222199 9.21472972,14.8318103 C9.53556305,13.5829428 10.0188964,11.9610633 10.9200075,10.4901235 C10.9811186,10.3906536 11.0494519,10.2975452 11.1225075,10.1992319 C11.1552853,10.1552801 11.1897297,10.1090151 11.2236186,10.0598585 C11.2755631,9.98728014 11.3550075,9.94477411 11.4375075,9.94477411 C11.5511186,9.9528705 11.6322297,10.0066536 11.6769519,10.0893524 C12.8086186,12.2149428 13.3716742,14.4851115 13.3988964,17.0305572 C13.4213964,19.1526777 13.1033408,20.978991 12.7038964,22.4218825 C13.7197297,20.4900271 14.8486186,18.6235211 16.1430631,16.7486295 C16.2147297,16.197497 16.2677853,15.7383163 16.2400075,15.200485 C16.1586186,15.0559066 16.0697297,14.9150874 15.9808408,14.7748464 C15.7866742,14.4677621 15.5916742,14.1583645 15.4666742,13.8119548 C15.0891742,12.7663645 15.0047297,11.5805332 15.2083408,10.1876657 C15.6552853,7.10583436 16.9602853,4.33050905 19.1977853,1.70294279 C19.4280631,1.43315966 19.6825075,1.19460544 20.0261186,0.872195801 C20.1313964,0.773304235 20.2391742,0.671521102 20.3491742,0.56366568 C20.4177853,0.495713873 20.5208408,0.470557247 20.6127853,0.498894596 C20.7047297,0.528966885 20.7747297,0.607328331 20.8461186,0.930027126 C20.8791742,1.07662954 20.9050075,1.19373797 20.9241742,1.3108464 C21.2252853,3.18168978 21.2033408,5.18583436 20.8566742,7.43749701 C20.5127853,9.67094279 19.8275075,11.5975934 18.7761186,13.2709428 C20.3527853,11.336485 21.8883408,9.71113556 23.5077853,8.22168978 C23.3825075,7.10323195 23.6486186,6.04462954 24.3219519,4.99094279 C25.2061186,3.6061717 26.4350075,2.55075002 27.9738964,1.85446086 C28.8947297,1.43865363 29.8488964,1.07055725 30.7713964,0.714605439 C31.2305631,0.537352427 31.6777853,0.364725921 32.1222297,0.186894596 C32.6116742,-0.0149367293 32.8000075,-0.0455873317 32.9069519,0.0579307406 C33.0455631,0.192099415 33.0122297,0.306605439 32.9325075,0.582750018 C32.3677853,2.5628946 31.6183408,4.12896689 30.6408408,5.37060544 C28.8463964,7.65147291 26.7477853,8.81041267 24.2258408,8.91306327 C24.1400075,8.91826809 24.0700075,8.94400303 24.0425075,8.96597893 C23.6866742,9.24328014 23.4255631,9.4641958 23.1947297,9.68337652 C22.4647297,10.3782199 21.7458408,11.1178825 21.0422297,11.8974488 C22.0886186,11.220244 23.3672297,10.9143163 24.8072297,10.9909428 C25.5952853,11.0322922 26.3775075,11.1525813 27.1627853,11.2734488 C27.3861186,11.3078585 27.6088964,11.3416898 27.8313964,11.3740753 C28.3169519,11.4426054 28.8066742,11.532244 29.2388964,11.6108946 C29.4150075,11.6438585 29.8333408,11.7430392 29.9227853,12.1776416 C29.8894519,12.2400994 29.8527853,12.2993765 29.8122297,12.353738 C28.5633408,14.0403886 27.1386186,15.1516175 25.4563964,15.7498825 C23.4055631,16.4831838 21.5166742,16.4195693 19.8347297,15.5633765 C19.5700075,15.4118585 19.2577853,15.3363886 18.9011186,15.3363886 C18.6322297,15.3363886 18.4300075,15.3806295 18.3744519,15.3942199 C18.2630631,15.4135934 18.1272297,15.472003 18.0988964,15.5101717 C17.0463964,16.9510392 16.0472297,18.4893524 15.1141742,20.1060271 C15.9025075,19.3079548 16.9305631,18.7698344 18.3308408,18.4193765 C19.5586186,18.1148946 20.8136186,18.0495452 22.0269519,17.9859307 L22.4333408,17.9645332 C22.8138964,17.9442922 23.1944519,17.9191356 23.5863964,17.8934006 C23.5863964,17.8934006 24.2272297,17.8514729 24.2280631,17.8514729 C24.3300075,17.8514729 24.4100075,17.8942681 24.4944519,18.2311356 C24.4686186,18.3048705 24.4205631,18.4364368 24.3961186,18.4795211 C23.1161186,20.7086295 21.6133408,22.2498344 19.8019519,23.192485 C18.0313964,24.1134488 16.4316742,24.357497 14.8183408,23.954991 C14.6313964,23.9081476 14.4150075,23.8832801 14.1916742,23.8832801 C13.5050075,23.8832801 13.0261186,24.1013042 12.9241742,24.3066054 C12.0375075,26.2101235 11.2455631,28.1908464 10.5625075,30.2111838 C11.2791742,29.1829428 12.2816742,28.3472801 13.5502853,27.7224127 C14.8108408,27.1033283 16.1233408,26.5371597 17.3927853,25.9892078 C17.9697297,25.7408223 18.5269519,25.5011115 19.0841742,25.2550392 C19.1608408,25.2194729 19.2625075,25.2267018 19.3377853,25.2784609 C19.4141742,25.3313765 19.4591742,25.418991 19.4591742,25.5129669 C19.4591742,25.6903019 17.6802201,30.8326559 15.0798461,33 L8.48071193,33 Z" id="award-sliced"></path>
                            </g>
                        </g>
                    </g>
                </g>
            </g>
        </g>
    </g>
</svg>