<svg height="44px" version="1.1" viewBox="0 0 85 44" width="85px" xmlns="http://www.w3.org/2000/svg" xmlns:svg="http://www.w3.org/2000/svg">
  <defs>
    <linearGradient id="linearGradient-1" x1="50%" x2="50%" y1="0%" y2="100%">
      <stop offset="0%" stop-color="#2C62DD"></stop>
      <stop offset="100%" stop-color="#2C62DD"></stop>
    </linearGradient>
  </defs>
  <g fill="none" fill-rule="evenodd" id="Page-1" stroke="none" stroke-width="1">
    <g id="logo">
      <g fill-rule="nonzero" id="GEE" fill="#fff">
        <polygon id="Shape" points="49.0851187 22.4403697 49.0851187 16.856992 56.8680035 16.856992 58.3941434 14.1053752 56.8680035 11.300329 49.0851187 11.300329 49.0851187 5.77038077 55.729829 5.77038077 52.7253482 0.206878836 43.5121359 0.213717806 43.5121359 27.9970326 52.7399238 27.9765156 55.729829 22.4403697"></polygon>
        <polygon id="Shape" points="24.0066956 27.9970326 40.0826078 27.9970326 40.0826078 22.4403697 29.5796784 22.4403697 29.5796784 16.856992 38.1534983 16.856992 38.1534983 11.300329 29.5796784 11.300329 29.5796784 5.77038077 40.0826078 5.77038077 40.0826078 0.213717806 24.0066956 0.213717806"></polygon>
        <path d="M20.5771676,4.48807393 C20.5771676,2.12734704 18.6579181,0.213717806 16.2902577,0.213717806 L4.28690993,0.213717806 C1.91924957,0.213717806 0,2.12734704 0,4.48807393 L0,23.7226765 C0,26.0834034 1.91924957,27.9970326 4.28690993,27.9970326 L16.2902577,27.9970326 C18.6579181,27.9970326 20.5771676,26.0834034 20.5771676,23.7226765 L20.5771676,13.0367862 L10.1811967,13.0367862 L10.1533318,18.1660136 L15.0039704,18.1371617 L15.0039704,22.4403697 L5.5729829,22.4403697 L5.5729829,5.77038077 L15.0041847,5.77038077 L15.0041847,8.54871226 L20.5771676,8.54871226 L20.5771676,4.48807393 L20.5771676,4.48807393 Z" id="Shape"></path>
      </g>
      <path d="M69.266056,17.189729 L68.2614963,18.6572712 L68.2587242,18.6531884 L61.7555044,28.2311206 L59.7545137,28.2311206 L67.2582289,17.1796604 L67.257125,17.1780345 L68.264675,15.7148966 L69.266056,17.189729 Z M70.2648683,18.6607783 L76.7629347,28.2311206 L74.761944,28.2311206 L70.2597149,21.6002445 L65.7574858,28.2311206 L63.7564951,28.2311206 L69.2592196,20.1267164 L69.2573183,20.1239162 L70.2648683,18.6607783 Z M67.2678476,14.2467707 L66.2613981,15.7115295 L66.2577335,15.7061323 L57.753523,28.2311206 L55.7525323,28.2311206 L65.2572382,14.2326043 L55.7525323,0.23408797 L57.753523,0.23408797 L67.2678476,14.2467707 Z M68.2885102,12.802945 L68.279826,12.7739652 L68.2742971,12.7820119 L59.7545137,0.23408797 L61.7555044,0.23408797 L80.7649161,28.2311206 L78.7639254,28.2311206 L68.2885102,12.802945 Z M72.251414,12.7453916 L71.2505033,11.2712519 L72.2580534,9.80811399 L72.2607056,9.81202019 L72.6368442,9.25804381 L73.0179058,8.70467619 L73.0162718,8.69922348 L78.7639254,0.23408797 L80.7649161,0.23408797 L73.8220036,10.4595989 L72.251414,12.7453916 Z M73.2469611,14.2116318 L74.2545111,12.7484939 L74.2616963,12.7590763 L82.7659068,0.23408797 L84.7668975,0.23408797 L75.2621917,14.2326043 L84.7668975,28.2311206 L82.7659068,28.2311206 L73.2469611,14.2116318 Z M70.2549242,9.80496439 L63.7564951,0.23408797 L65.7574858,0.23408797 L70.2597149,6.86496412 L74.761944,0.23408797 L76.7629347,0.23408797 L71.2602103,8.33849216 L71.2613737,8.34020561 L70.2549242,9.80496439 Z" id="X-fill" fill="#2C62DD"></path>
      <path d="M69.266056,17.189729 L68.2614963,18.6572712 L68.2587242,18.6531884 L61.7555044,28.2311206 L59.7545137,28.2311206 L67.2582289,17.1796604 L67.257125,17.1780345 L68.264675,15.7148966 L69.266056,17.189729 Z M70.2648683,18.6607783 L76.7629347,28.2311206 L74.761944,28.2311206 L70.2597149,21.6002445 L65.7574858,28.2311206 L63.7564951,28.2311206 L69.2592196,20.1267164 L69.2573183,20.1239162 L70.2648683,18.6607783 Z M67.2678476,14.2467707 L66.2613981,15.7115295 L66.2577335,15.7061323 L57.753523,28.2311206 L55.7525323,28.2311206 L65.2572382,14.2326043 L55.7525323,0.23408797 L57.753523,0.23408797 L67.2678476,14.2467707 Z M68.2885102,12.802945 L68.279826,12.7739652 L68.2742971,12.7820119 L59.7545137,0.23408797 L61.7555044,0.23408797 L80.7649161,28.2311206 L78.7639254,28.2311206 L68.2885102,12.802945 Z M72.251414,12.7453916 L71.2505033,11.2712519 L72.2580534,9.80811399 L72.2607056,9.81202019 L72.6368442,9.25804381 L73.0179058,8.70467619 L73.0162718,8.69922348 L78.7639254,0.23408797 L80.7649161,0.23408797 L73.8220036,10.4595989 L72.251414,12.7453916 Z M73.2469611,14.2116318 L74.2545111,12.7484939 L74.2616963,12.7590763 L82.7659068,0.23408797 L84.7668975,0.23408797 L75.2621917,14.2326043 L84.7668975,28.2311206 L82.7659068,28.2311206 L73.2469611,14.2116318 Z M70.2549242,9.80496439 L63.7564951,0.23408797 L65.7574858,0.23408797 L70.2597149,6.86496412 L74.761944,0.23408797 L76.7629347,0.23408797 L71.2602103,8.33849216 L71.2613737,8.34020561 L70.2549242,9.80496439 Z" fill="url(#linearGradient-1)" id="X-gradient"></path>
      <path d="M55.0791518,40.6676558 L50.5539292,40.6676558 L49.5376088,43.4866469 L48.068766,43.4866469 L52.1933951,32.6854599 L53.4396859,32.6854599 L57.5717334,43.4866469 L56.110309,43.4866469 L55.0791518,40.6676558 Z M50.9841963,39.495549 L54.6563031,39.495549 L52.8165405,34.4436202 L50.9841963,39.495549 Z M62.9871636,39.1172107 L60.4500717,39.1172107 L60.4500717,43.4866469 L59.0183209,43.4866469 L59.0183209,32.6854599 L62.5939886,32.6854599 C63.8106119,32.6854599 64.746557,32.9624107 65.4018521,33.5163205 C66.0571471,34.0702303 66.3847898,34.8763547 66.3847898,35.9347181 C66.3847898,36.6073228 66.2030408,37.1933704 65.8395375,37.6928783 C65.4760342,38.1923863 64.9703519,38.5657752 64.3224752,38.8130564 L66.8595672,43.3976261 L66.8595672,43.4866469 L65.3313773,43.4866469 L62.9871636,39.1172107 Z M60.4500717,37.9525223 L62.638499,37.9525223 C63.3457231,37.9525223 63.9082793,37.7695369 64.3261844,37.4035608 C64.7440896,37.0375847 64.953039,36.5479754 64.953039,35.9347181 C64.953039,35.267059 64.7539807,34.7551947 64.355858,34.3991098 C63.9577353,34.0430249 63.3828153,33.8625124 62.6310806,33.8575668 L60.4500717,33.8575668 L60.4500717,37.9525223 Z M75.2497749,33.8575668 L71.7779648,33.8575668 L71.7779648,43.4866469 L70.3610509,43.4866469 L70.3610509,33.8575668 L66.8966592,33.8575668 L66.8966592,32.6854599 L75.2497749,32.6854599 L75.2497749,33.8575668 Z M79.915947,38.6721068 C78.6943781,38.3209676 77.8054157,37.8894684 77.2490331,37.3775964 C76.6926505,36.8657244 76.4144633,36.2339306 76.4144633,35.4821958 C76.4144633,34.6315487 76.7544698,33.9280443 77.434493,33.3716617 C78.1145162,32.8152791 78.9985331,32.537092 80.0865702,32.537092 C80.8284136,32.537092 81.4898808,32.6805129 82.0709915,32.9673591 C82.6521023,33.2542052 83.1021472,33.6498491 83.4211399,34.1543027 C83.7401326,34.6587562 83.8996266,35.2101849 83.8996266,35.8086053 L82.4678758,35.8086053 C82.4678758,35.1557831 82.2601628,34.6426824 81.8447304,34.2692878 C81.4292981,33.8958933 80.8432505,33.7091988 80.0865702,33.7091988 C79.3842917,33.7091988 78.8365721,33.8637472 78.4433951,34.1728487 C78.0502181,34.4819501 77.8536325,34.9109765 77.8536325,35.4599407 C77.8536325,35.9001011 78.040327,36.2722537 78.4137215,36.5764095 C78.7871161,36.8805653 79.4226191,37.1587524 80.3202497,37.4109792 C81.2178803,37.663206 81.9201483,37.9413931 82.4270746,38.245549 C82.934001,38.5497048 83.3098627,38.9045479 83.5546711,39.310089 C83.7994794,39.7156301 83.9218817,40.1928756 83.9218817,40.7418398 C83.9218817,41.6172151 83.5806389,42.3182466 82.8981429,42.8449555 C82.2156469,43.3716644 81.3031931,43.6350148 80.1607542,43.6350148 C79.4189107,43.6350148 78.7265338,43.4928303 78.0836028,43.208457 C77.4406718,42.9240836 76.9448805,42.5346217 76.5962141,42.0400593 C76.2475477,41.545497 76.0732171,40.9841772 76.0732171,40.3560831 L77.5049678,40.3560831 C77.5049678,41.0089053 77.7460633,41.5244788 78.2282616,41.902819 C78.7104598,42.2811592 79.3546176,42.4703264 80.1607542,42.4703264 C80.9124889,42.4703264 81.4886453,42.3170144 81.8892408,42.0103858 C82.2898363,41.7037571 82.490131,41.2858582 82.490131,40.7566766 C82.490131,40.2274949 82.3046729,39.8182507 81.9337512,39.5289318 C81.5628294,39.2396128 80.8902348,38.9540073 79.915947,38.6721068 L79.915947,38.6721068 Z" id="ARTS" fill="#FFFFFF40"></path>
    </g>
  </g>
  </svg>