<?xml version="1.0" encoding="utf-8"?>
<!-- Generator: Adobe Illustrator 22.1.0, SVG Export Plug-In . SVG Version: 6.00 Build 0)  -->
<svg version="1.1" id="Layer_1" xmlns:svg="http://www.w3.org/2000/svg"
	 xmlns="http://www.w3.org/2000/svg" xmlns:xlink="http://www.w3.org/1999/xlink" x="0px" y="0px" viewBox="0 0 168.7 28.7"
	 style="enable-background:new 0 0 168.7 28.7;" xml:space="preserve">
<style type="text/css">
	.st0{fill:#264346;}
	.st1{fill:#FFFFFF;}
	.st2{fill:#D8D8D8;}
	.st3{clip-path:url(#SVGID_2_);}
	.st4{fill:#5C62F3;}
	.st5{fill:#B63BF2;}
	.st6{fill:#EC4294;}
	.st7{fill:#F2A851;}
	.st8{fill:#99F472;}
	.st9{fill:#47F4D7;}
	.st10{fill:#5D50F4;}
	.st11{fill:#D236D5;}
</style>
<path class="st0" d="M310-48.5L310-48.5L310-48.5L310-48.5L310-48.5z"/>
<g>
	<g>
		<path class="st1" d="M19.3,10.6c0,2-0.7,3.9-2.2,5.4c-1.4,1.4-3.2,2.2-5.3,2.2H4.5c-0.1,0-0.2,0.1-0.2,0.2v7
			c0,0.1-0.1,0.2-0.2,0.2H0.8c-0.1,0-0.2-0.1-0.2-0.2V14.6c0-0.1,0.1-0.2,0.2-0.2h3.6h7.5c1,0,1.9-0.4,2.6-1.1
			c0.7-0.7,1.1-1.6,1.1-2.6S15.2,8.7,14.5,8c-0.7-0.7-1.6-1.1-2.6-1.1H4.4c-0.1,0-0.1,0-0.2-0.1L1,3.5C0.9,3.4,1,3.1,1.2,3.1h10.8
			c2,0,3.9,0.7,5.3,2.2C18.6,6.7,19.3,8.6,19.3,10.6z"/>
	</g>
	<g>
		<path class="st1" d="M27.5,23l-3.9,3.9c-0.1,0.1-0.4,0-0.4-0.2V2.1c0-0.2,0.2-0.3,0.4-0.2l3.9,3.8c0,0,0.1,0.1,0.1,0.2v16.9
			C27.6,22.9,27.5,23,27.5,23z"/>
	</g>
	<g>
		<path class="st1" d="M49.1,25.6h-4.6c-0.1,0-0.2,0-0.2-0.1l-4.2-6.9c-0.1-0.1-0.3-0.1-0.4,0l-4.1,6.9c0,0.1-0.1,0.1-0.2,0.1h-4.6
			c-0.2,0-0.3-0.2-0.2-0.3l6.7-11.2c0-0.1,0-0.2,0-0.2L31.1,3.3C31,3.1,31.1,3,31.3,3h4.6c0.1,0,0.2,0,0.2,0.1l3.8,6.4
			c0.1,0.1,0.3,0.1,0.4,0L44,3.1C44,3,44.1,3,44.2,3h4.5c0.2,0,0.3,0.2,0.2,0.3l-6.3,10.6c0,0.1,0,0.2,0,0.2l6.7,11.2
			C49.4,25.4,49.3,25.6,49.1,25.6z"/>
	</g>
	<g>
		<path class="st1" d="M68.4,3.2v3.3c0,0.1-0.1,0.2-0.2,0.2H54.1c-0.1,0-0.1,0-0.2-0.1l-2.5-3.3c-0.1-0.1,0-0.4,0.2-0.4h16.7
			C68.3,2.9,68.4,3,68.4,3.2z M56.9,12.4h11.2c0.1,0,0.2,0.1,0.2,0.2V16c0,0.1-0.1,0.2-0.2,0.2H56.9h-2.8c-0.1,0-0.2-0.1-0.2-0.2
			v-3.3c0-0.1,0.1-0.2,0.2-0.2H56.9z M54,22h14.1c0.1,0,0.2,0.1,0.2,0.2v3.3c0,0.1-0.1,0.2-0.2,0.2H51.2c-0.1,0-0.2-0.1-0.2-0.2l0,0
			c0-0.1,0-0.1,0.1-0.1l2.8-3.3C53.9,22,54,22,54,22z"/>
	</g>
	<g>
		<path class="st1" d="M77.5,3C77.5,3,77.5,3,77.5,3C77.5,3,77.5,3,77.5,3c-0.1,0-0.1,0-0.1,0c0,0,0,0-0.1,0c0,0,0,0,0,0
			c0,0,0,0,0,0c0,0,0,0,0,0c0,0,0,0,0,0c0,0,0,0,0,0c0,0,0,0,0,0c0,0,0,0,0,0c0,0,0,0,0,0c0,0,0,0,0,0c0,0,0,0,0,0c0,0,0,0,0,0
			c0,0,0,0-0.1,0c0,0,0,0-0.1,0c0,0,0,0-0.1,0c0,0,0,0-0.1,0c0,0,0,0-0.1,0c0,0,0,0-0.1,0c0,0,0,0-0.1,0c0,0,0,0-0.1,0
			c0,0,0,0-0.1,0c0,0,0,0-0.1,0c0,0,0,0-0.1,0c0,0,0,0-0.1,0c0,0,0,0-0.1,0c0,0,0,0-0.1,0c0,0,0,0-0.1,0c0,0,0,0-0.1,0
			c0,0,0,0-0.1,0c0,0,0,0-0.1,0c0,0,0,0-0.1,0c0,0,0,0-0.1,0c0,0,0,0-0.1,0c0,0,0,0-0.1,0c0,0,0,0-0.1,0c0,0,0,0-0.1,0
			c0,0,0,0-0.1,0c0,0,0,0-0.1,0c0,0,0,0-0.1,0c0,0,0,0-0.1,0c0,0,0,0-0.1,0c0,0,0,0-0.1,0c0,0,0,0-0.1,0c0,0,0,0-0.1,0
			c0,0,0,0-0.1,0c0,0,0,0-0.1,0c0,0,0,0-0.1,0c0,0,0,0-0.1,0c0,0,0,0-0.1,0c0,0,0,0-0.1,0c0,0,0,0-0.1,0c0,0,0,0-0.1,0
			c0,0,0,0-0.1,0c0,0,0,0-0.1,0c0,0,0,0-0.1,0c0,0,0,0-0.1,0c0,0,0,0-0.1,0c0,0,0,0-0.1,0c0,0,0,0-0.1,0c0,0,0,0,0,0c0,0,0,0,0,0
			c0,0,0,0,0,0c0,0,0,0,0,0c0,0,0,0,0,0c0,0,0,0,0,0c0,0,0,0,0,0c0,0,0,0,0,0c0,0,0,0,0,0c0,0,0,0,0,0c0,0,0,0,0,0c0,0,0,0,0,0
			c0,0,0,0,0,0c0,0,0,0,0,0c0,0,0,0,0,0c0,0,0,0,0,0c0,0,0,0,0,0c-0.1,0-0.2,0.1-0.2,0.2V25c0,0.2,0.3,0.3,0.4,0.2l4-3.3
			c0.1-0.1,0.1-0.1,0.1-0.2c0,0,0-18.6,0-18.6C77.6,3.1,77.6,3,77.5,3C77.6,3,77.5,3,77.5,3z"/>
		<path class="st1" d="M87.9,21.8H77.7l-0.1,0.1l-3.9,3.2c-0.2,0.1-0.1,0.4,0.1,0.4H88c0.1,0,0.2-0.1,0.2-0.2v-3.2
			C88.2,22,88,21.9,87.9,21.8z"/>
	</g>
	<g>
		<path class="st1" d="M124.3,17.8l4.4,7.7c0.1,0.2,0,0.3-0.2,0.3h-3.9c-0.1,0-0.2,0-0.2-0.1L118,14.6c-0.1-0.2,0-0.3,0.2-0.3h3
			c1,0,1.9-0.4,2.6-1.1c0.8-0.7,1.1-1.7,1.1-2.7s-0.4-1.9-1.1-2.6c-0.7-0.7-1.6-1.1-2.6-1.1h-7.6c-0.1,0-0.1,0-0.2-0.1L113,6.2l0,0
			l-1.8-3c-0.1-0.2,0-0.3,0.2-0.3h9.7c2.1,0,4,0.7,5.5,2.2s2.2,3.3,2.2,5.5c0,1.6-0.4,3-1.3,4.4c-0.8,1.2-1.9,2.1-3.1,2.6
			C124.3,17.6,124.2,17.7,124.3,17.8z"/>
	</g>
	<g>
		<path class="st1" d="M134.1,5.6l4.2-3.8c0.1-0.1,0.4,0,0.4,0.2v24.4c0,0.2-0.2,0.3-0.4,0.2l-4.2-3.9c0,0-0.1-0.1-0.1-0.2V5.8
			C134,5.7,134,5.6,134.1,5.6z"/>
	</g>
	<g>
		<path class="st1" d="M164.5,5.7c2.4,2.3,3.7,5.3,3.7,8.6s-1.2,6.2-3.7,8.6c-2.3,2.3-5.2,3.6-8.6,3.6c-3.3,0-6.2-1.2-8.6-3.6
			c-2.3-2.3-3.6-5.2-3.6-8.6c0-3.3,1.2-6.2,3.6-8.6c2.3-2.3,5.2-3.6,8.6-3.6C159.3,2.2,162.1,3.4,164.5,5.7z M150.2,8.6
			c-1.6,1.6-2.3,3.5-2.3,5.7s0.7,4.2,2.3,5.8c1.6,1.6,3.6,2.3,5.8,2.3c2.2,0,4.2-0.7,5.7-2.3c1.6-1.6,2.3-3.6,2.3-5.8
			s-0.8-4.2-2.3-5.7c-1.6-1.6-3.5-2.3-5.7-2.3C153.6,6.2,151.8,6.9,150.2,8.6z"/>
	</g>
	<circle class="st2" cx="100.4" cy="14.1" r="12.2"/>
	<g>
		<g>
			<defs>
				<circle id="SVGID_1_" cx="100.4" cy="14.1" r="11.2"/>
			</defs>
			<clipPath id="SVGID_2_">
				<use xlink:href="#SVGID_1_"  style="overflow:visible;"/>
			</clipPath>
			<g class="st3">
				<g>
					
						<rect x="88.8" y="-2.3" transform="matrix(0.9189 0.3946 -0.3946 0.9189 10.9434 -34.5848)" class="st4" width="1.5" height="23.2"/>
					
						<rect x="90" y="-1" transform="matrix(0.9189 0.3946 -0.3946 0.9189 11.6601 -35.5994)" class="st5" width="4.8" height="23.1"/>
					
						<rect x="94.5" y="0.9" transform="matrix(0.9189 0.3946 -0.3946 0.9189 12.6906 -37.0927)" class="st6" width="4.1" height="22.9"/>
					
						<rect x="98.2" y="2.7" transform="matrix(0.9189 0.3946 -0.3946 0.9189 13.7293 -38.4979)" class="st7" width="4.5" height="22.9"/>
				</g>
				<g>
					
						<rect x="102.5" y="4.1" transform="matrix(0.9206 0.3906 -0.3906 0.9206 14.3144 -39.3426)" class="st8" width="2.9" height="22.9"/>
					
						<rect x="105" y="5.2" transform="matrix(0.9206 0.3906 -0.3906 0.9206 14.9515 -40.2692)" class="st9" width="2.9" height="22.9"/>
					
						<rect x="107.5" y="6.5" transform="matrix(0.9206 0.3906 -0.3906 0.9206 15.6756 -41.2457)" class="st10" width="3.6" height="22.9"/>
					
						<rect x="110.6" y="7.8" transform="matrix(0.9206 0.3906 -0.3906 0.9206 16.3675 -42.0943)" class="st11" width="2.2" height="22.9"/>
				</g>
			</g>
		</g>
	</g>
</g>
</svg>
