<?xml version="1.0" encoding="utf-8"?>
<!-- Generator: Adobe Illustrator 21.1.0, SVG Export Plug-In . SVG Version: 6.00 Build 0)  -->
<svg version="1.1" id="Layer_1" xmlns:svg="http://www.w3.org/2000/svg"
	 xmlns="http://www.w3.org/2000/svg" xmlns:xlink="http://www.w3.org/1999/xlink" x="0px" y="0px" viewBox="0 0 168.7 28.7"
	 style="enable-background:new 0 0 168.7 28.7;" xml:space="preserve">
<style type="text/css">
	.st0{fill:#FFFFFF;}
	.st1{fill:#0047AA;stroke:#FFFFFF;stroke-miterlimit:10;}
	.st2{fill:#264346;}
</style>
<g>
	<g>
		<path class="st0" d="M20.1,11.3c0,2-0.7,3.8-2.2,5.3c-1.4,1.4-3.2,2.2-5.2,2.2H5.5c-0.1,0-0.2,0.1-0.2,0.2v6.9
			c0,0.1-0.1,0.2-0.2,0.2H1.8c-0.1,0-0.2-0.1-0.2-0.2V15.2c0-0.1,0.1-0.2,0.2-0.2h3.5h7.4c1,0,1.9-0.4,2.6-1.1
			c0.7-0.7,1.1-1.6,1.1-2.6c0-1-0.4-1.9-1.1-2.6c-0.7-0.7-1.6-1.1-2.6-1.1H5.4c-0.1,0-0.1,0-0.2-0.1L2,4.3c-0.1-0.1,0-0.4,0.2-0.4
			h10.6c2,0,3.8,0.7,5.2,2.2C19.4,7.5,20.1,9.3,20.1,11.3z"/>
	</g>
	<g>
		<path class="st0" d="M28.1,23.5l-3.8,3.8c-0.1,0.1-0.4,0-0.4-0.2V2.9c0-0.2,0.2-0.3,0.4-0.2l3.8,3.7c0,0,0.1,0.1,0.1,0.2v16.7
			C28.2,23.4,28.1,23.5,28.1,23.5z"/>
	</g>
	<g>
		<path class="st0" d="M49.4,26.1h-4.5c-0.1,0-0.2,0-0.2-0.1l-4.1-6.8c-0.1-0.1-0.3-0.1-0.4,0L36.2,26c0,0.1-0.1,0.1-0.2,0.1h-4.5
			c-0.2,0-0.3-0.2-0.2-0.3l6.6-11c0-0.1,0-0.2,0-0.2L31.7,4.1c-0.1-0.2,0-0.3,0.2-0.3h4.5c0.1,0,0.2,0,0.2,0.1l3.7,6.3
			c0.1,0.1,0.3,0.1,0.4,0l3.7-6.3c0-0.1,0.1-0.1,0.2-0.1H49c0.2,0,0.3,0.2,0.2,0.3L43,14.5c0,0.1,0,0.2,0,0.2l6.6,11
			C49.7,25.9,49.6,26.1,49.4,26.1z"/>
	</g>
	<g>
		<path class="st0" d="M68.4,4v3.3c0,0.1-0.1,0.2-0.2,0.2H54.3c-0.1,0-0.1,0-0.2-0.1l-2.5-3.3c-0.1-0.1,0-0.4,0.2-0.4h16.5
			C68.3,3.7,68.4,3.8,68.4,4z M57.1,13.1h11c0.1,0,0.2,0.1,0.2,0.2v3.3c0,0.1-0.1,0.2-0.2,0.2h-11h-2.8c-0.1,0-0.2-0.1-0.2-0.2v-3.3
			c0-0.1,0.1-0.2,0.2-0.2H57.1z M54.2,22.5h13.9c0.1,0,0.2,0.1,0.2,0.2V26c0,0.1-0.1,0.2-0.2,0.2H51.5c-0.1,0-0.2-0.1-0.2-0.2l0,0
			c0-0.1,0-0.1,0.1-0.1l2.8-3.3C54.1,22.5,54.2,22.5,54.2,22.5z"/>
	</g>
	<g>
		<path class="st0" d="M77.3,3.7c0.1,0,0.2,0.1,0.2,0.2v0.4v17.9c0,0.1,0,0.1-0.1,0.2l-3.9,3.3c-0.1,0.1-0.4,0-0.4-0.2V4.3V4
			c0-0.1,0.1-0.2,0.2-0.2H77.3z M87.9,22.6v3.2c0,0.1-0.1,0.2-0.2,0.2H73.8c-0.2,0-0.3-0.3-0.1-0.4l3.8-3.2c0,0,0.1-0.1,0.1-0.1h10
			C87.7,22.4,87.9,22.5,87.9,22.6z"/>
	</g>
	<g>
		<path class="st0" d="M123.5,18.4l4.3,7.6c0.1,0.2,0,0.3-0.2,0.3h-3.8c-0.1,0-0.2,0-0.2-0.1l-6.3-11c-0.1-0.2,0-0.3,0.2-0.3l3,0
			c1,0,1.9-0.4,2.6-1.1c0.8-0.7,1.1-1.7,1.1-2.7c0-1-0.4-1.9-1.1-2.6c-0.7-0.7-1.6-1.1-2.6-1.1h-7.5c-0.1,0-0.1,0-0.2-0.1L112.4,7
			c0,0,0,0,0,0l-1.8-3c-0.1-0.2,0-0.3,0.2-0.3h9.6c2.1,0,3.9,0.7,5.4,2.2c1.5,1.5,2.2,3.3,2.2,5.4c0,1.6-0.4,3-1.3,4.3
			c-0.8,1.2-1.9,2.1-3.1,2.6C123.5,18.2,123.4,18.3,123.5,18.4z"/>
	</g>
	<g>
		<path class="st0" d="M133.2,6.4l4.1-3.7c0.1-0.1,0.4,0,0.4,0.2v24c0,0.2-0.2,0.3-0.4,0.2l-4.1-3.8c0,0-0.1-0.1-0.1-0.2V6.6
			C133.1,6.5,133.1,6.4,133.2,6.4z"/>
	</g>
	<g>
		<path class="st0" d="M163.1,6.5c2.4,2.3,3.6,5.2,3.6,8.5c0,3.3-1.2,6.1-3.6,8.5c-2.3,2.3-5.1,3.5-8.5,3.5c-3.3,0-6.1-1.2-8.5-3.5
			c-2.3-2.3-3.5-5.1-3.5-8.5c0-3.3,1.2-6.1,3.5-8.5c2.3-2.3,5.1-3.5,8.5-3.5C158,3,160.8,4.2,163.1,6.5z M149,9.3
			c-1.6,1.6-2.3,3.4-2.3,5.6s0.7,4.1,2.3,5.7c1.6,1.6,3.5,2.3,5.7,2.3c2.2,0,4.1-0.7,5.6-2.3c1.6-1.6,2.3-3.5,2.3-5.7
			s-0.8-4.1-2.3-5.6c-1.6-1.6-3.4-2.3-5.6-2.3C152.4,7,150.6,7.7,149,9.3z"/>
	</g>
	<circle class="st1" cx="100.2" cy="15" r="11.3"/>
</g>
<path class="st2" d="M310-48.5C310-48.5,310-48.5,310-48.5C310-48.5,310-48.5,310-48.5C310-48.5,310-48.5,310-48.5
	C310-48.5,310-48.5,310-48.5z"/>
</svg>
