<?xml version="1.0" encoding="iso-8859-1"?>
<!-- Generator: Adobe Illustrator 21.0.0, SVG Export Plug-In . SVG Version: 6.00 Build 0)  -->
<svg version="1.1" id="Capa_1" xmlns="http://www.w3.org/2000/svg" xmlns:xlink="http://www.w3.org/1999/xlink" x="0px" y="0px"
	 viewBox="0 0 512 512" style="enable-background:new 0 0 512 512;" xml:space="preserve">
<path style="fill:#DFF5F7;" d="M412.554,0h-320c-4.418,0-8,3.582-8,8v384c0,4.418,3.582,8,8,8h320c4.418,0,8-3.582,8-8V8
	C420.554,3.582,416.973,0,412.554,0z"/>
<g>
	<path style="fill:#9EE2E6;" d="M372.554,72h-112c-4.418,0-8-3.582-8-8s3.582-8,8-8h112c4.418,0,8,3.582,8,8S376.973,72,372.554,72z
		"/>
	<path style="fill:#9EE2E6;" d="M372.554,104h-112c-4.418,0-8-3.582-8-8s3.582-8,8-8h112c4.418,0,8,3.582,8,8
		S376.973,104,372.554,104z"/>
</g>
<path style="fill:#7ED9DE;" d="M197.163,40h-64.609c-4.418,0-8,3.582-8,8v80c0,4.418,3.582,8,8,8h6.072l54.321-90.487
	C194.152,43.505,195.577,41.668,197.163,40z"/>
<path style="fill:#BFECEF;" d="M236.852,34.547c-4.975-2.986-10.667-4.565-16.462-4.565c-8.835,0-17.246,3.729-23.227,10.018h31.391
	c4.418,0,8,3.582,8,8v80c0,4.418-3.582,8-8,8h-89.928l-54.072,90.071V392c0,4.418,3.582,8,8,8h316.805l11.195-18.648V144.827
	L236.852,34.547z"/>
<path style="fill:#5ECFD6;" d="M236.554,128V48c0-4.418-3.582-8-8-8h-31.391c-1.586,1.668-3.011,3.505-4.216,5.513L138.626,136
	h89.928C232.973,136,236.554,132.418,236.554,128z"/>
<path style="fill:#FDFCE7;" d="M239.485,512L26.857,384.355c-3.788-2.274-5.015-7.188-2.741-10.977L213.524,57.865
	c2.274-3.788,7.188-5.015,10.977-2.741l260.641,156.468c3.788,2.274,5.015,7.188,2.741,10.977l-160.585,267.5L239.485,512z"/>
<path style="fill:#FCFAD0;" d="M279.285,461.246l48.013,28.823L239.485,512l28.823-48.013
	C270.582,460.199,275.496,458.971,279.285,461.246z"/>
<g>
	<path style="fill:#F9F4A1;" d="M330.108,171.506c-1.401,0-2.82-0.368-4.11-1.142l-54.872-32.94
		c-3.788-2.274-5.015-7.188-2.741-10.977c2.274-3.787,7.188-5.016,10.977-2.741l54.872,32.94c3.788,2.274,5.015,7.188,2.741,10.977
		C335.474,170.122,332.824,171.506,330.108,171.506z"/>
	<path style="fill:#F9F4A1;" d="M432.992,233.27c-1.401,0-2.821-0.368-4.11-1.142l-75.449-45.293
		c-3.788-2.274-5.015-7.188-2.741-10.977c2.273-3.788,7.188-5.016,10.977-2.741l75.449,45.293c3.788,2.274,5.015,7.188,2.741,10.977
		C438.359,231.886,435.71,233.27,432.992,233.27z"/>
	<path style="fill:#F9F4A1;" d="M264.248,187.955c-1.401,0-2.82-0.368-4.11-1.142l-61.731-37.058
		c-3.788-2.274-5.015-7.188-2.741-10.977c2.274-3.788,7.187-5.015,10.977-2.741l61.731,37.058c3.788,2.274,5.015,7.188,2.741,10.977
		C269.615,186.57,266.965,187.955,264.248,187.955z"/>
	<path style="fill:#F9F4A1;" d="M408.287,274.424c-1.401,0-2.821-0.368-4.11-1.142l-116.603-69.999
		c-3.788-2.274-5.015-7.188-2.741-10.977c2.273-3.788,7.189-5.015,10.977-2.741l116.603,69.999
		c3.788,2.274,5.015,7.188,2.741,10.977C413.653,273.04,411.004,274.424,408.287,274.424z"/>
	<path style="fill:#F9F4A1;" d="M387.699,308.719c-1.402,0-2.821-0.368-4.11-1.142L177.82,184.049
		c-3.788-2.274-5.015-7.188-2.741-10.977s7.187-5.015,10.977-2.741l205.77,123.527c3.788,2.274,5.015,7.188,2.741,10.977
		C393.066,307.334,390.416,308.719,387.699,308.719z"/>
	<path style="fill:#F9F4A1;" d="M367.111,343.014c-1.401,0-2.82-0.368-4.11-1.142l-157.756-94.704
		c-3.788-2.274-5.015-7.188-2.741-10.977c2.273-3.788,7.188-5.016,10.977-2.741l157.756,94.704
		c3.788,2.274,5.016,7.188,2.741,10.977C372.478,341.629,369.828,343.014,367.111,343.014z"/>
	<path style="fill:#F9F4A1;" d="M264.215,327.897c-1.401,0-2.82-0.368-4.11-1.142l-123.462-74.116
		c-3.788-2.274-5.015-7.188-2.741-10.977s7.188-5.016,10.977-2.741l123.462,74.116c3.788,2.274,5.015,7.188,2.741,10.977
		C269.582,326.513,266.932,327.897,264.215,327.897z"/>
	<path style="fill:#F9F4A1;" d="M346.523,377.309c-1.401,0-2.821-0.368-4.11-1.142l-54.872-32.941
		c-3.788-2.274-5.015-7.188-2.741-10.977c2.273-3.789,7.188-5.016,10.977-2.741l54.872,32.941c3.788,2.274,5.016,7.188,2.741,10.977
		C351.89,375.924,349.24,377.309,346.523,377.309z"/>
	<path style="fill:#F9F4A1;" d="M168.179,316.899c-1.401,0-2.821-0.368-4.11-1.142l-48.013-28.823
		c-3.788-2.274-5.015-7.188-2.741-10.977c2.273-3.788,7.188-5.015,10.977-2.741l48.013,28.823c3.788,2.274,5.015,7.188,2.741,10.977
		C173.546,315.515,170.896,316.899,168.179,316.899z"/>
	<path style="fill:#F9F4A1;" d="M325.935,411.604c-1.401,0-2.821-0.368-4.11-1.142l-130.32-78.234
		c-3.788-2.274-5.016-7.188-2.741-10.977c2.273-3.788,7.189-5.015,10.977-2.741l130.32,78.234c3.788,2.274,5.016,7.188,2.741,10.977
		C331.302,410.219,328.652,411.604,325.935,411.604z"/>
	<path style="fill:#F9F4A1;" d="M305.347,445.898c-1.401,0-2.821-0.368-4.11-1.142L95.468,321.229
		c-3.788-2.274-5.015-7.188-2.741-10.977c2.273-3.789,7.189-5.015,10.977-2.741l205.769,123.527
		c3.788,2.274,5.015,7.188,2.741,10.977C310.714,444.514,308.065,445.898,305.347,445.898z"/>
	<path style="fill:#F9F4A1;" d="M161.298,406.077c-1.401,0-2.82-0.368-4.11-1.142L74.88,355.524
		c-3.788-2.274-5.015-7.188-2.741-10.977c2.274-3.788,7.187-5.016,10.977-2.741l82.308,49.411c3.788,2.274,5.015,7.188,2.741,10.977
		C166.665,404.692,164.016,406.077,161.298,406.077z"/>
	<path style="fill:#F9F4A1;" d="M236.747,451.37c-1.401,0-2.82-0.368-4.11-1.142l-48.013-28.823
		c-3.788-2.274-5.015-7.188-2.741-10.977c2.274-3.788,7.187-5.016,10.977-2.741l48.013,28.823c3.788,2.274,5.015,7.188,2.741,10.977
		C242.113,449.986,239.464,451.37,236.747,451.37z"/>
</g>
<g>
</g>
<g>
</g>
<g>
</g>
<g>
</g>
<g>
</g>
<g>
</g>
<g>
</g>
<g>
</g>
<g>
</g>
<g>
</g>
<g>
</g>
<g>
</g>
<g>
</g>
<g>
</g>
<g>
</g>
</svg>
