<svg xmlns="http://www.w3.org/2000/svg" height="511pt" version="1.1" viewBox="-44 1 511 511.99999" width="511pt">
<g id="surface1">
<path d="M 150.570312 459.035156 L 362.429688 459.035156 L 362.429688 247.171875 C 362.5 364.113281 267.757812 458.964844 150.816406 459.035156 C 150.734375 459.035156 150.652344 459.035156 150.570312 459.035156 Z M 150.570312 459.035156 " style=" stroke:none;fill-rule:nonzero;fill:rgb(60.784314%,98.431373%,100%);fill-opacity:1;" />
<path d="M 62.292969 52.964844 L 62.292969 459.035156 L 150.566406 459.035156 C 267.507812 459.101562 362.363281 364.359375 362.429688 247.417969 C 362.429688 247.335938 362.429688 247.253906 362.429688 247.171875 L 362.429688 52.964844 Z M 62.292969 52.964844 " style=" stroke:none;fill-rule:nonzero;fill:rgb(74.117647%,99.215686%,100%);fill-opacity:1;" />
<path d="M 362.429688 26.484375 C 362.429688 15.808594 346.621094 0 327.121094 0 L 97.601562 0 C 78.101562 0 62.292969 15.808594 62.292969 35.3125 L 62.292969 52.964844 L 362.429688 52.964844 Z M 362.429688 26.484375 " style=" stroke:none;fill-rule:nonzero;fill:rgb(34.509804%,34.901961%,35.686275%);fill-opacity:1;" />
<path d="M 62.292969 485.515625 C 62.292969 496.191406 78.101562 512 97.601562 512 L 327.121094 512 C 346.621094 512 362.429688 496.191406 362.429688 476.6875 L 362.429688 459.035156 L 62.292969 459.035156 Z M 62.292969 485.515625 " style=" stroke:none;fill-rule:nonzero;fill:rgb(34.509804%,34.901961%,35.686275%);fill-opacity:1;" />
<path d="M 424.222656 176.550781 L 0.5 176.550781 L 0.5 388.414062 L 424.222656 388.414062 Z M 150.570312 319.9375 L 113.113281 282.480469 L 150.570312 245.027344 L 113.113281 282.480469 Z M 190.292969 320.707031 L 234.429688 244.257812 Z M 274.15625 319.9375 L 311.609375 282.480469 L 274.15625 245.027344 L 311.609375 282.480469 Z M 274.15625 319.9375 " style=" stroke:none;fill-rule:nonzero;fill:rgb(94.509804%,94.901961%,94.901961%);fill-opacity:1;" />
<path d="M 424.222656 123.585938 L 0.5 123.585938 L 0.5 176.550781 L 424.222656 176.550781 Z M 424.222656 123.585938 " style=" stroke:none;fill-rule:nonzero;fill:rgb(0%,42.745098%,94.117647%);fill-opacity:1;" />
<path d="M 203.535156 450.207031 L 221.1875 450.207031 L 221.1875 467.863281 L 203.535156 467.863281 Z M 203.535156 450.207031 " style=" stroke:none;fill-rule:nonzero;fill:rgb(94.509804%,94.901961%,94.901961%);fill-opacity:1;" />
<path d="M 203.535156 17.65625 L 221.1875 17.65625 L 221.1875 35.3125 L 203.535156 35.3125 Z M 203.535156 17.65625 " style=" stroke:none;fill-rule:nonzero;fill:rgb(94.509804%,94.901961%,94.901961%);fill-opacity:1;" />
<path d="M 26.980469 141.242188 L 44.636719 141.242188 L 44.636719 158.898438 L 26.980469 158.898438 Z M 26.980469 141.242188 " style=" stroke:none;fill-rule:nonzero;fill:rgb(94.509804%,94.901961%,94.901961%);fill-opacity:1;" />
<path d="M 62.292969 141.242188 L 79.949219 141.242188 L 79.949219 158.898438 L 62.292969 158.898438 Z M 62.292969 141.242188 " style=" stroke:none;fill-rule:nonzero;fill:rgb(94.509804%,94.901961%,94.901961%);fill-opacity:1;" />
<path d="M 97.601562 141.242188 L 115.257812 141.242188 L 115.257812 158.898438 L 97.601562 158.898438 Z M 97.601562 141.242188 " style=" stroke:none;fill-rule:nonzero;fill:rgb(94.509804%,94.901961%,94.901961%);fill-opacity:1;" />
<path d="M 274.15625 328.765625 C 269.28125 328.765625 265.328125 324.8125 265.328125 319.9375 C 265.328125 317.597656 266.257812 315.351562 267.914062 313.695312 L 299.128906 282.480469 L 267.914062 251.265625 C 264.40625 247.878906 264.3125 242.292969 267.699219 238.785156 C 271.085938 235.277344 276.671875 235.183594 280.179688 238.570312 C 280.253906 238.640625 280.324219 238.710938 280.394531 238.785156 L 317.851562 276.242188 C 321.296875 279.6875 321.296875 285.277344 317.851562 288.722656 L 280.394531 326.179688 C 278.742188 327.835938 276.496094 328.765625 274.15625 328.765625 Z M 274.15625 328.765625 " style=" stroke:none;fill-rule:nonzero;fill:rgb(0%,42.745098%,94.117647%);fill-opacity:1;" />
<path d="M 150.570312 328.765625 C 148.226562 328.765625 145.984375 327.835938 144.328125 326.179688 L 106.871094 288.722656 C 103.425781 285.277344 103.425781 279.6875 106.871094 276.242188 L 144.328125 238.785156 C 147.714844 235.277344 153.304688 235.179688 156.808594 238.566406 C 160.316406 241.953125 160.414062 247.542969 157.027344 251.050781 C 156.957031 251.125 156.882812 251.195312 156.808594 251.265625 L 125.59375 282.480469 L 156.808594 313.695312 C 160.257812 317.144531 160.257812 322.734375 156.808594 326.179688 C 155.152344 327.835938 152.910156 328.765625 150.570312 328.765625 Z M 150.570312 328.765625 " style=" stroke:none;fill-rule:nonzero;fill:rgb(0%,42.745098%,94.117647%);fill-opacity:1;" />
<path d="M 190.292969 329.535156 C 185.417969 329.53125 181.46875 325.574219 181.472656 320.699219 C 181.476562 319.152344 181.882812 317.632812 182.65625 316.292969 L 226.796875 239.84375 C 229.261719 235.640625 234.671875 234.230469 238.875 236.695312 C 243.042969 239.136719 244.472656 244.476562 242.085938 248.671875 L 197.945312 325.121094 C 196.367188 327.855469 193.449219 329.539062 190.292969 329.535156 Z M 190.292969 329.535156 " style=" stroke:none;fill-rule:nonzero;fill:rgb(0%,42.745098%,94.117647%);fill-opacity:1;" />
</g>
</svg>