<svg height="512pt" viewBox="-3 0 512 512.00063" width="512pt" xmlns="http://www.w3.org/2000/svg"><path d="m0 232.917969h43.605469v52.328125h-43.605469zm0 0" fill="#eef1eb"/><path d="m104.65625 311.410156h43.605469v34.957032c0 9.59375-7.777344 17.371093-17.371094 17.371093h-26.234375zm0 0" fill="#345a84"/><path d="m279.082031 102.101562c0 28.898438-23.429687 52.328126-52.328125 52.328126-28.898437 0-52.328125-23.429688-52.328125-52.328126 0-28.902343 23.429688-52.328124 52.328125-52.328124 28.898438 0 52.328125 23.425781 52.328125 52.328124zm0 0" fill="#88d0ef"/><path d="m169.160156 226.542969 162.25-72.113281v209.308593l-162.25-72.117187zm0 0" fill="#eef1eb"/><path d="m61.050781 311.410156h52.324219v95.933594h-52.324219zm0 0" fill="#a9bfd1"/><path d="m444.785156 6.167969-69.769531 69.769531v61.046875h61.046875l69.773438-69.769531zm-30.523437 104.652343c-7.226563 0-13.082031-5.855468-13.082031-13.082031 0-7.222656 5.855468-13.082031 13.082031-13.082031 7.222656 0 13.082031 5.859375 13.082031 13.082031 0 7.226563-5.859375 13.082031-13.082031 13.082031zm0 0" fill="#d1e3ee"/><path d="m59.933594 198.035156h89.445312c13.832032 0 25.046875 11.214844 25.046875 25.046875v72.003907c0 13.832031-11.214843 25.046874-25.046875 25.046874h-89.445312c-13.835938 0-25.046875-11.214843-25.046875-25.046874v-72.003907c0-13.832031 11.210937-25.046875 25.046875-25.046875zm0 0" fill="#dd1c4b"/><path d="m331.410156 154.429688-52.328125 23.257812v162.792969l52.328125 23.257812zm0 0" fill="#d1e3ee"/><path d="m357.828125 408.226562 61.667969-61.667968 86.335937 86.335937-61.667969 61.667969zm0 0" fill="#d1e3ee"/><path d="m419.503906 346.546875 6.164063 80.175781 80.167969 6.167969zm0 0" fill="#a9bfd1"/><g fill="#88d0ef"><path d="m479.671875 206.753906c0 14.453125-11.714844 26.164063-26.164063 26.164063-14.449218 0-26.164062-11.710938-26.164062-26.164063 0-14.449218 11.714844-26.160156 26.164062-26.160156 14.449219 0 26.164063 11.710938 26.164063 26.160156zm0 0"/><path d="m444.953125 241.640625h17.117187c14.539063.003906 26.320313 11.792969 26.320313 26.328125v43.441406h-69.769531v-43.441406c0-14.539062 11.789062-26.328125 26.332031-26.328125zm0 0"/><path d="m409.902344 215.476562c0 9.632813-7.8125 17.441407-17.445313 17.441407-9.632812 0-17.441406-7.808594-17.441406-17.441407 0-9.632812 7.808594-17.441406 17.441406-17.441406 9.632813 0 17.445313 7.808594 17.445313 17.441406zm0 0"/><path d="m392.457031 241.640625c14.449219 0 26.164063 11.714844 26.164063 26.164063v26.164062h-52.328125v-26.164062c0-14.449219 11.714843-26.164063 26.164062-26.164063zm0 0"/></g><path d="m328.851562 12.332031-12.332031-12.332031-53.277343 53.261719c-27.101563-20.28125-65.515626-14.753907-85.796876 12.347656-20.28125 27.105469-14.753906 65.515625 12.351563 85.796875 27.101563 20.285156 65.511719 14.753906 85.796875-12.347656 16.292969-21.773438 16.292969-51.675782 0-73.449219zm-102.097656 133.375c-24.082031 0-43.605468-19.523437-43.605468-43.605469 0-24.085937 19.523437-43.609374 43.605468-43.609374 24.082032 0 43.605469 19.523437 43.605469 43.609374-.027344 24.070313-19.535156 43.574219-43.605469 43.605469zm0 0" fill="#d1e3ee"/><path d="m235.476562 363.738281h-34.886718l-52.328125 52.328125 95.933593 95.933594 69.773438-69.769531zm-41.050781 63.605469 34.882813-34.886719 12.332031 12.332031-34.882813 34.886719zm38.492188 38.496094-12.332031-12.332032 34.886718-34.886718 12.332032 12.332031zm0 0" fill="#88d0ef"/></svg>