<svg xmlns="http://www.w3.org/2000/svg" xmlns:xlink="http://www.w3.org/1999/xlink" width="316" height="270" viewBox="0 0 316 270">
  <defs>
    <path id="design-tile-a" d="M265.853356,52.5487221 L94.3104991,0.652779156 C92.4612737,0.108796526 90.5032702,0.435186104 88.9259896,1.52315137 L1.25094665,65.7131017 C-0.0543889845,66.6378722 0.271944922,68.6506079 1.79483649,69.085794 L177.2537,122.178499 C179.157315,122.77688 181.224097,122.396092 182.855766,121.144932 L266.451635,55.8670162 C267.75697,54.9422457 267.376247,52.9839081 265.853356,52.5487221 Z"/>
  </defs>
  <g fill="none" fill-rule="evenodd">
    <g fill-rule="nonzero" transform="translate(100.075 59.838)">
      <path fill="#55D9AC" d="M118.132874,93.3474193 L118.132874,93.3474193 L118.132874,93.293021 C118.078485,93.1298264 118.024096,92.9666316 117.969707,92.8034368 L84.302926,0.326389578 L34.863339,0.326389578 L12.0199656,63.2651799 L1.68605852,91.7154715 C0.652667815,93.9458002 0.163166954,96.2849256 0.163166954,98.6784491 C0.163166954,115.596309 26.7593804,129.304671 59.610327,129.304671 C92.4068847,129.304671 119.057487,115.596309 119.057487,98.6784491 C119.057487,97.5904838 118.948709,96.5569169 118.731153,95.5233499 C118.567986,94.7617742 118.35043,94.0545967 118.132874,93.3474193 Z"/>
      <path fill="#64E2C1" d="M105.188296,88.6691688 L105.188296,88.6691688 L105.188296,88.6147705 C105.133907,88.4515757 105.079518,88.3427792 105.025129,88.1795844 L78.9728055,5.11343672 L40.7373494,5.11343672 L21.6468159,66.0938896 L15.0657487,87.2004156 C14.304303,89.2131514 13.869191,91.2802854 13.869191,93.4562158 C13.869191,108.633331 34.4826162,120.981737 59.882272,120.981737 C85.2819277,120.981737 105.895353,108.68773 105.895353,93.4562158 C105.895353,92.857835 105.840964,92.2594541 105.786575,91.6610732 C105.623408,90.5731079 105.460241,89.5939393 105.188296,88.6691688 Z"/>
      <polygon fill="#7FF9F1" points="37.094 42.648 43.022 15.939 67.171 16.211 70.542 45.205"/>
      <polygon fill="#7FF9F1" points="61.187 71.262 59.556 16.973 74.948 14.959 87.566 72.349" opacity=".66"/>
    </g>
    <g fill-rule="nonzero" transform="translate(0 119.676)">
      <path fill="#000" fill-opacity=".15" d="M220.065372,141.925323 C223.46644,142.225444 226.899772,141.229941 229.630293,139.096359 L313.661273,73.6008499 C316.870224,71.0441316 315.945612,65.9306948 312.029605,64.733933 L116.338038,5.54862283 C112.258864,4.29746278 107.853356,5.05903846 104.42685,7.56135856 L15.7728055,71.5881141 C12.2375215,74.1448325 13.1621342,79.5846588 17.295697,80.8358189 L208.799431,138.812435 L208.799431,141.925323 L220.065372,141.925323 Z"/>
      <path fill="#DBFDEA" d="M299.955249,60.2188771 L103.556627,5.49422457 C99.4774527,4.24306451 95.071945,5.0046402 91.6454388,7.50696029 L1.84922547,68.7050062 C-1.68605852,71.2617245 1.95800344,79.8022518 8.15834767,81.9237842 L204.502582,141.381086 C208.744922,142.686644 213.367986,141.816271 216.848882,139.096359 L299.465748,74.6888152 C304.197591,70.7721402 303.871256,61.4156389 299.955249,60.2188771 Z"/>
      <path fill="#FFF" d="M299.193804,60.0012842 L103.556627,0.761575682 C99.4774527,-0.489584368 95.071945,0.271991316 91.6454388,2.77431141 L2.93700517,66.8554653 C-0.598278829,69.4121836 0.326333907,74.85201 4.45989672,76.10317 L204.502582,136.594038 C208.744922,137.899597 213.367986,137.029225 216.848882,134.309311 L300.879862,68.8138027 C304.088813,66.3114826 303.109811,61.1980459 299.193804,60.0012842 Z"/>
      <path fill="#1D012F" d="M281.626162,58.532531 L110.083305,6.63658809 C108.234079,6.09260546 106.276076,6.41899503 104.698795,7.50696029 L17.0237522,71.6969106 C15.7184166,72.6216811 16.0447504,74.6344169 17.567642,75.0696029 L193.026506,128.162308 C194.93012,128.760689 196.996902,128.3799 198.628571,127.128741 L282.224441,61.8508251 C283.529776,60.9260546 283.149053,58.9677171 281.626162,58.532531 Z"/>
      <path fill="#220363" d="M111.171084,6.96297767 L102.360069,31.2790012 C101.326678,33.50933 100.837177,35.8484553 100.837177,38.241979 C100.837177,55.1598387 127.43339,68.868201 160.284337,68.868201 C192.80895,68.868201 219.241997,55.3774318 219.731497,38.677165 C219.677108,38.5139703 111.171084,6.96297767 111.171084,6.96297767 Z"/>
      <path fill="#280C8A" d="M115.467814,25.7303784 C114.706368,27.7431141 114.271256,29.8102482 114.271256,31.9861786 C114.271256,47.163294 134.884681,59.5116998 160.284337,59.5116998 C183.72599,59.5116998 203.469191,48.3056576 206.351808,34.76049 C199.607573,32.8565509 120.471601,9.79168734 120.471601,9.79168734 L115.467814,25.7303784 Z"/>
      <ellipse cx="250.57" cy="96.557" fill="#220363" rx="6.146" ry="3.155"/>
      <circle cx="68.802" cy="26.709" r="1.215" fill="#220363"/>
      <path fill="#220363" d="M79.8430293,93.9458002 C79.8430293,93.9458002 103.665404,83.2837407 121.940104,84.589299 C140.214802,85.8948574 143.586919,86.4388399 157.510499,84.4261042 C186.554217,80.2918362 190.252668,70.7721402 210.539759,70.4457506 C230.82685,70.0649628 242.846816,65.8762965 250.515663,64.8427295 C258.18451,63.8091626 282.170051,61.9596216 282.170051,61.9596216 C282.170051,61.9596216 202.490189,124.300031 199.22685,126.747952 C195.963511,129.195874 194.331841,128.597494 191.993115,127.890317 C189.654388,127.183139 79.8430293,93.9458002 79.8430293,93.9458002 Z"/>
      <path fill="#FFF" d="M267.81136,96.1217308 L250.352496,109.775695 C250.026162,110.047686 249.59105,109.93889 249.373494,109.558102 L248.50327,107.980552 L268.735972,92.2050559 L268.246471,95.3601551 C268.192083,95.6321464 268.028915,95.9041377 267.81136,96.1217308 Z"/>
      <path fill="#220363" d="M51.6151462,39.8739268 L51.6151462,39.8739268 C50.9624785,39.6563337 50.7993115,38.8403598 51.3432014,38.4595719 L63.9070568,29.1030707 C64.3965577,28.7766811 64.9948365,28.6678846 65.5387263,28.8310794 L65.5931153,28.8310794 C66.2457831,28.9942742 66.3545612,29.8646464 65.8650603,30.2454343 L53.3012048,39.6019355 C52.8117039,39.9283251 52.1590362,40.0371216 51.6151462,39.8739268 Z"/>
      <path fill="#FFF" d="M28.3910499,84.6436973 L20.3414802,82.1957755 C19.7975903,82.0325807 19.3624785,81.6517928 19.1993115,81.1078102 L18.1659208,78.2791004 L30.4578314,81.9237842 L29.4788296,84.1541129 C29.3156626,84.589299 28.8261618,84.8068921 28.3910499,84.6436973 Z M41.8251291,88.6147705 L33.7755594,86.1668486 C33.2316695,86.0036538 32.7965577,85.6228659 32.6333907,85.0788834 L31.6,82.2501736 L43.8919104,85.8948574 L42.9129088,88.1251861 C42.7497418,88.5603722 42.2602409,88.7779653 41.8251291,88.6147705 Z"/>
    </g>
    <g fill-rule="nonzero" transform="translate(270.314 240.984)">
      <polygon fill="#FFF" points="2.774 13.11 .272 12.893 .327 .98 2.828 1.142"/>
      <path fill="#B6F2CE" d="M2.7738382,1.14236352 C2.7738382,1.4687531 2.22994836,1.68634615 1.52289157,1.6319479 C0.870223753,1.57754963 0.326333907,1.25116004 0.326333907,0.924770472 C0.326333907,0.598380894 0.870223753,0.380787842 1.57728055,0.435186104 C2.22994836,0.489584368 2.7738382,0.815973946 2.7738382,1.14236352 Z"/>
      <path fill="#FFF" d="M2.71944922,13.1099813 C2.71944922,13.4363709 2.17555938,13.653964 1.46850258,13.5995657 C0.815834767,13.5451675 0.271944922,13.2187779 0.271944922,12.8923883 C0.271944922,12.5659988 0.815834767,12.3484057 1.52289157,12.402804 C2.17555938,12.4572023 2.71944922,12.7835919 2.71944922,13.1099813 Z"/>
    </g>
    <polygon fill="#FFF" fill-rule="nonzero" points="282.605 237.339 272.435 246.044 272.435 244.084 282.605 235.326"/>
    <polygon fill="#FFF" fill-rule="nonzero" points="282.605 240.712 272.435 249.416 272.435 247.457 282.605 238.754"/>
    <polygon fill="#B6F2CE" fill-rule="nonzero" points="273.903 244.792 273.142 245.444 273.142 243.487 273.957 242.779"/>
    <polygon fill="#B6F2CE" fill-rule="nonzero" points="273.957 248.111 273.087 248.817 273.087 246.859 273.957 246.097"/>
    <g fill-rule="nonzero" transform="translate(291.525 224.12)">
      <polygon fill="#FFF" points="2.828 12.946 .38 12.729 .435 .762 2.883 .98"/>
      <path fill="#B6F2CE" d="M2.88261618,0.979168734 C2.88261618,1.30555831 2.33872633,1.52315137 1.63166954,1.4687531 C0.979001721,1.41435484 0.435111876,1.08796526 0.435111876,0.761575682 C0.435111876,0.435186104 0.979001721,0.217593052 1.68605852,0.271991316 C2.33872633,0.326389578 2.88261618,0.652779156 2.88261618,0.979168734 Z"/>
      <path fill="#FFF" d="M2.8282272,12.9467867 C2.8282272,13.2731761 2.28433735,13.4907692 1.57728055,13.4363709 C0.924612737,13.3819727 0.380722892,13.0555831 0.380722892,12.7291936 C0.380722892,12.402804 0.924612737,12.185211 1.63166954,12.2396092 C2.28433735,12.2940075 2.8282272,12.6203971 2.8282272,12.9467867 Z"/>
    </g>
    <polygon fill="#FFF" fill-rule="nonzero" points="293.212 228.636 283.04 237.339 283.04 235.381 293.212 226.623"/>
    <polygon fill="#FFF" fill-rule="nonzero" points="293.212 232.008 283.04 240.712 283.04 238.754 293.212 229.996"/>
    <polygon fill="#B6F2CE" fill-rule="nonzero" points="284.509 236.034 283.747 236.741 283.747 234.783 284.563 234.076"/>
    <polygon fill="#B6F2CE" fill-rule="nonzero" points="284.563 239.406 283.693 240.114 283.693 238.156 284.563 237.394"/>
    <g transform="translate(15.773 125.66)">
      <mask id="design-tile-b" fill="#fff">
        <use xlink:href="#design-tile-a"/>
      </mask>
      <g mask="url(#design-tile-b)">
        <g transform="translate(14.685 6.528)">
          <path stroke="#64D69B" stroke-width=".5" d="M121.776936,56.1390075 L45.0340792,32.5301613 C44.5989672,32.4213648 44.5445783,32.0949752 44.8709122,31.8229838 L85.3907057,0.435186104 C85.7170395,0.16319479 86.3697074,0.054398263 86.8048192,0.217593052 L232.186575,44.9329653 C232.621686,45.0417618 232.676076,45.3681514 232.349742,45.6401426 L191.829949,77.0279405 C191.503614,77.2999318 190.850947,77.4087283 190.415834,77.2455335 L153.159381,65.7675"/>
          <path fill="#FFF" fill-rule="nonzero" d="M42.2602409,71.5881141 L13.9235801,62.8843921 C13.3796902,62.7211973 13.2709122,62.3404094 13.7060241,62.0140198 L42.8041308,39.4931389 C43.2392427,39.1667494 44.0006885,39.0579528 44.5445783,39.2211476 L72.8812393,47.9248697 C73.4251291,48.0880645 73.5339071,48.4688524 73.0987952,48.795242 L44.0006885,71.3161229 C43.5655766,71.5881141 42.7497418,71.7513089 42.2602409,71.5881141 Z"/>
          <path fill="#DBFDEA" fill-rule="nonzero" d="M0.380722892,72.2952915 L7.99518072,66.3658809 C8.4302926,66.0394913 9.19173838,65.9306948 9.73562822,66.0938896 L29.6963855,72.2408933 C30.2402753,72.4040881 30.3490534,72.7848759 29.9139415,73.1112655 L22.2994836,79.0406761 M26.5418245,80.3462345 L34.1562822,74.4168239 C34.5913942,74.0904343 35.3528399,73.9816377 35.8967298,74.1448325 L55.8574871,80.2918362 C56.4013769,80.455031 56.5101549,80.8358189 56.075043,81.1622085 L48.4605852,87.0916191 M52.648537,88.3971774 L60.2629949,82.4677667 C60.6981067,82.1413771 61.4595525,82.0325807 62.0034423,82.1957755 L81.9641997,88.3427792 C82.5080896,88.505974 82.6168675,88.8867618 82.1817556,89.2131514 L74.5672977,95.142562 M78.8096386,96.3937221 L86.4240963,90.4643114 C86.8592083,90.1379218 87.620654,90.0291253 88.1645439,90.1923201 L108.125301,96.3393239 C108.669191,96.5025187 108.777969,96.8833064 108.342857,97.209696 L100.728399,103.139107"/>
          <path fill="#FFF" fill-rule="nonzero" d="M77.3955249,82.3589703 L49.058864,73.6552482 C48.5149742,73.4920534 48.4061963,73.1112655 48.8413081,72.7848759 L77.9394148,50.263995 C78.3745267,49.9376054 79.1359725,49.8288089 79.6798623,49.9920037 L108.016523,58.6957258 C108.560413,58.8589206 108.669191,59.2397085 108.234079,59.566098 L79.1359725,82.086979 C78.7008605,82.4133684 77.9394148,82.522165 77.3955249,82.3589703 Z"/>
          <polygon fill="#64D69B" fill-rule="nonzero" points="80.496 76.049 59.392 69.576 60.426 68.814 81.475 75.287"/>
          <polygon fill="#64D69B" fill-rule="nonzero" points="68.748 75.614 56.456 71.86 57.489 71.099 69.727 74.852"/>
          <path fill="#FFF" fill-rule="nonzero" d="M112.258864,93.0754281 L83.922203,84.371706 C83.3783132,84.2085112 83.2695353,83.8277233 83.7046471,83.5013337 L112.802754,60.9804528 C113.237866,60.6540632 113.999312,60.5452667 114.543201,60.7084615 L142.879862,69.4121836 C143.423753,69.5753784 143.532531,69.9561663 143.097418,70.2825559 L113.999312,92.8034368 C113.5642,93.1298264 112.802754,93.2386229 112.258864,93.0754281 Z"/>
          <path fill="#64D69B" fill-rule="nonzero" d="M124.333219,83.7733251 L95.9965577,75.0696029 C95.4526679,74.9064081 95.3438898,74.5256204 95.7790017,74.1992308 L112.748365,60.9804528 C113.183477,60.6540632 113.944923,60.5452667 114.488812,60.7084615 L142.825473,69.4121836 C143.369363,69.5753784 143.478141,69.9561663 143.04303,70.2825559 L126.073666,83.5013337 C125.692943,83.8277233 124.877108,83.9365198 124.333219,83.7733251 Z M89.5242685,73.002469 L61.1876076,64.2987469 C60.6437178,64.1355522 60.5349397,63.7547643 60.9700517,63.4283747 L77.9394148,50.2095967 C78.3745267,49.8832072 79.1359725,49.7744106 79.6798623,49.9376054 L108.016523,58.6413275 C108.560413,58.8045223 108.669191,59.1853102 108.234079,59.5116998 L91.264716,72.7304777 C90.8839931,73.002469 90.0681584,73.1656638 89.5242685,73.002469 Z M54.3889845,62.2860112 L26.0523236,53.582289 C25.5084337,53.4190943 25.3996557,53.0383064 25.8347677,52.7119169 L42.8041308,39.4931389 C43.2392427,39.1667494 44.0006885,39.0579528 44.5445783,39.2211476 L72.8812393,47.9248697 C73.4251291,48.0880645 73.5339071,48.4688524 73.0987952,48.795242 L56.1294321,62.0140198 C55.6943201,62.3404094 54.9328744,62.449206 54.3889845,62.2860112 Z"/>
          <path fill="#FFF" fill-rule="nonzero" d="M150.875043,77.6263214 L146.088813,76.1575682 C145.70809,76.0487717 145.599312,75.7223821 145.925645,75.504789 L149.678485,72.5672829 C150.00482,72.3496898 150.548709,72.2408933 150.98382,72.3496898 L155.770051,73.8184429 C156.150774,73.9272395 156.259552,74.2536291 155.933219,74.4712221 L152.180379,77.4087283 C151.854044,77.6263214 151.255766,77.7351179 150.875043,77.6263214 Z M142.281584,84.2629094 L137.495353,82.7941563 C137.11463,82.6853598 137.005852,82.3589703 137.332185,82.1413771 L141.085026,79.2038709 C141.41136,78.9862779 141.955249,78.8774813 142.390362,78.9862779 L147.176592,80.455031 C147.557315,80.5638275 147.666093,80.8902171 147.339759,81.1078102 L143.586919,84.0453164 C143.260585,84.3173077 142.662307,84.371706 142.281584,84.2629094 Z M133.688124,90.8994975 L128.901894,89.4307445 C128.521171,89.3219478 128.412393,88.9955583 128.738727,88.7779653 L132.491566,85.840459 C132.8179,85.6228659 133.36179,85.5140695 133.796902,85.6228659 L138.583132,87.0916191 C138.963855,87.2004156 139.072633,87.5268052 138.7463,87.7443983 L134.99346,90.6819044 C134.667125,90.9538958 134.068847,91.0626923 133.688124,90.8994975 Z M125.094665,97.5904838 L120.308434,96.1217308 C119.927711,96.0129343 119.818933,95.6865447 120.145267,95.4689516 L123.898106,92.5314454 C124.224441,92.3138524 124.76833,92.2050559 125.203443,92.3138524 L129.989672,93.7826054 C130.370395,93.891402 130.479174,94.2177915 130.15284,94.4353846 L126.4,97.3728908 C126.073666,97.5904838 125.475388,97.6992804 125.094665,97.5904838 Z M116.501205,104.227072 L111.714974,102.758319 C111.334251,102.649522 111.225473,102.323133 111.551807,102.10554 L115.304647,99.1680335 C115.630981,98.9504405 116.174871,98.8416439 116.609983,98.9504405 L121.396213,100.419194 C121.776936,100.52799 121.885714,100.85438 121.559381,101.071973 L117.80654,104.009479 C117.480207,104.28147 116.881928,104.335868 116.501205,104.227072 Z"/>
          <polygon fill="#FFF" fill-rule="nonzero" points="178.559 82.413 157.456 75.886 158.49 75.124 179.538 81.597"/>
          <polygon fill="#FFF" fill-rule="nonzero" points="167.464 81.924 154.737 78.062 155.715 77.245 168.443 81.162"/>
          <polygon fill="#FFF" fill-rule="nonzero" points="169.911 89.05 148.863 82.577 149.841 81.815 170.945 88.288"/>
          <polygon fill="#FFF" fill-rule="nonzero" points="158.816 88.615 146.089 84.698 147.068 83.937 159.85 87.853"/>
          <polygon fill="#FFF" fill-rule="nonzero" points="161.536 95.578 140.433 89.105 141.466 88.288 162.514 94.816"/>
          <polygon fill="#FFF" fill-rule="nonzero" points="150.44 95.143 137.713 91.226 138.692 90.465 151.419 94.381"/>
          <polygon fill="#FFF" fill-rule="nonzero" points="152.942 102.214 131.839 95.741 132.818 94.98 153.921 101.453"/>
          <polygon fill="#FFF" fill-rule="nonzero" points="141.846 101.779 129.12 97.863 130.098 97.101 142.826 101.018"/>
          <polygon fill="#FFF" fill-rule="nonzero" points="144.349 108.851 123.3 102.378 124.279 101.616 145.382 108.089"/>
          <polygon fill="#FFF" fill-rule="nonzero" points="133.254 108.416 120.526 104.499 121.504 103.738 134.232 107.654"/>
          <polygon fill="#64D69B" fill-rule="nonzero" points="115.359 86.765 94.31 80.292 95.29 79.53 116.338 86.004"/>
          <polygon fill="#64D69B" fill-rule="nonzero" points="103.612 86.33 91.319 82.577 92.352 81.815 104.645 85.568"/>
          <polygon fill="#64D69B" fill-rule="nonzero" points="45.361 65.224 24.258 58.75 25.236 57.988 46.339 64.462"/>
          <polygon fill="#64D69B" fill-rule="nonzero" points="33.613 64.789 21.32 61.035 22.3 60.273 34.591 64.026"/>
        </g>
      </g>
    </g>
    <ellipse cx="159.686" cy="40.635" fill="#FFF" fill-rule="nonzero" rx="70.489" ry="36.338"/>
    <path fill="#82F9B8" fill-rule="nonzero" d="M159.686058,73.3288586 C121.940104,73.3288586 91.101549,58.0429466 89.3067125,38.8403598 C89.2523236,39.4387407 89.1979346,40.0371216 89.1979346,40.6355025 C89.1979346,60.7084615 120.743546,76.9735422 159.686058,76.9735422 C198.628571,76.9735422 230.174182,60.7084615 230.174182,40.6355025 C230.174182,40.0371216 230.119794,39.4387407 230.065404,38.8403598 C228.21618,58.0429466 197.432014,73.3288586 159.686058,73.3288586 Z" opacity=".29"/>
    <path fill="#DBFDEA" fill-rule="nonzero" d="M159.686058,71.2617245 C123.245439,71.2617245 93.0595525,57.0637779 89.3067125,38.5139703 C89.4154905,37.7523946 89.5786575,36.6644293 89.5786575,36.7188275 C91.6998279,55.7582196 122.375215,70.6633437 159.686058,70.6633437 C196.942513,70.6633437 227.6179,55.8126179 229.79346,36.7188275 C229.79346,36.610031 229.956626,37.643598 230.065404,38.4595719 C226.258176,57.0637779 196.126679,71.2617245 159.686058,71.2617245 Z"/>
    <path fill="#DBFDEA" fill-rule="nonzero" d="M159.686058,68.052227 C124.115663,68.052227 94.4736661,54.5070595 89.6330464,36.610031 C89.6874355,36.2292432 89.7962134,36.0116501 89.9049914,35.4676675 C93.8209983,53.582289 123.626162,67.5082445 159.686058,67.5082445 C195.745956,67.5082445 225.605508,53.582289 229.467125,35.4676675 C229.630293,35.8484553 229.684681,36.2292432 229.739071,36.6644293 C224.844062,54.5070595 195.256455,68.052227 159.686058,68.052227 Z"/>
    <path stroke="#DBFDEA" stroke-width=".895" d="M127.379002,70.5545472 C127.379002,70.5545472 130.098451,64.5163399 136.788296,53.5278908 C141.737693,55.43183 149.40654,56.030211 149.40654,56.030211 L152.017212,44.7697705 M157.891222,64.951526 C158.271945,65.2235174 174.697418,66.4202792 185.30327,62.8299938 L188.349053,70.7721402 M170.019965,44.0625931 L172.739415,57.5533623 M189.328055,38.3507755 L200.532185,53.0383064 C200.532185,53.0383064 207.439587,50.6447829 213.857487,45.0961601"/>
    <path stroke="#DBFDEA" stroke-width=".5" d="M190.415834,36.392438 L201.130464,50.3727915 C201.130464,50.3727915 206.786919,48.0880645 212.660929,43.3554156"/>
    <path fill="#DBFDEA" fill-rule="nonzero" d="M174.64303,45.4225497 C173.609638,45.4225497 172.739415,46.129727 172.739415,47.0000992 C172.739415,47.8704715 173.609638,48.5776489 174.64303,48.5776489 C175.67642,48.5776489 176.546644,47.8704715 176.546644,47.0000992 C176.546644,46.129727 175.67642,45.4225497 174.64303,45.4225497 Z M174.64303,47.4896836 C174.316695,47.4896836 173.990362,47.2720906 173.990362,46.945701 C173.990362,46.6193114 174.262307,46.4017183 174.64303,46.4017183 C174.969363,46.4017183 175.295697,46.6193114 175.295697,46.945701 C175.295697,47.2720906 174.969363,47.4896836 174.64303,47.4896836 Z M204.61136,55.2686352 C204.61136,55.7582196 204.176247,56.1390075 203.632358,56.1934057 C203.088469,56.247804 202.653356,55.8670162 202.653356,55.3774318 C202.653356,54.8878474 203.088469,54.5070595 203.632358,54.4526613 C204.176247,54.4526613 204.61136,54.8334491 204.61136,55.2686352 Z"/>
    <polygon fill="#DBFDEA" fill-rule="nonzero" points="91.917 30.572 92.733 29.321 100.729 27.634 100.946 28.722"/>
    <polygon fill="#DBFDEA" fill-rule="nonzero" points="94.093 27.362 94.582 26.709 101.327 25.296 101.436 25.784"/>
    <path stroke="#DBFDEA" stroke-width=".895" d="M127.379002,35.0324813 L111.714974,48.3056576 C111.714974,48.3056576 103.067126,44.9329653 100.891566,36.9364206"/>
    <path stroke="#DBFDEA" stroke-width=".5" d="M126.835111,31.7141873 L111.116695,44.9873636 C111.116695,44.9873636 105.188296,41.7778659 103.284682,35.8484553"/>
    <polygon fill="#DBFDEA" fill-rule="nonzero" points="224.573 26.437 197.16 24.697 197.214 23.609 223.538 25.296"/>
    <polygon fill="#DBFDEA" fill-rule="nonzero" points="226.041 28.396 198.247 26.655 198.302 26.111 225.66 27.852"/>
    <g fill-rule="nonzero" transform="translate(235.505 50.59)">
      <ellipse cx="25.399" cy="14.579" fill="#FFF" rx="25.399" ry="13.11"/>
      <path fill="#82F9B8" d="M25.3996557,26.3287593 C11.8024096,26.3287593 0.707056799,20.8345347 0.0543889845,13.8715571 C0.0543889845,14.0891501 0,14.3067432 0,14.5243362 C0,21.7593052 11.3672978,27.6343176 25.3996557,27.6343176 C39.4320138,27.6343176 50.7993115,21.7593052 50.7993115,14.5243362 C50.7993115,14.3067432 50.7993115,14.0891501 50.7449226,13.8715571 C50.0922547,20.8345347 38.9969019,26.3287593 25.3996557,26.3287593 Z" opacity=".29"/>
      <path fill="#DBFDEA" d="M14.032358,25.4583871 L13.4340792,25.1863958 C13.4340792,25.1863958 14.4674699,22.956067 16.8605852,18.9849938 L17.0237522,18.7674008 L17.295697,18.8761973 C18.7098106,19.4201799 20.722203,19.637773 21.4836489,19.7465695 L22.3538727,15.9386911 L23.0065404,16.1018859 L22.0275388,20.4537469 L21.7555938,20.4537469 C21.6468159,20.4537469 19.1993115,20.2361538 17.4044751,19.637773 C15.0113598,23.3368549 14.032358,25.4583871 14.032358,25.4583871 Z M35.4072289,25.5127854 L34.4282272,22.956067 C30.6209983,24.1528287 24.8557659,23.772041 24.583821,23.5544478 L24.746988,23.2824566 L24.8557659,22.956067 C25.3452668,23.0648636 30.9473321,23.3912531 34.5370051,22.1944913 L34.8089501,22.0856948 L36.0055078,25.240794 L35.4072289,25.5127854 Z"/>
      <rect width="1.215" height="4.95" x="29.229" y="15.662" fill="#DBFDEA" transform="rotate(-11.555 29.837 18.137)"/>
      <path fill="#DBFDEA" d="M40.0302926,19.4201799 L35.8423408,13.9259553 L36.3862307,13.5451675 L40.3022375,18.6586042 C40.9549053,18.3866129 42.9129088,17.5162407 44.7621342,15.9386911 L45.1972462,16.4282755 C42.8585198,18.4410112 40.4110155,19.3113834 40.3022375,19.3657817 L40.0302926,19.4201799 Z"/>
      <circle cx="30.458" cy="16.591" r="1.215" fill="#DBFDEA"/>
      <path fill="#DBFDEA" d="M41.8251291,20.3993486 C41.8251291,20.7257382 41.5531841,20.9977295 41.1724612,20.9977295 C40.8461273,20.9977295 40.5197935,20.7801364 40.5197935,20.4537469 C40.5197935,20.1273574 40.7917384,19.8553659 41.1724612,19.8553659 C41.4987952,19.8553659 41.8251291,20.072959 41.8251291,20.3993486 Z"/>
      <polygon fill="#DBFDEA" points=".925 11.098 1.36 10.336 4.134 9.738 4.243 10.39"/>
      <path fill="#DBFDEA" d="M8.15834767,17.6794355 L7.99518072,17.6250372 C7.88640275,17.5706389 4.73184166,16.319479 3.91600688,13.3275744 L4.56867469,13.1643796 C5.16695353,15.4491067 7.45129088,16.6458684 8.10395869,16.972258 L13.5972462,12.3484057 L14.032358,12.83799 L8.15834767,17.6794355 Z"/>
      <polygon fill="#DBFDEA" points="48.896 9.574 38.889 8.976 38.942 8.323 48.297 8.867"/>
      <g transform="translate(11.422)">
        <path fill="#5317DA" d="M27.901549,9.4108995 C27.901549,13.1099813 21.6468159,16.1562842 13.977969,16.1562842 C6.3091222,16.1562842 0.0543889845,13.1643796 0.0543889845,9.4108995 C0.0543889845,5.65741936 6.3091222,0.054398263 13.977969,0.054398263 C21.6468159,0.054398263 27.901549,5.71181761 27.901549,9.4108995 Z"/>
        <path fill="#350DA3" d="M13.977969,15.5579033 C6.52667815,15.5579033 0.435111876,12.7291936 0.0543889845,9.13890819 C0.0543889845,9.24770472 0.0543889845,9.35650124 0.0543889845,9.46529777 C0.0543889845,13.1643796 6.3091222,16.2106824 13.977969,16.2106824 C21.6468159,16.2106824 27.901549,13.2187779 27.901549,9.46529777 C27.901549,9.35650124 27.901549,9.24770472 27.901549,9.13890819 C27.5208261,12.6747952 21.4292599,15.5579033 13.977969,15.5579033 Z"/>
      </g>
    </g>
    <g fill-rule="nonzero" transform="translate(213.75 5.44)">
      <polygon fill="#FFF" points="1.415 15.178 .49 14.905 1.033 .653 1.903 .925"/>
      <polygon fill="#64D69B" points="1.415 15.178 2.285 14.524 2.285 .598 1.903 .925"/>
    </g>
    <g fill-rule="nonzero" transform="translate(207.223 8.703)">
      <polygon fill="#FFF" points="1.305 8.541 .435 8.268 .925 .38 1.795 .653"/>
      <polygon fill="#64D69B" points="1.305 8.541 2.176 7.888 2.176 .38 1.795 .653"/>
    </g>
    <path fill="#64D69B" fill-rule="nonzero" d="M77.504303,31.2246029 L23.2784854,14.5787345 C22.7345956,14.4155397 22.6258176,14.0347518 23.0609294,13.7083623 L40.0302926,0.489584368 C40.4654044,0.16319479 41.2268503,0.054398263 41.7707401,0.217593052 L95.9965577,16.8634615 C96.5404475,17.0266563 96.6492254,17.4074441 96.2141136,17.7338337 L79.2447504,30.9526117 C78.8096386,31.2790012 78.0481928,31.3877977 77.504303,31.2246029 Z M54.8240963,51.7871464 L0.598278829,35.1412779 C0.0543889845,34.9780831 -0.0543889845,34.5972952 0.380722892,34.2709057 L17.3500861,21.0521278 C17.7851979,20.7257382 18.5466437,20.6169417 19.0905335,20.7801364 L73.3163511,37.426005 C73.8602409,37.5891998 73.9690189,37.9699876 73.5339071,38.2963771 L56.5645439,51.5151551 C56.1294321,51.7871464 55.3679862,51.9503412 54.8240963,51.7871464 Z" transform="translate(164.799 153.947)"/>
    <path fill="#97FFC1" fill-rule="nonzero" d="M34.2106713,10.4988648 L5.54767642,1.4687531 C5.33012048,1.41435484 5.2757315,1.14236352 5.49328744,0.979168734 L6.41790017,0.326389578 C6.52667815,0.217593052 6.6898451,0.217593052 6.85301205,0.271991316 L35.461618,9.24770472 C35.6791739,9.30210297 35.7335628,9.57409429 35.5160069,9.73728908 L34.6457831,10.4444665 C34.4826162,10.553263 34.3194492,10.553263 34.2106713,10.4988648 Z M14.8481928,9.95488214 L0.489500861,5.49422457 C0.271944922,5.4398263 0.217555938,5.16783499 0.435111876,5.0046402 L1.35972462,4.35186104 C1.46850258,4.24306451 1.63166954,4.24306451 1.79483649,4.29746278 L16.1535284,8.75812035 C16.3710843,8.81251861 16.4254733,9.08450992 16.2079174,9.24770472 L15.3376936,9.95488214 C15.1201377,10.0092804 14.9569707,10.0092804 14.8481928,9.95488214 Z M13.869191,6.96297767 L2.99139415,3.59028536 C2.7738382,3.53588709 2.71944922,3.26389578 2.93700517,3.100701 L3.8616179,2.44792183 C3.97039587,2.33912531 4.13356282,2.33912531 4.29672977,2.39352357 L15.1201377,5.71181761 C15.3376936,5.76621588 15.3920826,6.03820719 15.1745267,6.20140198 L14.304303,6.9085794 C14.1955249,6.96297767 14.032358,6.96297767 13.869191,6.96297767 Z M19.3080896,8.59492555 L15.6096386,7.50696029 C15.3920826,7.45256204 15.3376936,7.18057072 15.5552496,7.01737593 L16.4798623,6.36459678 C16.5886402,6.25580025 16.7518072,6.25580025 16.9149742,6.31019851 L20.6134252,7.39816377 C20.8309811,7.45256204 20.88537,7.72455335 20.6678141,7.88774813 L19.7975903,8.59492555 C19.5800344,8.59492555 19.4712564,8.64932382 19.3080896,8.59492555 Z M25.9979346,10.6620596 L21.102926,9.19330645 C20.88537,9.13890819 20.8309811,8.86691688 21.048537,8.70372208 L21.9731497,8.05094293 C22.0819277,7.9421464 22.2450947,7.9421464 22.4082616,7.99654466 L27.3032702,9.46529777 C27.5208261,9.51969603 27.5752152,9.79168734 27.3576592,9.95488214 L26.4874355,10.6620596 C26.3242685,10.6620596 26.1611016,10.6620596 25.9979346,10.6620596 Z" transform="translate(201.24 157.754)"/>
    <path fill="#97FFC1" fill-rule="nonzero" d="M36.4406196,10.33567 L7.77762478,1.30555831 C7.56006885,1.25116004 7.50567986,0.979168734 7.7232358,0.815973946 L8.64784854,0.16319479 C8.75662651,0.054398263 8.91979346,0.054398263 9.08296041,0.108796526 L37.6915663,9.08450992 C37.9091222,9.13890819 37.9635111,9.4108995 37.7459552,9.57409429 L36.8757315,10.2812717 C36.7125645,10.33567 36.5493976,10.33567 36.4406196,10.33567 Z M34.9721171,15.3947085 L2.71944922,5.27663152 C2.50189328,5.22223325 2.4475043,4.95024193 2.66506024,4.78704715 L3.58967298,4.13426799 C3.69845095,4.02547146 3.8616179,4.02547146 4.02478485,4.07986973 L36.2774527,14.1435484 C36.4950086,14.1979466 36.5493976,14.469938 36.3318416,14.6331328 L35.461618,15.3403102 C35.2440619,15.3947085 35.080895,15.4491067 34.9721171,15.3947085 Z M16.0991395,6.74538462 L5.22134252,3.37269231 C5.00378658,3.31829405 4.94939759,3.04630273 5.16695353,2.88310794 L6.09156626,2.23032879 C6.20034423,2.12153226 6.36351118,2.12153226 6.52667815,2.17593052 L17.3500861,5.49422457 C17.567642,5.54862283 17.622031,5.82061414 17.4044751,5.98380894 L16.5342513,6.69098636 C16.3710843,6.74538462 16.2079174,6.74538462 16.0991395,6.74538462 Z M21.5380379,8.37733251 L17.8395869,7.28936725 C17.622031,7.23496898 17.567642,6.96297767 17.7851979,6.79978287 L18.7098106,6.14700372 C18.8185887,6.03820719 18.9817556,6.03820719 19.1449226,6.09260546 L22.8433735,7.18057072 C23.0609294,7.23496898 23.1153184,7.50696029 22.8977625,7.67015509 L22.0275388,8.37733251 C21.8099827,8.37733251 21.6468159,8.43173077 21.5380379,8.37733251 Z M28.2278829,10.4444665 L23.3328744,8.97571341 C23.1153184,8.92131514 23.0609294,8.64932382 23.2784854,8.48612903 L24.2030981,7.83334988 C24.311876,7.72455335 24.475043,7.72455335 24.63821,7.77895162 L29.5332185,9.24770472 C29.7507746,9.30210297 29.8051635,9.57409429 29.5876076,9.73728908 L28.7173838,10.4444665 C28.4998279,10.4444665 28.3910499,10.4988648 28.2278829,10.4444665 Z M4.07917384,8.43173077 L0.380722892,7.34376551 C0.163166954,7.28936725 0.108777969,7.01737593 0.326333907,6.85418114 L1.25094665,6.20140198 C1.35972462,6.09260546 1.52289157,6.09260546 1.68605852,6.14700372 L5.38450947,7.23496898 C5.6020654,7.28936725 5.65645439,7.56135856 5.43889845,7.72455335 L4.56867469,8.43173077 C4.40550774,8.43173077 4.24234079,8.48612903 4.07917384,8.43173077 Z M10.7690189,10.4444665 L5.87401033,8.97571341 C5.65645439,8.92131514 5.6020654,8.64932382 5.81962134,8.48612903 L6.74423408,7.83334988 C6.85301205,7.72455335 7.016179,7.72455335 7.17934596,7.77895162 L12.0743546,9.24770472 C12.2919104,9.30210297 12.3462995,9.57409429 12.1287436,9.73728908 L11.2585198,10.4444665 C11.0953528,10.4988648 10.9321859,10.4988648 10.7690189,10.4444665 Z" transform="translate(176.22 178.97)"/>
    <path fill="#FFF" fill-rule="nonzero" d="M55.4223753,16.1018859 L11.6392427,2.33912531 C11.3129088,2.23032879 11.2585198,1.79514268 11.5304647,1.6319479 L12.9445783,0.598380894 C13.1077453,0.435186104 13.3796902,0.435186104 13.5972462,0.489584368 L57.3259896,14.2523449 C57.6523236,14.3611414 57.7067125,14.7419293 57.4347677,14.9595223 L56.075043,15.9930894 C55.8574871,16.1562842 55.6399312,16.2106824 55.4223753,16.1018859 Z M53.1380379,23.8808374 L3.8616179,8.48612903 C3.53528399,8.37733251 3.48089501,7.9421464 3.75283993,7.77895162 L5.16695353,6.74538462 C5.33012048,6.58218983 5.6020654,6.58218983 5.81962134,6.63658809 L55.0960413,22.0312965 C55.4223753,22.1400931 55.4767642,22.5208809 55.2048192,22.738474 L53.8450947,23.772041 C53.6275388,23.8808374 53.3555938,23.9352357 53.1380379,23.8808374 Z M24.3662651,10.6620596 L7.77762478,5.54862283 C7.45129088,5.4398263 7.39690189,5.0046402 7.66884681,4.84144541 L9.08296041,3.80787842 C9.24612737,3.64468362 9.51807229,3.64468362 9.73562822,3.69908189 L26.2698795,8.75812035 C26.5962134,8.86691688 26.6506024,9.24770472 26.3786575,9.46529777 L25.0189328,10.4988648 C24.8013769,10.6620596 24.583821,10.7164578 24.3662651,10.6620596 Z M32.6333907,13.1643796 L26.9769363,11.4780335 C26.6506024,11.369237 26.5962134,10.9340509 26.8681584,10.7708561 L28.282272,9.73728908 C28.4454388,9.57409429 28.7173838,9.57409429 28.9349397,9.62849256 L34.5913942,11.3148387 C34.917728,11.4236352 34.9721171,11.8044231 34.7001721,12.0220161 L33.3404475,13.0555831 C33.0685026,13.2187779 32.8509466,13.2731761 32.6333907,13.1643796 Z M42.8585198,16.319479 L35.3528399,14.0891501 C35.026506,13.9803536 34.9721171,13.5451675 35.2440619,13.3819727 L36.6581755,12.3484057 C36.8213425,12.185211 37.0932875,12.185211 37.3108434,12.2396092 L44.7621342,14.469938 C45.0884681,14.5787345 45.1428571,14.9595223 44.8709122,15.1771154 L43.5111876,16.2106824 C43.3480206,16.319479 43.0760757,16.3738771 42.8585198,16.319479 Z M5.98278829,13.2187779 L0.326333907,11.5324318 C2.5049407e-15,11.4236352 -0.0543889845,10.9884491 0.217555938,10.8252543 L1.63166954,9.79168734 C1.79483649,9.62849256 2.06678141,9.62849256 2.28433735,9.68289081 L7.94079174,11.369237 C8.26712564,11.4780335 8.32151462,11.8588213 8.0495697,12.0764144 L6.6898451,13.1099813 C6.47228915,13.2731761 6.20034423,13.3275744 5.98278829,13.2187779 Z M16.2623064,16.3738771 L8.75662651,14.1435484 C8.4302926,14.0347518 8.37590362,13.5995657 8.64784854,13.4363709 L10.0619621,12.402804 C10.2251291,12.2396092 10.497074,12.2396092 10.71463,12.2940075 L18.1659208,14.5243362 C18.4922547,14.6331328 18.5466437,15.0139206 18.2746988,15.2315137 L16.9149742,16.2650807 C16.6974182,16.3738771 16.4798623,16.4282755 16.2623064,16.3738771 Z" opacity=".44" transform="translate(101.164 143.068)"/>
    <path fill="#5317DA" fill-rule="nonzero" d="M55.4223753,16.1018859 L11.6392427,2.33912531 C11.3129088,2.23032879 11.2585198,1.79514268 11.5304647,1.6319479 L12.9445783,0.598380894 C13.1077453,0.435186104 13.3796902,0.435186104 13.5972462,0.489584368 L57.3259896,14.2523449 C57.6523236,14.3611414 57.7067125,14.7419293 57.4347677,14.9595223 L56.075043,15.9930894 C55.8574871,16.1562842 55.6399312,16.2106824 55.4223753,16.1018859 Z M53.1380379,23.8808374 L3.8616179,8.48612903 C3.53528399,8.37733251 3.48089501,7.9421464 3.75283993,7.77895162 L5.16695353,6.74538462 C5.33012048,6.58218983 5.6020654,6.58218983 5.81962134,6.63658809 L55.0960413,22.0312965 C55.4223753,22.1400931 55.4767642,22.5208809 55.2048192,22.738474 L53.8450947,23.772041 C53.6275388,23.8808374 53.3555938,23.9352357 53.1380379,23.8808374 Z M24.3662651,10.6620596 L7.77762478,5.54862283 C7.45129088,5.4398263 7.39690189,5.0046402 7.66884681,4.84144541 L9.08296041,3.80787842 C9.24612737,3.64468362 9.51807229,3.64468362 9.73562822,3.69908189 L26.2698795,8.75812035 C26.5962134,8.86691688 26.6506024,9.24770472 26.3786575,9.46529777 L25.0189328,10.4988648 C24.8013769,10.6620596 24.583821,10.7164578 24.3662651,10.6620596 Z M32.6333907,13.1643796 L26.9769363,11.4780335 C26.6506024,11.369237 26.5962134,10.9340509 26.8681584,10.7708561 L28.282272,9.73728908 C28.4454388,9.57409429 28.7173838,9.57409429 28.9349397,9.62849256 L34.5913942,11.3148387 C34.917728,11.4236352 34.9721171,11.8044231 34.7001721,12.0220161 L33.3404475,13.0555831 C33.0685026,13.2187779 32.8509466,13.2731761 32.6333907,13.1643796 Z M42.8585198,16.319479 L35.3528399,14.0891501 C35.026506,13.9803536 34.9721171,13.5451675 35.2440619,13.3819727 L36.6581755,12.3484057 C36.8213425,12.185211 37.0932875,12.185211 37.3108434,12.2396092 L44.7621342,14.469938 C45.0884681,14.5787345 45.1428571,14.9595223 44.8709122,15.1771154 L43.5111876,16.2106824 C43.3480206,16.319479 43.0760757,16.3738771 42.8585198,16.319479 Z M5.98278829,13.2187779 L0.326333907,11.5324318 C2.5049407e-15,11.4236352 -0.0543889845,10.9884491 0.217555938,10.8252543 L1.63166954,9.79168734 C1.79483649,9.62849256 2.06678141,9.62849256 2.28433735,9.68289081 L7.94079174,11.369237 C8.26712564,11.4780335 8.32151462,11.8588213 8.0495697,12.0764144 L6.6898451,13.1099813 C6.47228915,13.2731761 6.20034423,13.3275744 5.98278829,13.2187779 Z M16.2623064,16.3738771 L8.75662651,14.1435484 C8.4302926,14.0347518 8.37590362,13.5995657 8.64784854,13.4363709 L10.0619621,12.402804 C10.2251291,12.2396092 10.497074,12.2396092 10.71463,12.2940075 L18.1659208,14.5243362 C18.4922547,14.6331328 18.5466437,15.0139206 18.2746988,15.2315137 L16.9149742,16.2650807 C16.6974182,16.3738771 16.4798623,16.4282755 16.2623064,16.3738771 Z" transform="translate(101.164 143.068)"/>
    <path fill="#2A2ABA" fill-rule="nonzero" d="M169.693632,106.185409 L142.607917,115.596309 C141.955249,115.813902 141.193804,115.487512 140.976247,114.780335 L137.11463,103.683089 C136.897074,103.03031 137.223408,102.268735 137.930464,102.051141 L165.01618,92.640242 C165.668847,92.4226489 166.430293,92.7490385 166.647848,93.4562158 L170.509466,104.553462 C170.727023,105.206241 170.3463,105.967816 169.693632,106.185409 Z M179.266093,143.176229 L161.807229,131.589398 C161.426506,131.317407 161.317728,130.773424 161.589672,130.392637 L168.551462,119.893772 C168.823408,119.512984 169.367298,119.404187 169.748021,119.676179 L187.206885,131.263009 C187.587607,131.535 187.696386,132.078983 187.424441,132.45977 L180.462651,142.958636 C180.190706,143.339423 179.646816,143.448219 179.266093,143.176229 Z"/>
    <path fill="#5017FF" fill-rule="nonzero" d="M154.083993,152.315137 L141.737693,144.155397 C141.41136,143.937804 141.35697,143.502618 141.520138,143.176229 L146.415146,135.778064 C146.632702,135.451675 147.067815,135.397277 147.394148,135.560472 L159.740448,143.72021 C160.066781,143.937804 160.121171,144.37299 159.958003,144.69938 L155.062995,152.097543 C154.79105,152.478331 154.410328,152.53273 154.083993,152.315137 Z"/>
    <path fill="#FFF" fill-rule="nonzero" d="M196.507401,119.893772 L180.625818,118.37062 C179.97315,118.316222 179.538037,117.717841 179.592427,117.11946 L180.190706,111.081253 C180.245095,110.428474 180.843374,109.993288 181.441652,110.047686 L197.323236,111.570837 C197.975903,111.625236 198.411016,112.223617 198.356626,112.821998 L197.758348,118.860205 C197.703959,119.458586 197.160069,119.94817 196.507401,119.893772 Z M177.30809,161.182053 L173.446471,166.948269 C173.065748,167.492252 172.358692,167.601049 171.869191,167.274658 L166.811016,163.901966 C166.267125,163.521179 166.158348,162.814001 166.484681,162.324417 L170.3463,156.558201 C170.727023,156.014218 171.434079,155.905422 171.92358,156.231811 L176.981755,159.604503 C177.525645,159.930894 177.634423,160.638071 177.30809,161.182053 Z M122.973494,170.266563 L120.471601,169.287395 C120.090878,169.1242 119.927711,168.689014 120.090878,168.362624 L121.069879,165.860304 C121.233046,165.479516 121.668159,165.316321 121.994492,165.479516 L124.496386,166.458684 C124.877108,166.62188 125.040275,167.057066 124.877108,167.383456 L123.898106,169.885775 C123.73494,170.212165 123.299827,170.37536 122.973494,170.266563 Z M126.508778,103.3567 L118.296041,109.6125 C117.80654,109.993288 117.045095,109.884491 116.664372,109.394907 L113.836145,105.695825 C113.455422,105.206241 113.5642,104.444665 114.0537,104.063877 L122.266437,97.8080769 C122.755938,97.427289 123.517384,97.5360856 123.898106,98.02567 L126.726334,101.724752 C127.107057,102.268735 126.998279,102.975912 126.508778,103.3567 Z"/>
    <path fill="#5454FF" fill-rule="nonzero" d="M165.01618,99.2224318 L141.900861,107.218976 C141.520138,107.327773 141.085026,107.164578 140.976247,106.78379 L140.813081,106.348604 C140.704303,105.967816 140.867469,105.53263 141.248192,105.423834 L164.363511,97.427289 C164.744234,97.3184925 165.179346,97.4816873 165.288124,97.8624752 L165.451291,98.2976613 C165.614458,98.6784491 165.396902,99.1136352 165.01618,99.2224318 Z M147.230981,108.959721 L142.98864,110.428474 C142.607917,110.53727 142.172806,110.374076 142.064028,109.993288 L141.900861,109.558102 C141.792083,109.177314 141.955249,108.742128 142.335972,108.633331 L146.578314,107.164578 C146.959037,107.055782 147.394148,107.218976 147.502926,107.599764 L147.666093,108.03495 C147.82926,108.415738 147.611704,108.796526 147.230981,108.959721 Z M150.929432,107.654163 L149.841652,108.03495 C149.460929,108.143747 149.025818,107.980552 148.917039,107.599764 L148.753873,107.164578 C148.645095,106.78379 148.808261,106.348604 149.188984,106.239808 L150.276764,105.85902 C150.657487,105.750223 151.092599,105.913418 151.201377,106.294206 L151.364544,106.729392 C151.527711,107.11018 151.310155,107.545366 150.929432,107.654163 Z M157.238554,105.478232 L153.485714,106.78379 C153.104991,106.892587 152.66988,106.729392 152.561102,106.348604 L152.397935,105.913418 C152.289157,105.53263 152.452323,105.097444 152.833046,104.988648 L156.585887,103.683089 C156.96661,103.574293 157.401721,103.737488 157.510499,104.118275 L157.673666,104.553462 C157.836833,104.934249 157.619277,105.369436 157.238554,105.478232 Z M180.843374,133.710931 L168.333907,125.605589 C168.007573,125.387997 167.898795,124.95281 168.116351,124.572023 L168.388296,124.191234 C168.605852,123.864845 169.040963,123.756049 169.421686,123.973641 L181.931153,132.078983 C182.257487,132.296576 182.366265,132.731761 182.148709,133.11255 L181.876764,133.493337 C181.659208,133.819727 181.169707,133.928524 180.843374,133.710931 Z M168.932185,130.011848 L166.539071,128.434299 C166.212737,128.216706 166.103959,127.78152 166.321515,127.400732 L166.59346,127.019945 C166.811016,126.693554 167.246127,126.584758 167.62685,126.802351 L170.019965,128.3799 C170.3463,128.597494 170.455078,129.03268 170.237522,129.413467 L169.965577,129.794256 C169.748021,130.120645 169.25852,130.229441 168.932185,130.011848 Z M171.869191,131.861389 L171.107746,131.371805 C170.781411,131.154213 170.672633,130.719026 170.890189,130.338239 L171.162134,129.95745 C171.37969,129.631061 171.814802,129.522265 172.195525,129.739857 L172.95697,130.229441 C173.283305,130.447035 173.392083,130.882221 173.174527,131.263009 L172.902582,131.643796 C172.685026,132.024585 172.195525,132.078983 171.869191,131.861389 Z"/>
    <g fill-rule="nonzero" transform="translate(221.363 133.275)">
      <g transform="translate(34.265 9.791)">
        <polygon fill="#FFF" points="2.72 13.981 .055 14.035 .055 .762 2.665 .762"/>
        <path fill="#B6F2CE" d="M2.66506024,0.761575682 C2.66506024,1.14236352 2.06678141,1.4687531 1.35972462,1.4687531 C0.652667815,1.4687531 0.0543889845,1.19676179 0.0543889845,0.815973946 C0.0543889845,0.435186104 0.652667815,0.108796526 1.35972462,0.108796526 C2.06678141,0.108796526 2.66506024,0.380787842 2.66506024,0.761575682 Z"/>
        <path fill="#FFF" d="M2.66506024,14.0347518 C2.66506024,14.4155397 2.06678141,14.7419293 1.35972462,14.7419293 C0.652667815,14.7419293 0.0543889845,14.469938 0.0543889845,14.0891501 C0.0543889845,13.7083623 0.652667815,13.3819727 1.35972462,13.3819727 C2.12117039,13.3819727 2.66506024,13.653964 2.66506024,14.0347518 Z"/>
      </g>
      <g transform="translate(51.125 14.688)">
        <polygon fill="#FFF" points="3.1 14.306 .435 14.306 .435 1.088 3.046 1.033"/>
        <path fill="#B6F2CE" d="M3.04578314,1.08796526 C3.04578314,1.4687531 2.4475043,1.79514268 1.74044751,1.79514268 C1.03339071,1.79514268 0.435111876,1.52315137 0.435111876,1.14236352 C0.435111876,0.761575682 1.03339071,0.435186104 1.74044751,0.435186104 C2.4475043,0.435186104 3.04578314,0.70717742 3.04578314,1.08796526 Z"/>
        <path fill="#FFF" d="M3.04578314,14.3611414 C3.04578314,14.7419293 2.4475043,15.0683189 1.74044751,15.0683189 C1.03339071,15.0683189 0.435111876,14.7963275 0.435111876,14.4155397 C0.435111876,14.0347518 1.03339071,13.7083623 1.74044751,13.7083623 C2.50189328,13.653964 3.04578314,13.9803536 3.04578314,14.3611414 Z"/>
      </g>
      <polygon fill="#FFF" points="51.67 20.671 36.713 16.319 36.713 14.143 51.67 18.496"/>
      <polygon fill="#FFF" points="51.67 24.751 36.713 20.346 36.713 18.169 51.67 22.521"/>
      <polygon fill="#B6F2CE" points="37.854 16.646 36.984 16.374 36.931 14.198 37.854 14.47"/>
      <polygon fill="#B6F2CE" points="37.854 20.671 36.984 20.399 36.984 18.223 37.854 18.496"/>
      <g transform="translate(16.861 4.896)">
        <polygon fill="#FFF" points="3.046 13.981 .38 13.981 .38 .762 2.991 .707"/>
        <path fill="#B6F2CE" d="M2.99139415,0.761575682 C2.99139415,1.14236352 2.39311531,1.4687531 1.68605852,1.4687531 C0.979001721,1.4687531 0.380722892,1.19676179 0.380722892,0.815973946 C0.380722892,0.435186104 0.979001721,0.108796526 1.68605852,0.108796526 C2.39311531,0.054398263 2.99139415,0.380787842 2.99139415,0.761575682 Z"/>
        <path fill="#FFF" d="M2.99139415,13.9803536 C2.99139415,14.3611414 2.39311531,14.687531 1.68605852,14.687531 C0.979001721,14.687531 0.380722892,14.4155397 0.380722892,14.0347518 C0.380722892,13.653964 0.979001721,13.3275744 1.68605852,13.3275744 C2.39311531,13.3275744 2.99139415,13.653964 2.99139415,13.9803536 Z"/>
      </g>
      <polygon fill="#FFF" points="34.591 15.776 19.635 11.423 19.635 9.248 34.591 13.6"/>
      <polygon fill="#FFF" points="34.591 19.801 19.635 15.449 19.635 13.273 34.591 17.626"/>
      <polygon fill="#B6F2CE" points="20.777 11.75 19.852 11.478 19.852 9.303 20.777 9.574"/>
      <polygon fill="#B6F2CE" points="20.777 15.776 19.852 15.503 19.852 13.328 20.777 13.6"/>
      <polygon fill="#FFF" points="2.665 13.981 .055 14.035 0 .816 2.665 .762"/>
      <path fill="#B6F2CE" d="M2.66506024,0.761575682 C2.66506024,1.14236352 2.06678141,1.4687531 1.35972462,1.4687531 C0.652667815,1.4687531 0.0543889845,1.19676179 0.0543889845,0.815973946 C0.0543889845,0.435186104 0.652667815,0.108796526 1.35972462,0.108796526 C2.06678141,0.108796526 2.66506024,0.380787842 2.66506024,0.761575682 Z"/>
      <path fill="#FFF" d="M2.66506024,14.0347518 C2.66506024,14.4155397 2.06678141,14.7419293 1.35972462,14.7419293 C0.652667815,14.7419293 0.0543889845,14.469938 0.0543889845,14.0891501 C0.0543889845,13.7083623 0.652667815,13.3819727 1.35972462,13.3819727 C2.06678141,13.3819727 2.66506024,13.653964 2.66506024,14.0347518 Z"/>
      <polygon fill="#FFF" points="17.404 10.934 2.448 6.583 2.448 4.352 17.404 8.703"/>
      <polygon fill="#FFF" points="17.404 14.959 2.448 10.608 2.448 8.378 17.404 12.729"/>
      <polygon fill="#B6F2CE" points="3.59 6.908 2.665 6.636 2.665 4.406 3.59 4.678"/>
      <polygon fill="#B6F2CE" points="3.59 10.934 2.665 10.663 2.665 8.432 3.59 8.703"/>
    </g>
    <path fill="#24BC7E" fill-rule="nonzero" d="M184.161102,269.162605 L32.9597247,223.359268 C30.7841652,222.706489 29.6963855,220.312965 30.5666093,218.245831 L30.5666093,218.245831 C31.328055,216.505087 33.2860585,215.580317 35.135284,216.124299 L186.336661,261.927637 C188.51222,262.580415 189.6,264.973939 188.729776,267.041074 L188.729776,267.041074 C187.96833,268.781818 186.010328,269.706588 184.161102,269.162605 Z"/>
    <rect width="6.581" height="1.795" x="27.194" y="215.962" fill="#24BC7E" fill-rule="nonzero"/>
    <rect width="6.472" height="2.557" x="178.613" y="266.715" fill="#24BC7E" fill-rule="nonzero"/>
    <path fill="#FFF" fill-rule="nonzero" d="M177.471256,269.162605 L26.2698795,223.359268 C24.0943201,222.706489 23.0065404,220.312965 23.8767642,218.245831 L23.8767642,218.245831 C24.63821,216.505087 26.5962134,215.580317 28.4454388,216.124299 L179.646816,261.927637 C181.822375,262.580415 182.910155,264.973939 182.039931,267.041074 L182.039931,267.041074 C181.278485,268.781818 179.320482,269.706588 177.471256,269.162605 Z"/>
    <path fill="#B6F2CE" fill-rule="nonzero" d="M159.849226,255.889429 L159.849226,255.889429 L159.522892,255.835031 C157.891222,255.780632 156.531497,257.303784 156.150774,258.663741 C155.770051,260.023697 155.933219,261.818841 156.857831,262.906805 L155.824441,262.580415 C155.878829,262.580415 155.933219,262.634813 155.933219,262.634813 L163.275732,264.865143 C162.29673,263.777178 162.187952,262.036433 162.568675,260.622078 C162.949397,259.207723 164.309122,257.684572 165.940792,257.793369 L166.267125,257.902165 L166.267125,257.847767 L159.849226,255.889429 Z"/>
    <path stroke="#DBFDEA" stroke-width=".5" d="M167.953184,44.660974 L170.29191,57.8797518"/>
    <path fill="#FFF" fill-rule="nonzero" d="M24.8557659,222.543294 L17.8395869,216.940273 C17.4044751,216.613883 17.6764199,215.961104 18.1659208,215.961104 L27.2488813,215.961104 L24.8557659,222.543294 Z"/>
    <path stroke="#55D196" stroke-width=".5" d="M24.8013769,214.873139 C23.1697074,214.818741 21.8099827,216.341893 21.4292599,217.701848 C21.048537,219.061805 21.2117039,220.856948 22.1363167,221.944913"/>
    <path stroke="#DBFDEA" stroke-width=".5" d="M157.891222,62.7755956 C158.271945,63.0475869 176.22031,63.917959 186.826162,60.3276736 L190.905335,70.9897333 M124.82272,69.6841749 C124.82272,69.6841749 128.412393,61.7964268 135.102238,50.8079777 C140.051635,52.7119169 147.720482,53.3102977 147.720482,53.3102977 L150.331153,42.0498574"/>
    <g fill-rule="nonzero" transform="translate(108.234 9.248)">
      <polygon fill="#FFF" points="1.033 8.595 1.903 8.323 1.415 .435 .544 .707"/>
      <polygon fill="#64D69B" points="1.033 8.595 .163 7.888 .163 .435 .544 .707"/>
    </g>
    <path fill="#5317DA" fill-rule="nonzero" d="M198.302238,26.4375559 C198.302238,36.7732258 181.00654,45.0961601 159.686058,45.0961601 C138.365577,45.0961601 121.069879,36.7188275 121.069879,26.4375559 C121.069879,16.1562842 138.365577,0.435186104 159.686058,0.435186104 C181.00654,0.380787842 198.302238,16.1018859 198.302238,26.4375559 Z"/>
    <path fill="#6635ED" fill-rule="nonzero" d="M123.245439,26.6007506 C123.027883,21.6505087 132.328399,2.44792183 160.284337,1.25116004 C147.774871,10.1724752 141.35697,23.2824566 140.704303,39.3843424 C132.382788,36.8820223 123.245439,30.8438152 123.245439,26.6007506 Z"/>
    <path fill="#6635ED" fill-rule="nonzero" d="M161.045783,1.19676179 C149.460929,10.9340509 145.055422,24.207227 143.695697,40.0915198 C144.130809,40.2547146 144.837866,40.4179094 145.544922,40.5811042 C146.469536,40.7986973 147.339759,40.1459181 147.394148,39.2211476 C148.31876,22.956067 153.594492,8.48612903 161.045783,1.19676179 Z"/>
    <path fill="#350DA3" fill-rule="nonzero" d="M159.686058,43.3554156 C138.963855,43.3554156 122.048882,35.4676675 121.124269,25.5671836 C121.124269,25.8391749 121.069879,26.1655645 121.069879,26.4375559 C121.069879,36.7732258 138.365577,45.0961601 159.686058,45.0961601 C181.00654,45.0961601 198.302238,36.7188275 198.302238,26.4375559 C198.302238,26.1655645 198.302238,25.8391749 198.247848,25.5671836 C197.160069,31.5509925 191.775559,35.1956761 189.708778,36.4468362 C182.63821,40.6355025 171.814802,43.3554156 159.686058,43.3554156 Z"/>
    <path fill="#DBFDEA" fill-rule="nonzero" d="M127.705335,41.1794851 C127.43339,41.560273 126.835111,41.6146713 126.4,41.3426799 C125.964889,41.0706886 125.801721,40.526706 126.073666,40.1459181 C126.345612,39.7651303 126.943889,39.710732 127.379002,39.9827233 C127.868503,40.2547146 127.97728,40.7986973 127.705335,41.1794851 Z M125.420998,63.3195782 C125.257831,63.7547643 124.713942,63.9723574 124.170051,63.8091626 C123.68055,63.6459678 123.354217,63.1563834 123.517384,62.7211973 C123.68055,62.2860112 124.224441,62.0684181 124.76833,62.2316129 C125.31222,62.3404094 125.584166,62.8843921 125.420998,63.3195782 Z"/>
    <path fill="#350DA3" fill-rule="nonzero" d="M192.917728,28.8854777 C192.972117,29.8646464 192.31945,31.00701 191.394836,31.442196 C190.470224,31.8773821 189.708778,31.442196 189.6,30.4630273 C189.491222,29.4838586 190.198279,28.341495 191.122892,27.9063089 C192.047504,27.4711229 192.863339,27.9063089 192.917728,28.8854777 Z"/>
    <path fill="#6635ED" fill-rule="nonzero" d="M248.612048,60.0012842 C248.557659,58.4781328 251.984166,52.0591377 260.577625,51.6783499 C256.716007,54.4526613 254.214113,58.9677171 253.996557,63.9723574 C251.440275,63.2107817 248.612048,61.3068424 248.612048,60.0012842 Z"/>
    <g fill-rule="nonzero" transform="translate(281.191 232.825)">
      <polygon fill="#FFF" points="2.556 12.946 .109 12.729 .163 .816 2.611 .98"/>
      <path fill="#B6F2CE" d="M2.61067125,0.979168734 C2.61067125,1.30555831 2.06678141,1.52315137 1.35972462,1.4687531 C0.652667815,1.41435484 0.163166954,1.08796526 0.163166954,0.761575682 C0.163166954,0.435186104 0.707056799,0.217593052 1.4141136,0.271991316 C2.06678141,0.326389578 2.61067125,0.652779156 2.61067125,0.979168734 Z"/>
      <path fill="#FFF" d="M2.55628227,12.9467867 C2.55628227,13.2731761 2.01239243,13.4907692 1.30533563,13.4363709 C0.652667815,13.3819727 0.108777969,13.0555831 0.108777969,12.7291936 C0.108777969,12.402804 0.652667815,12.185211 1.35972462,12.2396092 C2.01239243,12.2940075 2.55628227,12.6203971 2.55628227,12.9467867 Z"/>
    </g>
    <path fill="#350DA3" fill-rule="nonzero" d="M191.993115,28.123902 C191.993115,28.123902 196.235456,25.2951923 196.398623,19.9641626 C196.724957,20.3993486 197.214458,21.6505087 197.214458,21.6505087 C197.214458,21.6505087 196.61618,25.2951923 192.428227,28.9942742 C192.537005,29.1030707 191.993115,28.123902 191.993115,28.123902 Z"/>
  </g>
</svg>
