<?xml version="1.0" encoding="iso-8859-1"?>
<!-- Generator: Adobe Illustrator 19.0.0, SVG Export Plug-In . SVG Version: 6.00 Build 0)  -->
<svg version="1.1" id="Capa_1" xmlns="http://www.w3.org/2000/svg" xmlns:xlink="http://www.w3.org/1999/xlink" x="0px" y="0px"
	 viewBox="0 0 512 512" style="enable-background:new 0 0 512 512;" xml:space="preserve">
<path style="fill:#14C4BB;" d="M164.67,476.771H10.349C4.633,476.771,0,472.138,0,466.422V43.481
	c0-5.716,4.633-10.349,10.349-10.349H164.67c5.716,0,10.349,4.633,10.349,10.349v422.942
	C175.019,472.138,170.386,476.771,164.67,476.771z"/>
<path style="fill:#F96982;" d="M501.651,134.431H237.025c-5.716,0-10.349-4.633-10.349-10.349V43.481
	c0-5.716,4.633-10.349,10.349-10.349h264.626c5.716,0,10.349,4.633,10.349,10.349v80.601
	C512,129.798,507.367,134.431,501.651,134.431z"/>
<path style="fill:#5089DD;" d="M338.746,476.771H234.705c-5.716,0-10.349-4.633-10.349-10.349v-104.04
	c0-5.716,4.633-10.349,10.349-10.349h104.041c5.716,0,10.349,4.633,10.349,10.349v104.041
	C349.095,472.138,344.461,476.771,338.746,476.771z"/>
<path style="fill:#00349B;" d="M501.651,476.771H397.61c-5.716,0-10.349-4.633-10.349-10.349v-104.04
	c0-5.716,4.633-10.349,10.349-10.349h104.041c5.716,0,10.349,4.633,10.349,10.349v104.041
	C512,472.138,507.367,476.771,501.651,476.771z"/>
<g>
	<path style="fill:#88A5A0;" d="M504.194,185.525H226.676c-4.267,0-7.726-3.459-7.726-7.726s3.459-7.726,7.726-7.726h277.519
		c4.267,0,7.726,3.459,7.726,7.726C511.921,182.066,508.461,185.525,504.194,185.525z"/>
	<path style="fill:#88A5A0;" d="M504.194,229.689H226.676c-4.267,0-7.726-3.459-7.726-7.726s3.459-7.726,7.726-7.726h277.519
		c4.267,0,7.726,3.459,7.726,7.726C511.921,226.23,508.461,229.689,504.194,229.689z"/>
	<path style="fill:#88A5A0;" d="M504.194,273.854H226.676c-4.267,0-7.726-3.459-7.726-7.726s3.459-7.726,7.726-7.726h277.519
		c4.267,0,7.726,3.459,7.726,7.726C511.921,270.395,508.461,273.854,504.194,273.854z"/>
	<path style="fill:#88A5A0;" d="M504.194,318.019H226.676c-4.267,0-7.726-3.459-7.726-7.726s3.459-7.726,7.726-7.726h277.519
		c4.267,0,7.726,3.459,7.726,7.726C511.921,314.56,508.461,318.019,504.194,318.019z"/>
</g>
<g>
	<path style="fill:#DCF9F7;" d="M328.774,93.129c-4.267,0-7.726-3.459-7.726-7.726v-1.257c0-4.267,3.459-7.726,7.726-7.726
		s7.726,3.459,7.726,7.726v1.257C336.5,89.67,333.041,93.129,328.774,93.129z"/>
	<path style="fill:#DCF9F7;" d="M369.338,93.129c-4.267,0-7.726-3.459-7.726-7.726v-1.257c0-4.267,3.459-7.726,7.726-7.726
		s7.726,3.459,7.726,7.726v1.257C377.064,89.67,373.605,93.129,369.338,93.129z"/>
	<path style="fill:#DCF9F7;" d="M409.901,93.129c-4.267,0-7.726-3.459-7.726-7.726v-1.257c0-4.267,3.459-7.726,7.726-7.726
		s7.726,3.459,7.726,7.726v1.257C417.628,89.67,414.169,93.129,409.901,93.129z"/>
</g>
<path style="fill:#00349B;" d="M343.977,478.868c-1.977,0-3.955-0.755-5.463-2.263L225.526,363.617
	c-3.018-3.017-3.018-7.909,0-10.927c3.017-3.017,7.909-3.017,10.927,0L349.44,465.679c3.018,3.017,3.018,7.909,0,10.927
	C347.932,478.114,345.954,478.868,343.977,478.868z"/>
<path style="fill:#00A094;" d="M61.038,375.268c-1.977,0-3.955-0.755-5.463-2.263l-15.358-15.358c-3.018-3.017-3.018-7.909,0-10.927
	c3.017-3.017,7.909-3.017,10.927,0l15.358,15.358c3.018,3.017,3.018,7.909,0,10.927C64.992,374.514,63.015,375.268,61.038,375.268z"
	/>
<g>
	<path style="fill:#DCF9F7;" d="M123.735,412.527H45.68c-4.267,0-7.726-3.459-7.726-7.726s3.459-7.726,7.726-7.726h78.056
		c4.267,0,7.726,3.459,7.726,7.726S128.003,412.527,123.735,412.527z"/>
	<path style="fill:#DCF9F7;" d="M123.735,443.817H45.68c-4.267,0-7.726-3.459-7.726-7.726s3.459-7.726,7.726-7.726h78.056
		c4.267,0,7.726,3.459,7.726,7.726C131.462,440.357,128.003,443.817,123.735,443.817z"/>
</g>
<g>
</g>
<g>
</g>
<g>
</g>
<g>
</g>
<g>
</g>
<g>
</g>
<g>
</g>
<g>
</g>
<g>
</g>
<g>
</g>
<g>
</g>
<g>
</g>
<g>
</g>
<g>
</g>
<g>
</g>
</svg>
